{
.appVersion = "1268";
DisplayStrings = (
"/alefHamzabelow-ar/yeh-ar/reh-ar/yeh-ar/kaf-ar  /kaf-ar/lam-ar/alef-ar/peh-ar/teh-ar/waw-ar/noon-ar",
"/meem-ar/alef-ar/yeh-ar/lam-ar/yeh-ar  /seen-ar/alef-ar/yeh-ar/reh-ar/yeh-ar/seen-ar",
"/hamzaabove-ar",
"/hamzabelow-ar",
"/behDotless-ar.init",
"/hah-ar",
"/threedotsdownbelow-ar",
"/tcheh-ar",
"/twodotshorizontalbelow-ar"
);
customParameters = (
{
name = fsType;
value = (
);
},
{
name = licenseURL;
value = "http://scripts.sil.org/OFL";
},
{
name = license;
value = "This Font Software is licensed under the SIL Open Font License, Version 1.1. This license is available with a FAQ at: http://scripts.sil.org/OFL";
},
{
name = "Use Typo Metrics";
value = 1;
},
{
name = "Disable Last Change";
value = 1;
},
{
name = "Use Line Breaks";
value = 1;
},
{
name = Axes;
value = (
{
Name = Weight;
Tag = wght;
}
);
},
{
name = openTypeOS2StrikeoutPosition;
value = 250;
},
{
name = openTypeOS2StrikeoutSize;
value = 50;
},
{
name = openTypeOS2SubscriptXOffset;
value = 0;
},
{
name = openTypeOS2SubscriptXSize;
value = 700;
},
{
name = openTypeOS2SubscriptYOffset;
value = 140;
},
{
name = openTypeOS2SubscriptYSize;
value = 650;
},
{
name = openTypeOS2SuperscriptXOffset;
value = 0;
},
{
name = openTypeOS2SuperscriptXSize;
value = 700;
},
{
name = openTypeOS2SuperscriptYOffset;
value = 477;
},
{
name = openTypeOS2SuperscriptYSize;
value = 650;
},
{
name = flags;
value = header;
},
{
name = sampleText;
value = "Hello Dears :D";
},
{
name = versionString;
value = "0.850";
}
);
date = "2019-09-16 14:55:29 +0000";
designer = "AbdElmomen Kadhim";
familyName = Darine;
featurePrefixes = (
{
code = "languagesystem DFLT dflt;
languagesystem arab dflt;
languagesystem latn dflt;
languagesystem latn ROM;
languagesystem latn MOL;
languagesystem arab URD;";
name = Languagesystems;
}
);
features = (
{
automatic = 1;
code = "feature init;
feature medi;
feature fina;
";
name = aalt;
},
{
automatic = 1;
code = "lookup ccmp_arab_1 {

glyphs = (
{
glyphname = "hamza-ar";
layers = (
{
anchors = (
{
name = _top;
position = "{272, 0}";
},
{
name = center;
position = "{284, 319}";
},
{
name = top;
position = "{262, 500}";
}
);
layerId = "7C6EC3B8-53E3-46D5-865A-ED8DFE2E3A2E";
paths = (
{
closed = 1;
nodes = (
"183 230 OFFCURVE",
"164 275 OFFCURVE",
"164 335 CURVE SMOOTH",
"164 478 OFFCURVE",
"338 499 OFFCURVE",
"391 422 CURVE",
"415 438 LINE",
"352 531 OFFCURVE",
"134 504 OFFCURVE",
"134 335 CURVE SMOOTH",
"134 268 OFFCURVE",
"157 213 OFFCURVE",
"205 168 CURVE",
"225 190 LINE"
);
},
{
closed = 1;
nodes = (
"203 153 OFFCURVE",
"345 154 OFFCURVE",
"460 215 CURVE",
"446 241 LINE",
"337 184 OFFCURVE",
"205 183 OFFCURVE",
"64 203 CURVE",
"60 173 LINE"
);
}
);
width = 600;
},
{
anchors = (
{
name = _top;
position = "{292, 0}";
},
{
name = center;
position = "{280, 329}";
},
{
name = top;
position = "{271, 613}";
}
);
layerId = "EA99615A-DD74-4F65-B9DC-480CDB683AEE";
paths = (
{
closed = 1;
nodes = (
"186 255 OFFCURVE",
"168 297 OFFCURVE",
"168 353 CURVE SMOOTH",
"168 452 OFFCURVE",
"314 508 OFFCURVE",
"367 431 CURVE",
"441 481 LINE",
"339 632 OFFCURVE",
"78 541 OFFCURVE",
"78 353 CURVE SMOOTH",
"78 274 OFFCURVE",
"107 206 OFFCURVE",
"163 153 CURVE",
"225 219 LINE"
);
},
{
closed = 1;
nodes = (
"337 225 OFFCURVE",
"219 213 OFFCURVE",
"55 236 CURVE",
"43 146 LINE",
"223 121 OFFCURVE",
"362 136 OFFCURVE",
"470 193 CURVE",
"428 273 LINE"
);
}
);
width = 600;
},
{
anchors = (
{
name = _top;
position = "{300, 0}";
},
{
name = center;
position = "{302, 260}";
},
{
name = top;
position = "{300, 500}";
}
);
layerId = "9AB624CD-9C19-4372-9845-4C197A276709";
paths = (
{
closed = 1;
nodes = (
"264 79 OFFCURVE",
"391 92 OFFCURVE",
"492 144 CURVE",
"464 198 LINE",
"375 151 OFFCURVE",
"261 140 OFFCURVE",
"100 163 CURVE",
"92 103 LINE"
);
},
{
closed = 1;
nodes = (
"195 189 OFFCURVE",
"176 235 OFFCURVE",
"176 295 CURVE SMOOTH",
"176 409 OFFCURVE",
"341 471 OFFCURVE",
"402 381 CURVE",
"452 415 LINE",
"358 553 OFFCURVE",
"116 468 OFFCURVE",
"116 295 CURVE SMOOTH",
"116 220 OFFCURVE",
"143 156 OFFCURVE",
"196 106 CURVE",
"238 150 LINE"
);
}
);
width = 600;
}
);
unicode = 0621;
},
{
glyphname = "alef-ar";
layers = (
{
anchors = (
{
name = bottom;
position = "{70, -18}";
},
{
name = top;
position = "{48, 1017}";
}
);
layerId = "7C6EC3B8-53E3-46D5-865A-ED8DFE2E3A2E";
paths = (
{
closed = 1;
nodes = (
"87 482 OFFCURVE",
"86 520 OFFCURVE",
"70 1017 CURVE",
"40 1017 LINE",
"56 520 OFFCURVE",
"57 482 OFFCURVE",
"56 -18 CURVE",
"86 -18 LINE"
);
}
);
width = 126;
},
{
anchors = (
{
name = _top;
position = "{103, -291}";
},
{
name = top;
position = "{95, 1021}";
}
);
layerId = "EA99615A-DD74-4F65-B9DC-480CDB683AEE";
paths = (
{
closed = 1;
nodes = (
"148 390 OFFCURVE",
"145 597 OFFCURVE",
"130 1018 CURVE",
"40 1016 LINE",
"55 595 OFFCURVE",
"58 388 OFFCURVE",
"56 -18 CURVE",
"146 -18 LINE"
);
}
);
width = 187;
},
{
anchors = (
{
name = bottom;
position = "{100, -18}";
},
{
name = top;
position = "{93, 1018}";
}
);
layerId = "9AB624CD-9C19-4372-9845-4C197A276709";
paths = (
{
closed = 1;
nodes = (
"131 482 OFFCURVE",
"131 521 OFFCURVE",
"120 1018 CURVE",
"60 1016 LINE",
"71 519 OFFCURVE",
"71 482 OFFCURVE",
"70 -18 CURVE",
"130 -18 LINE"
);
}
);
width = 190;
}
);
unicode = 0627;
},
{
glyphname = "alef-ar.fina";
layers = (
{
anchors = (
{
name = "#entry";
position = "{196, 0}";
},
{
name = bottom;
position = "{89, 0}";
},
{
name = top;
position = "{57, 1040}";
}
);
background = {
paths = (
{
closed = 0;
nodes = (
"238 12 LINE"
);
}
);
};
layerId = "7C6EC3B8-53E3-46D5-865A-ED8DFE2E3A2E";
paths = (
{
closed = 1;
nodes = (
"44 893 OFFCURVE",
"43 771 OFFCURVE",
"42 665 CURVE SMOOTH",
"41 570 OFFCURVE",
"40 489 OFFCURVE",
"40 420 CURVE SMOOTH",
"40 145 OFFCURVE",
"43 0 OFFCURVE",
"196 0 CURVE",
"196 30 LINE",
"73 30 OFFCURVE",
"70 145 OFFCURVE",
"70 420 CURVE SMOOTH",
"70 566 OFFCURVE",
"74 765 OFFCURVE",
"75 1036 CURVE",
"45 1036 LINE"
);
}
);
width = 196;
},
{
anchors = (
{
name = "#entry";
position = "{369, 0}";
},
{
name = bottom;
position = "{57, -203}";
},
{
name = top;
position = "{59, 1148}";
}
);
hints = (
{
horizontal = 1;
origin = "{0, 13}";
target = "{0, 12}";
type = Stem;
},
{
origin = "{0, 9}";
target = "{0, 2}";
type = Stem;
}
);
layerId = "EA99615A-DD74-4F65-B9DC-480CDB683AEE";
paths = (
{
closed = 1;
nodes = (
"177 90 OFFCURVE",
"110 166 OFFCURVE",
"110 465 CURVE SMOOTH",
"110 480 OFFCURVE",
"109 974 OFFCURVE",
"110 1081 CURVE",
"20 1081 LINE",
"19 938 OFFCURVE",
"20 530 OFFCURVE",
"20 465 CURVE SMOOTH",
"20 187 OFFCURVE",
"84 0 OFFCURVE",
"369 0 CURVE",
"369 90 LINE"
);
}
);
width = 369;
},
{
anchors = (
{
name = "#entry";
position = "{426, 0}";
},
{
name = bottom;
position = "{138, 0}";
},
{
name = top;
position = "{97, 1000}";
}
);
layerId = "9AB624CD-9C19-4372-9845-4C197A276709";
paths = (
{
closed = 1;
nodes = (
"134 60 OFFCURVE",
"120 234 OFFCURVE",
"120 608 CURVE SMOOTH",
"120 681 OFFCURVE",
"120 760 OFFCURVE",
"122 843 CURVE SMOOTH",
"123 893 OFFCURVE",
"123 945 OFFCURVE",
"123 998 CURVE",
"63 998 LINE",
"63 945 OFFCURVE",
"62 894 OFFCURVE",
"62 844 CURVE SMOOTH",
"62 760 OFFCURVE",
"60 681 OFFCURVE",
"60 608 CURVE SMOOTH",
"60 232 OFFCURVE",
"78 0 OFFCURVE",
"426 0 CURVE",
"426 60 LINE"
);
}
);
width = 426;
}
);
unicode = FE8E;
},
{
glyphname = "alef-ar.fina.001";
layers = (
{
anchors = (
{
name = "#entry";
position = "{176, 0}";
},
{
name = _top;
position = "{69, 0}";
},
{
name = top;
position = "{39, 1046}";
}
);
background = {
paths = (
{
closed = 0;
nodes = (
"218 12 LINE"
);
}
);
};
layerId = "7C6EC3B8-53E3-46D5-865A-ED8DFE2E3A2E";
paths = (
{
closed = 1;
nodes = (
"24 893 OFFCURVE",
"23 771 OFFCURVE",
"22 665 CURVE SMOOTH",
"21 570 OFFCURVE",
"20 489 OFFCURVE",
"20 420 CURVE SMOOTH",
"20 145 OFFCURVE",
"23 0 OFFCURVE",
"176 0 CURVE",
"176 30 LINE",
"53 30 OFFCURVE",
"50 145 OFFCURVE",
"50 420 CURVE SMOOTH",
"50 566 OFFCURVE",
"54 765 OFFCURVE",
"55 1036 CURVE",
"25 1036 LINE"
);
}
);
width = 176;
},
{
anchors = (
{
name = "#entry";
position = "{239, 0}";
},
{
name = _top;
position = "{57, -203}";
},
{
name = top;
position = "{59, 1148}";
}
);
hints = (
{
horizontal = 1;
origin = "{0, 12}";
target = "{0, 13}";
type = Stem;
},
{
origin = "{0, 9}";
target = "{0, 2}";
type = Stem;
}
);
layerId = "EA99615A-DD74-4F65-B9DC-480CDB683AEE";
paths = (
{
closed = 1;
nodes = (
"140 90 OFFCURVE",
"110 166 OFFCURVE",
"110 465 CURVE SMOOTH",
"110 480 OFFCURVE",
"109 974 OFFCURVE",
"110 1081 CURVE",
"20 1081 LINE",
"19 938 OFFCURVE",
"20 530 OFFCURVE",
"20 465 CURVE SMOOTH",
"20 187 OFFCURVE",
"47 0 OFFCURVE",
"239 0 CURVE",
"239 90 LINE"
);
}
);
width = 239;
},
{
anchors = (
{
name = "#entry";
position = "{416, 0}";
},
{
name = _top;
position = "{113, -117}";
},
{
name = top;
position = "{87, 1148}";
}
);
layerId = "9AB624CD-9C19-4372-9845-4C197A276709";
paths = (
{
closed = 1;
nodes = (
"124 60 OFFCURVE",
"110 234 OFFCURVE",
"110 608 CURVE SMOOTH",
"110 681 OFFCURVE",
"110 760 OFFCURVE",
"112 843 CURVE SMOOTH",
"113 893 OFFCURVE",
"113 945 OFFCURVE",
"113 998 CURVE",
"53 998 LINE",
"53 945 OFFCURVE",
"52 894 OFFCURVE",
"52 844 CURVE SMOOTH",
"52 760 OFFCURVE",
"50 681 OFFCURVE",
"50 608 CURVE SMOOTH",
"50 232 OFFCURVE",
"68 0 OFFCURVE",
"416 0 CURVE",
"416 60 LINE"
);
}
);
width = 416;
},
{
anchors = (
{
name = "#entry";
position = "{239, 0}";
},
{
name = _top;
position = "{57, -203}";
},
{
name = top;
position = "{59, 1148}";
}
);
associatedMasterId = "EA99615A-DD74-4F65-B9DC-480CDB683AEE";
hints = (
{
horizontal = 1;
origin = "{0, 12}";
target = "{0, 13}";
type = Stem;
},
{
origin = "{0, 9}";
target = "{0, 2}";
type = Stem;
}
);
layerId = "C13C1C85-F2DF-4584-9AAC-549B8314FBC6";
name = "Oct 8 19, 17:37";
paths = (
{
closed = 1;
nodes = (
"140 90 OFFCURVE",
"110 166 OFFCURVE",
"110 465 CURVE SMOOTH",
"110 480 OFFCURVE",
"109 974 OFFCURVE",
"110 1081 CURVE",
"20 1081 LINE",
"19 938 OFFCURVE",
"20 530 OFFCURVE",
"20 465 CURVE SMOOTH",
"20 187 OFFCURVE",
"47 0 OFFCURVE",
"239 0 CURVE",
"239 90 LINE"
);
}
);
width = 239;
},
{
anchors = (
{
name = "#entry";
position = "{239, 0}";
},
{
name = _top;
position = "{57, -203}";
},
{
name = top;
position = "{59, 1148}";
}
);
associatedMasterId = "EA99615A-DD74-4F65-B9DC-480CDB683AEE";
hints = (
{
horizontal = 1;
origin = "{0, 12}";
target = "{0, 13}";
type = Stem;
},
{
origin = "{0, 9}";
target = "{0, 2}";
type = Stem;
}
);
layerId = "85EA3DD8-3579-4EA4-9F14-51D862FF53C3";
name = "Oct 8 19, 17:37";
paths = (
{
closed = 1;
nodes = (
"140 90 OFFCURVE",
"110 166 OFFCURVE",
"110 465 CURVE SMOOTH",
"110 480 OFFCURVE",
"109 974 OFFCURVE",
"110 1081 CURVE",
"20 1081 LINE",
"19 938 OFFCURVE",
"20 530 OFFCURVE",
"20 465 CURVE SMOOTH",
"20 187 OFFCURVE",
"47 0 OFFCURVE",
"239 0 CURVE",
"239 90 LINE"
);
}
);
width = 239;
},
{
anchors = (
{
name = "#entry";
position = "{239, 0}";
},
{
name = _top;
position = "{57, -203}";
},
{
name = top;
position = "{59, 1148}";
}
);
associatedMasterId = "EA99615A-DD74-4F65-B9DC-480CDB683AEE";
hints = (
{
horizontal = 1;
origin = "{0, 12}";
target = "{0, 13}";
type = Stem;
},
{
origin = "{0, 9}";
target = "{0, 2}";
type = Stem;
}
);
layerId = "9D19F429-D991-47D8-BF8F-108EDC439270";
name = "Oct 8 19, 17:37";
paths = (
{
closed = 1;
nodes = (
"140 90 OFFCURVE",
"110 166 OFFCURVE",
"110 465 CURVE SMOOTH",
"110 480 OFFCURVE",
"109 974 OFFCURVE",
"110 1081 CURVE",
"20 1081 LINE",
"19 938 OFFCURVE",
"20 530 OFFCURVE",
"20 465 CURVE SMOOTH",
"20 187 OFFCURVE",
"47 0 OFFCURVE",
"239 0 CURVE",
"239 90 LINE"
);
}
);
width = 239;
},
{
anchors = (
{
name = "#entry";
position = "{239, 0}";
},
{
name = _top;
position = "{57, -203}";
},
{
name = top;
position = "{59, 1148}";
}
);
associatedMasterId = "EA99615A-DD74-4F65-B9DC-480CDB683AEE";
hints = (
{
horizontal = 1;
origin = "{0, 12}";
target = "{0, 13}";
type = Stem;
},
{
origin = "{0, 9}";
target = "{0, 2}";
type = Stem;
}
);
layerId = "1BF80D72-318C-48C2-AC59-7E15D04EF715";
name = "Oct 8 19, 17:37";
paths = (
{
closed = 1;
nodes = (
"140 90 OFFCURVE",
"110 166 OFFCURVE",
"110 465 CURVE SMOOTH",
"110 480 OFFCURVE",
"109 974 OFFCURVE",
"110 1081 CURVE",
"20 1081 LINE",
"19 938 OFFCURVE",
"20 530 OFFCURVE",
"20 465 CURVE SMOOTH",
"20 187 OFFCURVE",
"47 0 OFFCURVE",
"239 0 CURVE",
"239 90 LINE"
);
}
);
width = 239;
},
{
anchors = (
{
name = "#entry";
position = "{239, 0}";
},
{
name = _top;
position = "{57, -203}";
},
{
name = top;
position = "{59, 1148}";
}
);
associatedMasterId = "EA99615A-DD74-4F65-B9DC-480CDB683AEE";
hints = (
{
horizontal = 1;
origin = "{0, 12}";
target = "{0, 13}";
type = Stem;
},
{
origin = "{0, 9}";
target = "{0, 2}";
type = Stem;
}
);
layerId = "34337D78-3D1D-453B-875B-27490050FFD2";
name = "Oct 8 19, 17:37";
paths = (
{
closed = 1;
nodes = (
"140 90 OFFCURVE",
"110 166 OFFCURVE",
"110 465 CURVE SMOOTH",
"110 480 OFFCURVE",
"109 974 OFFCURVE",
"110 1081 CURVE",
"20 1081 LINE",
"19 938 OFFCURVE",
"20 530 OFFCURVE",
"20 465 CURVE SMOOTH",
"20 187 OFFCURVE",
"47 0 OFFCURVE",
"239 0 CURVE",
"239 90 LINE"
);
}
);
width = 239;
},
{
anchors = (
{
name = "#entry";
position = "{239, 0}";
},
{
name = _top;
position = "{57, -203}";
},
{
name = top;
position = "{59, 1148}";
}
);
associatedMasterId = "EA99615A-DD74-4F65-B9DC-480CDB683AEE";
hints = (
{
horizontal = 1;
origin = "{0, 12}";
target = "{0, 13}";
type = Stem;
},
{
origin = "{0, 9}";
target = "{0, 2}";
type = Stem;
}
);
layerId = "7A807600-C7A2-4C72-8F91-DC9726AB2422";
name = "Oct 8 19, 17:37";
paths = (
{
closed = 1;
nodes = (
"140 90 OFFCURVE",
"110 166 OFFCURVE",
"110 465 CURVE SMOOTH",
"110 480 OFFCURVE",
"109 974 OFFCURVE",
"110 1081 CURVE",
"20 1081 LINE",
"19 938 OFFCURVE",
"20 530 OFFCURVE",
"20 465 CURVE SMOOTH",
"20 187 OFFCURVE",
"47 0 OFFCURVE",
"239 0 CURVE",
"239 90 LINE"
);
}
);
width = 239;
},
{
anchors = (
{
name = "#entry";
position = "{239, 0}";
},
{
name = _top;
position = "{57, -203}";
},
{
name = top;
position = "{59, 1148}";
}
);
associatedMasterId = "EA99615A-DD74-4F65-B9DC-480CDB683AEE";
hints = (
{
horizontal = 1;
origin = "{0, 12}";
target = "{0, 13}";
type = Stem;
},
{
origin = "{0, 9}";
target = "{0, 2}";
type = Stem;
}
);
layerId = "A1B81ADA-F735-4FB3-B6E2-1BCBC467CAA6";
name = "Oct 8 19, 17:37";
paths = (
{
closed = 1;
nodes = (
"140 90 OFFCURVE",
"110 166 OFFCURVE",
"110 465 CURVE SMOOTH",
"110 480 OFFCURVE",
"109 974 OFFCURVE",
"110 1081 CURVE",
"20 1081 LINE",
"19 938 OFFCURVE",
"20 530 OFFCURVE",
"20 465 CURVE SMOOTH",
"20 187 OFFCURVE",
"47 0 OFFCURVE",
"239 0 CURVE",
"239 90 LINE"
);
}
);
width = 239;
},
{
anchors = (
{
name = "#entry";
position = "{239, 0}";
},
{
name = _top;
position = "{57, -203}";
},
{
name = top;
position = "{59, 1148}";
}
);
associatedMasterId = "EA99615A-DD74-4F65-B9DC-480CDB683AEE";
hints = (
{
horizontal = 1;
origin = "{0, 12}";
target = "{0, 13}";
type = Stem;
},
{
origin = "{0, 9}";
target = "{0, 2}";
type = Stem;
}
);
layerId = "85A026A5-4DAE-42FD-B453-C2A99EBEBC0E";
name = "Oct 8 19, 17:37";
paths = (
{
closed = 1;
nodes = (
"140 90 OFFCURVE",
"110 166 OFFCURVE",
"110 465 CURVE SMOOTH",
"110 480 OFFCURVE",
"109 974 OFFCURVE",
"110 1081 CURVE",
"20 1081 LINE",
"19 938 OFFCURVE",
"20 530 OFFCURVE",
"20 465 CURVE SMOOTH",
"20 187 OFFCURVE",
"47 0 OFFCURVE",
"239 0 CURVE",
"239 90 LINE"
);
}
);
width = 239;
}
);
},
{
glyphname = "behDotless-ar";
layers = (
{
anchors = (
{
name = "#entry";
position = "{1159, 0}";
},
{
name = "#exit";
position = "{75, 2}";
},
{
name = bottom;
position = "{590, 0}";
},
{
name = top;
position = "{590, 500}";
}
);
layerId = "7C6EC3B8-53E3-46D5-865A-ED8DFE2E3A2E";
paths = (
{
closed = 1;
nodes = (
"54 387 OFFCURVE",
"41 330 OFFCURVE",
"41 262 CURVE SMOOTH",
"41 69 OFFCURVE",
"152 0 OFFCURVE",
"457 0 CURVE SMOOTH",
"667 0 OFFCURVE",
"737 0 OFFCURVE",
"756 0 CURVE SMOOTH",
"1004 0 OFFCURVE",
"1094 73 OFFCURVE",
"1094 276 CURVE SMOOTH",
"1094 343 OFFCURVE",
"1086 398 OFFCURVE",
"1053 511 CURVE",
"1023 503 LINE",
"1056 393 OFFCURVE",
"1064 341 OFFCURVE",
"1064 276 CURVE SMOOTH",
"1064 91 OFFCURVE",
"988 30 OFFCURVE",
"756 30 CURVE SMOOTH",
"736 30 OFFCURVE",
"669 30 OFFCURVE",
"457 30 CURVE SMOOTH",
"167 30 OFFCURVE",
"71 89 OFFCURVE",
"71 262 CURVE SMOOTH",
"71 326 OFFCURVE",
"83 379 OFFCURVE",
"127 502 CURVE",
"99 512 LINE"
);
}
);
width = 1135;
},
{
anchors = (
{
name = "#entry";
position = "{1283, 0}";
}
);
layerId = "EA99615A-DD74-4F65-B9DC-480CDB683AEE";
paths = (
{
closed = 1;
nodes = (
"1173 109 OFFCURVE",
"1152 90 OFFCURVE",
"697 90 CURVE SMOOTH",
"639 90 OFFCURVE",
"581 90 OFFCURVE",
"519 90 CURVE SMOOTH",
"150 90 OFFCURVE",
"110 132 OFFCURVE",
"110 515 CURVE",
"20 515 LINE",
"20 83 OFFCURVE",
"94 0 OFFCURVE",
"519 0 CURVE SMOOTH",
"581 0 OFFCURVE",
"640 0 OFFCURVE",
"697 0 CURVE SMOOTH",
"1155 0 OFFCURVE",
"1263 18 OFFCURVE",
"1263 515 CURVE",
"1173 515 LINE"
);
}
);
width = 1283;
},
{
anchors = (
{
name = "#entry";
position = "{1113, 0}";
},
{
name = "#exit";
position = "{94, 2}";
},
{
name = bottom;
position = "{609, 0}";
},
{
name = top;
position = "{609, 500}";
}
);
layerId = "9AB624CD-9C19-4372-9845-4C197A276709";
paths = (
{
closed = 1;
nodes = (
"73 388 OFFCURVE",
"60 331 OFFCURVE",
"60 262 CURVE SMOOTH",
"60 68 OFFCURVE",
"172 0 OFFCURVE",
"476 0 CURVE SMOOTH",
"688 0 OFFCURVE",
"755 0 OFFCURVE",
"775 0 CURVE SMOOTH",
"1022 0 OFFCURVE",
"1113 73 OFFCURVE",
"1113 276 CURVE SMOOTH",
"1113 348 OFFCURVE",
"1103 405 OFFCURVE",
"1071 512 CURVE",
"1013 494 LINE",
"1044 393 OFFCURVE",
"1053 342 OFFCURVE",
"1053 276 CURVE SMOOTH",
"1053 110 OFFCURVE",
"992 60 OFFCURVE",
"775 60 CURVE SMOOTH",
"754 60 OFFCURVE",
"689 60 OFFCURVE",
"476 60 CURVE SMOOTH",
"202 60 OFFCURVE",
"120 109 OFFCURVE",
"120 262 CURVE SMOOTH",
"120 323 OFFCURVE",
"132 373 OFFCURVE",
"174 492 CURVE",
"118 512 LINE"
);
}
);
width = 1173;
}
);
unicode = 066E;
},
{
glyphname = "behDotless-ar.fina";
layers = (
{
anchors = (
{
name = "#entry";
position = "{1240, 0}";
},
{
name = bottom;
position = "{596, 0}";
},
{
name = top;
position = "{604, 500}";
}
);
layerId = "7C6EC3B8-53E3-46D5-865A-ED8DFE2E3A2E";
paths = (
{
closed = 1;
nodes = (
"45 427 OFFCURVE",
"30 358 OFFCURVE",
"30 298 CURVE SMOOTH",
"30 110 OFFCURVE",
"174 2 OFFCURVE",
"471 2 CURVE SMOOTH",
"556 2 OFFCURVE",
"505 0 OFFCURVE",
"990 0 CURVE SMOOTH",
"1069 0 OFFCURVE",
"1114 54 OFFCURVE",
"1139 129 CURVE",
"1147 47 OFFCURVE",
"1171 0 OFFCURVE",
"1240 0 CURVE",
"1240 30 LINE",
"1153 30 OFFCURVE",
"1166 159 OFFCURVE",
"1166 344 CURVE SMOOTH",
"1166 408 OFFCURVE",
"1161 467 OFFCURVE",
"1157 505 CURVE",
"1127 503 LINE",
"1131 464 OFFCURVE",
"1136 407 OFFCURVE",
"1136 346 CURVE SMOOTH",
"1136 181 OFFCURVE",
"1108 30 OFFCURVE",
"990 30 CURVE SMOOTH",
"498 31 OFFCURVE",
"482 32 OFFCURVE",
"471 32 CURVE SMOOTH",
"192 32 OFFCURVE",
"59 127 OFFCURVE",
"59 299 CURVE SMOOTH",
"59 356 OFFCURVE",
"73 422 OFFCURVE",
"102 495 CURVE",
"74 503 LINE"
);
}
);
width = 1240;
},
{
anchors = (
{
name = "#entry";
position = "{1387, 0}";
},
{
name = top;
position = "{601, 763}";
}
);
layerId = "EA99615A-DD74-4F65-B9DC-480CDB683AEE";
paths = (
{
closed = 1;
nodes = (
"20 96 OFFCURVE",
"103 -1 OFFCURVE",
"485 -1 CURVE SMOOTH",
"654 -1 OFFCURVE",
"798 -2 OFFCURVE",
"1031 -1 CURVE SMOOTH",
"1105 -1 OFFCURVE",
"1150 38 OFFCURVE",
"1176 97 CURVE",
"1220 32 OFFCURVE",
"1290 0 OFFCURVE",
"1387 0 CURVE",
"1387 90 LINE",
"1188 90 OFFCURVE",
"1210 264 OFFCURVE",
"1210 544 CURVE",
"1120 544 LINE",
"1120 334 OFFCURVE",
"1147 89 OFFCURVE",
"1031 89 CURVE SMOOTH",
"485 89 LINE SMOOTH",
"158 89 OFFCURVE",
"110 144 OFFCURVE",
"110 544 CURVE",
"20 544 LINE"
);
}
);
width = 1387;
},
{
anchors = (
{
name = "#entry";
position = "{1305, 0}";
},
{
name = bottom;
position = "{659, 0}";
},
{
name = top;
position = "{651, 500}";
}
);
layerId = "9AB624CD-9C19-4372-9845-4C197A276709";
paths = (
{
closed = 1;
nodes = (
"60 104 OFFCURVE",
"214 2 OFFCURVE",
"502 2 CURVE SMOOTH",
"513 2 OFFCURVE",
"529 1 OFFCURVE",
"1021 0 CURVE SMOOTH",
"1092 0 OFFCURVE",
"1141 42 OFFCURVE",
"1169 124 CURVE",
"1197 45 OFFCURVE",
"1244 0 OFFCURVE",
"1305 0 CURVE",
"1305 60 LINE",
"1241 60 OFFCURVE",
"1198 174 OFFCURVE",
"1197 346 CURVE SMOOTH",
"1197 408 OFFCURVE",
"1192 467 OFFCURVE",
"1188 506 CURVE",
"1128 500 LINE",
"1132 461 OFFCURVE",
"1137 406 OFFCURVE",
"1137 346 CURVE SMOOTH",
"1137 152 OFFCURVE",
"1098 60 OFFCURVE",
"1021 60 CURVE SMOOTH",
"529 61 OFFCURVE",
"513 62 OFFCURVE",
"502 62 CURVE SMOOTH",
"245 62 OFFCURVE",
"120 142 OFFCURVE",
"120 299 CURVE SMOOTH",
"120 353 OFFCURVE",
"134 415 OFFCURVE",
"161 484 CURVE",
"105 506 LINE",
"75 431 OFFCURVE",
"60 361 OFFCURVE",
"60 299 CURVE SMOOTH"
);
}
);
width = 1305;
}
);
},
{
glyphname = "behDotless-ar.medi";
layers = (
{
anchors = (
{
name = "#entry";
position = "{384, 0}";
},
{
name = "#exit";
position = "{0, 0}";
},
{
name = bottom;
position = "{164, 0}";
},
{
name = top;
position = "{72, 500}";
}
);
layerId = "7C6EC3B8-53E3-46D5-865A-ED8DFE2E3A2E";
paths = (
{
closed = 1;
nodes = (
"164 0 OFFCURVE",
"240 10 OFFCURVE",
"273 100 CURVE",
"285 26 OFFCURVE",
"313 0 OFFCURVE",
"384 0 CURVE",
"384 30 LINE",
"277 30 OFFCURVE",
"296 121 OFFCURVE",
"296 312 CURVE SMOOTH",
"296 365 OFFCURVE",
"294 427 OFFCURVE",
"292 500 CURVE",
"262 500 LINE",
"264 423 OFFCURVE",
"266 359 OFFCURVE",
"266 306 CURVE SMOOTH",
"266 38 OFFCURVE",
"223 30 OFFCURVE",
"0 30 CURVE",
"0 0 LINE"
);
}
);
width = 384;
},
{
anchors = (
{
name = "#entry";
position = "{558, 0}";
},
{
name = "#exit";
position = "{0, 0}";
},
{
name = bottom;
position = "{306, -339}";
},
{
name = top;
position = "{286, 876}";
}
);
components = (
{
name = _connector_light;
}
);
layerId = "EA99615A-DD74-4F65-B9DC-480CDB683AEE";
width = 558;
},
{
anchors = (
{
name = "#entry";
position = "{423, 0}";
},
{
name = "#exit";
position = "{0, 0}";
},
{
name = bottom;
position = "{232, 0}";
},
{
name = top;
position = "{232, 499}";
}
);
layerId = "9AB624CD-9C19-4372-9845-4C197A276709";
paths = (
{
closed = 1;
nodes = (
"258 0 OFFCURVE",
"296 38 OFFCURVE",
"296 306 CURVE SMOOTH",
"296 350 OFFCURVE",
"292 492 OFFCURVE",
"292 501 CURVE",
"232 499 LINE",
"234 422 OFFCURVE",
"236 359 OFFCURVE",
"236 306 CURVE SMOOTH",
"236 73 OFFCURVE",
"222 60 OFFCURVE",
"0 60 CURVE",
"0 0 LINE"
);
},
{
closed = 1;
nodes = (
"423 60 LINE",
"323 60 OFFCURVE",
"296 110 OFFCURVE",
"296 312 CURVE",
"236 312 LINE",
"236 80 OFFCURVE",
"281 0 OFFCURVE",
"423 0 CURVE"
);
}
);
width = 423;
}
);
},
{
glyphname = "behDotless-ar.medi.001";
layers = (
{
anchors = (
{
name = "#entry";
position = "{615, -1}";
},
{
name = "#exit";
position = "{-1, -1}";
}
);
layerId = "7C6EC3B8-53E3-46D5-865A-ED8DFE2E3A2E";
paths = (
{
closed = 1;
nodes = (
"501 48 OFFCURVE",
"515 0 OFFCURVE",
"615 0 CURVE",
"615 30 LINE",
"535 30 OFFCURVE",
"526 70 OFFCURVE",
"526 216 CURVE",
"497 212 LINE"
);
},
{
closed = 1;
nodes = (
"73 33 OFFCURVE",
"78 0 OFFCURVE",
"292 0 CURVE SMOOTH",
"536 0 OFFCURVE",
"536 22 OFFCURVE",
"522 485 CURVE",
"492 485 LINE",
"506 23 OFFCURVE",
"506 30 OFFCURVE",
"292 30 CURVE SMOOTH",
"105 30 OFFCURVE",
"103 36 OFFCURVE",
"103 499 CURVE",
"73 499 LINE"
);
},
{
closed = 1;
nodes = (
"80 107 OFFCURVE",
"67 30 OFFCURVE",
"0 30 CURVE",
"0 0 LINE",
"90 0 OFFCURVE",
"115 73 OFFCURVE",
"105 255 CURVE",
"76 253 LINE"
);
}
);
width = 615;
},
{
layerId = "EA99615A-DD74-4F65-B9DC-480CDB683AEE";
width = 600;
},
{
layerId = "9AB624CD-9C19-4372-9845-4C197A276709";
width = 600;
}
);
},
{
glyphname = "behDotless-ar.init";
layers = (
{
anchors = (
{
name = "#exit";
position = "{0, 0}";
},
{
name = bottom;
position = "{192, 0}";
},
{
name = top;
position = "{183, 543}";
}
);
layerId = "7C6EC3B8-53E3-46D5-865A-ED8DFE2E3A2E";
paths = (
{
closed = 1;
nodes = (
"356 0 OFFCURVE",
"331 114 OFFCURVE",
"304 522 CURVE",
"274 520 LINE",
"301 110 OFFCURVE",
"318 30 OFFCURVE",
"0 30 CURVE",
"0 0 LINE"
);
}
);
width = 357;
},
{
anchors = (
{
name = "#exit";
position = "{0, 0}";
},
{
name = bottom;
position = "{308, -185}";
},
{
name = top;
position = "{216, 899}";
}
);
layerId = "EA99615A-DD74-4F65-B9DC-480CDB683AEE";
paths = (
{
closed = 1;
nodes = (
"416 98 OFFCURVE",
"359 90 OFFCURVE",
"0 90 CURVE",
"0 0 LINE",
"404 0 OFFCURVE",
"506 38 OFFCURVE",
"506 463 CURVE",
"416 463 LINE"
);
}
);
width = 546;
},
{
anchors = (
{
name = "#exit";
position = "{0, 0}";
},
{
name = bottom;
position = "{239, 0}";
},
{
name = top;
position = "{301, 500}";
}
);
layerId = "9AB624CD-9C19-4372-9845-4C197A276709";
paths = (
{
closed = 1;
nodes = (
"278 0 OFFCURVE",
"358 121 OFFCURVE",
"334 490 CURVE",
"274 486 LINE",
"296 148 OFFCURVE",
"237 60 OFFCURVE",
"0 60 CURVE",
"0 0 LINE"
);
}
);
width = 458;
}
);
},
{
glyphname = "behDotless-ar.init.001";
layers = (
{
anchors = (
{
name = "#exit";
position = "{0, 0}";
},
{
name = bottom;
position = "{82, 0}";
},
{
name = top;
position = "{7, 538}";
}
);
layerId = "7C6EC3B8-53E3-46D5-865A-ED8DFE2E3A2E";
paths = (
{
closed = 1;
nodes = (
"166 127 OFFCURVE",
"187 30 OFFCURVE",
"0 30 CURVE",
"0 0 LINE",
"225 0 OFFCURVE",
"196 131 OFFCURVE",
"169 538 CURVE",
"139 536 LINE"
);
}
);
width = 207;
},
{
anchors = (
{
name = "#exit";
position = "{0, 0}";
},
{
name = bottom;
position = "{308, -185}";
},
{
name = top;
position = "{216, 899}";
}
);
layerId = "EA99615A-DD74-4F65-B9DC-480CDB683AEE";
paths = (
{
closed = 1;
nodes = (
"416 98 OFFCURVE",
"359 90 OFFCURVE",
"0 90 CURVE",
"0 0 LINE",
"404 0 OFFCURVE",
"506 38 OFFCURVE",
"506 463 CURVE",
"416 463 LINE"
);
}
);
width = 546;
},
{
anchors = (
{
name = "#exit";
position = "{0, 0}";
},
{
name = _top;
position = "{148, -250}";
},
{
name = top;
position = "{30, 800}";
}
);
layerId = "9AB624CD-9C19-4372-9845-4C197A276709";
paths = (
{
closed = 1;
nodes = (
"190 189 OFFCURVE",
"196 60 OFFCURVE",
"0 60 CURVE",
"0 0 LINE",
"260 0 OFFCURVE",
"250 191 OFFCURVE",
"247 500 CURVE",
"187 500 LINE"
);
}
);
width = 278;
}
);
},
{
glyphname = "jeem-ar.fina";
layers = (
{
anchors = (
{
name = "#entry";
position = "{745, 0}";
}
);
components = (
{
name = "hah-ar";
transform = "{1, 0, 0, 1, 0, 10}";
},
{
name = "dotcenter-ar";
transform = "{1, 0, 0, 1, 0, -232}";
}
);
layerId = "7C6EC3B8-53E3-46D5-865A-ED8DFE2E3A2E";
paths = (
{
closed = 1;
nodes = (
"745 30 LINE",
"715 29 OFFCURVE",
"693 33 OFFCURVE",
"664 40 CURVE",
"664 10 LINE",
"693 4 OFFCURVE",
"717 -1 OFFCURVE",
"745 0 CURVE"
);
}
);
width = 745;
},
{
components = (
{
name = "hah-ar.fina";
},
{
name = "dotcenter-ar";
transform = "{1, 0, 0, 1, 130, -275}";
}
);
layerId = "EA99615A-DD74-4F65-B9DC-480CDB683AEE";
width = 965;
},
{
components = (
{
name = "hah-ar.fina";
},
{
name = "dotcenter-ar";
transform = "{1, 0, 0, 1, 126, -248}";
}
);
layerId = "9AB624CD-9C19-4372-9845-4C197A276709";
width = 908;
}
);
unicode = FE9E;
},
{
glyphname = "jeem-ar.medi";
layers = (
{
anchors = (
{
name = "#entry";
position = "{967, 0}";
}
);
components = (
{
name = "jeem-ar.init";
}
);
layerId = "7C6EC3B8-53E3-46D5-865A-ED8DFE2E3A2E";
paths = (
{
closed = 1;
nodes = (
"820 21 LINE",
"885 0 OFFCURVE",
"919 -2 OFFCURVE",
"967 0 CURVE",
"967 30 LINE",
"923 28 OFFCURVE",
"893 30 OFFCURVE",
"831 49 CURVE"
);
}
);
width = 967;
},
{
components = (
{
name = "hah-ar.medi";
},
{
name = "dotbelow-ar";
transform = "{1, 0, 0, 1, 161, -97}";
}
);
layerId = "EA99615A-DD74-4F65-B9DC-480CDB683AEE";
width = 1086;
},
{
components = (
{
name = "hah-ar.medi";
},
{
name = "dotbelow-ar";
transform = "{1, 0, 0, 1, 292, 0}";
}
);
layerId = "9AB624CD-9C19-4372-9845-4C197A276709";
width = 1199;
}
);
unicode = FEA0;
},
{
glyphname = "hah-ar";
layers = (
{
anchors = (
{
name = bottom;
position = "{405, -135}";
},
{
name = top;
position = "{306, 506}";
}
);
layerId = "7C6EC3B8-53E3-46D5-865A-ED8DFE2E3A2E";
paths = (
{
closed = 1;
nodes = (
"202 -486 OFFCURVE",
"60 -389 OFFCURVE",
"60 -218 CURVE SMOOTH",
"60 -77 OFFCURVE",
"213 31 OFFCURVE",
"471 31 CURVE SMOOTH",
"532 31 OFFCURVE",
"596 28 OFFCURVE",
"644 21 CURVE",
"648 51 LINE",
"601 58 OFFCURVE",
"537 61 OFFCURVE",
"475 61 CURVE SMOOTH",
"195 61 OFFCURVE",
"30 -59 OFFCURVE",
"30 -219 CURVE SMOOTH",
"30 -409 OFFCURVE",
"183 -517 OFFCURVE",
"442 -510 CURVE",
"442 -480 LINE"
);
},
{
closed = 1;
nodes = (
"694 30 LINE",
"481 95 OFFCURVE",
"585 506 OFFCURVE",
"306 506 CURVE SMOOTH",
"163 506 OFFCURVE",
"57 326 OFFCURVE",
"39 300 CURVE",
"63 282 LINE",
"82 309 OFFCURVE",
"181 476 OFFCURVE",
"306 476 CURVE SMOOTH",
"541 476 OFFCURVE",
"449 55 OFFCURVE",
"694 0 CURVE"
);
}
);
width = 775;
},
{
anchors = (
{
name = _top;
position = "{379, -233}";
},
{
name = top;
position = "{208, 772}";
}
);
layerId = "EA99615A-DD74-4F65-B9DC-480CDB683AEE";
paths = (
{
closed = 1;
nodes = (
"171 388 OFFCURVE",
"267 464 OFFCURVE",
"324 464 CURVE SMOOTH",
"443 464 OFFCURVE",
"472 373 OFFCURVE",
"509 251 CURVE SMOOTH",
"540 150 OFFCURVE",
"579 26 OFFCURVE",
"699 -10 CURVE",
"725 76 LINE",
"566 125 OFFCURVE",
"645 554 OFFCURVE",
"324 554 CURVE SMOOTH",
"232 554 OFFCURVE",
"115 466 OFFCURVE",
"20 329 CURVE",
"94 277 LINE"
);
},
{
closed = 1;
nodes = (
"277 -487 OFFCURVE",
"133 -389 OFFCURVE",
"133 -235 CURVE SMOOTH",
"133 -96 OFFCURVE",
"290 0 OFFCURVE",
"533 0 CURVE SMOOTH",
"595 0 OFFCURVE",
"662 -4 OFFCURVE",
"699 -10 CURVE",
"713 80 LINE",
"670 86 OFFCURVE",
"599 90 OFFCURVE",
"533 90 CURVE SMOOTH",
"242 90 OFFCURVE",
"43 -39 OFFCURVE",
"43 -235 CURVE SMOOTH",
"43 -443 OFFCURVE",
"229 -579 OFFCURVE",
"501 -571 CURVE",
"499 -481 LINE"
);
}
);
width = 745;
},
{
anchors = (
{
name = bottom;
position = "{409, 62}";
},
{
name = top;
position = "{306, 535}";
}
);
layerId = "9AB624CD-9C19-4372-9845-4C197A276709";
paths = (
{
closed = 1;
nodes = (
"596 82 OFFCURVE",
"562 183 OFFCURVE",
"526 294 CURVE SMOOTH",
"489 407 OFFCURVE",
"446 535 OFFCURVE",
"306 535 CURVE SMOOTH",
"164 535 OFFCURVE",
"57 354 OFFCURVE",
"38 328 CURVE",
"88 294 LINE",
"107 322 OFFCURVE",
"198 475 OFFCURVE",
"306 475 CURVE SMOOTH",
"510 475 OFFCURVE",
"409 62 OFFCURVE",
"687 0 CURVE",
"701 58 LINE"
);
},
{
closed = 1;
nodes = (
"602 86 OFFCURVE",
"539 90 OFFCURVE",
"471 90 CURVE SMOOTH",
"208 90 OFFCURVE",
"30 -22 OFFCURVE",
"30 -189 CURVE SMOOTH",
"30 -378 OFFCURVE",
"186 -487 OFFCURVE",
"443 -481 CURVE",
"441 -421 LINE",
"217 -427 OFFCURVE",
"90 -341 OFFCURVE",
"90 -189 CURVE SMOOTH",
"90 -59 OFFCURVE",
"242 30 OFFCURVE",
"471 30 CURVE SMOOTH",
"536 30 OFFCURVE",
"597 27 OFFCURVE",
"640 20 CURVE",
"648 80 LINE"
);
}
);
width = 745;
}
);
unicode = 062D;
},
{
glyphname = "hah-ar.001";
layers = (
{
anchors = (
{
name = bottom;
position = "{405, -135}";
},
{
name = top;
position = "{306, 506}";
}
);
layerId = "7C6EC3B8-53E3-46D5-865A-ED8DFE2E3A2E";
paths = (
{
closed = 1;
nodes = (
"202 -486 OFFCURVE",
"60 -389 OFFCURVE",
"60 -218 CURVE SMOOTH",
"60 -77 OFFCURVE",
"213 31 OFFCURVE",
"471 31 CURVE SMOOTH",
"532 31 OFFCURVE",
"596 28 OFFCURVE",
"644 21 CURVE",
"648 51 LINE",
"601 58 OFFCURVE",
"537 61 OFFCURVE",
"475 61 CURVE SMOOTH",
"195 61 OFFCURVE",
"30 -59 OFFCURVE",
"30 -219 CURVE SMOOTH",
"30 -409 OFFCURVE",
"183 -517 OFFCURVE",
"442 -510 CURVE",
"442 -480 LINE"
);
},
{
closed = 1;
nodes = (
"694 30 LINE",
"481 95 OFFCURVE",
"585 506 OFFCURVE",
"306 506 CURVE SMOOTH",
"163 506 OFFCURVE",
"57 326 OFFCURVE",
"39 300 CURVE",
"63 282 LINE",
"82 309 OFFCURVE",
"181 476 OFFCURVE",
"306 476 CURVE SMOOTH",
"541 476 OFFCURVE",
"449 55 OFFCURVE",
"694 0 CURVE"
);
}
);
width = 775;
},
{
anchors = (
{
name = _top;
position = "{379, -233}";
},
{
name = top;
position = "{208, 772}";
}
);
layerId = "EA99615A-DD74-4F65-B9DC-480CDB683AEE";
paths = (
{
closed = 1;
nodes = (
"171 388 OFFCURVE",
"267 464 OFFCURVE",
"324 464 CURVE SMOOTH",
"443 464 OFFCURVE",
"472 373 OFFCURVE",
"509 251 CURVE SMOOTH",
"540 150 OFFCURVE",
"579 26 OFFCURVE",
"699 -10 CURVE",
"725 76 LINE",
"566 125 OFFCURVE",
"645 554 OFFCURVE",
"324 554 CURVE SMOOTH",
"232 554 OFFCURVE",
"115 466 OFFCURVE",
"20 329 CURVE",
"94 277 LINE"
);
},
{
closed = 1;
nodes = (
"277 -487 OFFCURVE",
"133 -389 OFFCURVE",
"133 -235 CURVE SMOOTH",
"133 -96 OFFCURVE",
"290 0 OFFCURVE",
"533 0 CURVE SMOOTH",
"595 0 OFFCURVE",
"662 -4 OFFCURVE",
"699 -10 CURVE",
"713 80 LINE",
"670 86 OFFCURVE",
"599 90 OFFCURVE",
"533 90 CURVE SMOOTH",
"242 90 OFFCURVE",
"43 -39 OFFCURVE",
"43 -235 CURVE SMOOTH",
"43 -443 OFFCURVE",
"229 -579 OFFCURVE",
"501 -571 CURVE",
"499 -481 LINE"
);
}
);
width = 745;
},
{
anchors = (
{
name = bottom;
position = "{437, 0}";
},
{
name = top;
position = "{320, 525}";
}
);
layerId = "9AB624CD-9C19-4372-9845-4C197A276709";
paths = (
{
closed = 1;
nodes = (
"599 81 OFFCURVE",
"565 190 OFFCURVE",
"534 291 CURVE SMOOTH",
"497 413 OFFCURVE",
"461 525 OFFCURVE",
"320 525 CURVE SMOOTH",
"250 525 OFFCURVE",
"147 443 OFFCURVE",
"65 325 CURVE",
"115 291 LINE",
"183 390 OFFCURVE",
"274 465 OFFCURVE",
"320 465 CURVE SMOOTH",
"417 465 OFFCURVE",
"439 395 OFFCURVE",
"476 273 CURVE SMOOTH",
"507 172 OFFCURVE",
"551 33 OFFCURVE",
"686 -8 CURVE",
"704 50 LINE"
);
},
{
closed = 1;
nodes = (
"376 103 OFFCURVE",
"103 -8 OFFCURVE",
"103 -205 CURVE SMOOTH",
"103 -378 OFFCURVE",
"262 -507 OFFCURVE",
"500 -511 CURVE",
"498 -451 LINE",
"293 -447 OFFCURVE",
"163 -341 OFFCURVE",
"163 -205 CURVE SMOOTH",
"163 -52 OFFCURVE",
"407 37 OFFCURVE",
"694 -10 CURVE",
"704 50 LINE"
);
}
);
width = 745;
}
);
},
{
glyphname = "hah-ar.fina";
layers = (
{
anchors = (
{
name = "#entry";
position = "{775, 0}";
}
);
components = (
{
name = "hah-ar";
transform = "{1, 0, 0, 1, 0, 20}";
}
);
layerId = "7C6EC3B8-53E3-46D5-865A-ED8DFE2E3A2E";
paths = (
{
closed = 1;
nodes = (
"730 34 OFFCURVE",
"706 38 OFFCURVE",
"664 50 CURVE",
"664 20 LINE",
"708 10 OFFCURVE",
"736 5 OFFCURVE",
"775 0 CURVE",
"775 30 LINE"
);
}
);
width = 775;
},
{
anchors = (
{
name = "#entry";
position = "{965, 0}";
},
{
name = top;
position = "{441, -240}";
}
);
components = (
{
name = "hah-ar";
transform = "{1, 0, 0, 1, 0, 40}";
}
);
layerId = "EA99615A-DD74-4F65-B9DC-480CDB683AEE";
paths = (
{
closed = 1;
nodes = (
"860 89 OFFCURVE",
"830 92 OFFCURVE",
"725 116 CURVE",
"699 30 LINE",
"786 10 OFFCURVE",
"849 0 OFFCURVE",
"965 0 CURVE",
"965 90 LINE"
);
}
);
width = 965;
},
{
anchors = (
{
name = "#entry";
position = "{908, 0}";
},
{
name = top;
position = "{461, -208}";
}
);
components = (
{
alignment = -1;
name = "hah-ar";
transform = "{1, 0, 0, 1, 10, 30}";
}
);
layerId = "9AB624CD-9C19-4372-9845-4C197A276709";
paths = (
{
closed = 1;
nodes = (
"862 60 OFFCURVE",
"783 71 OFFCURVE",
"711 88 CURVE",
"697 30 LINE",
"778 12 OFFCURVE",
"862 0 OFFCURVE",
"908 0 CURVE",
"908 60 LINE"
);
}
);
width = 908;
}
);
unicode = FEA2;
},
{
glyphname = "hah-ar.medi";
layers = (
{
components = (
{
name = "hah-ar.init";
}
);
layerId = "7C6EC3B8-53E3-46D5-865A-ED8DFE2E3A2E";
paths = (
{
closed = 1;
nodes = (
"820 21 LINE",
"885 0 OFFCURVE",
"919 -2 OFFCURVE",
"967 0 CURVE",
"967 30 LINE",
"923 28 OFFCURVE",
"893 30 OFFCURVE",
"831 49 CURVE"
);
}
);
width = 967;
},
{
anchors = (
{
name = "#entry";
position = "{1086, 0}";
},
{
name = "#exit";
position = "{0, 0}";
}
);
components = (
{
name = "hah-ar.init";
}
);
layerId = "EA99615A-DD74-4F65-B9DC-480CDB683AEE";
paths = (
{
closed = 1;
nodes = (
"1002 92 OFFCURVE",
"900 112 OFFCURVE",
"840 136 CURVE",
"808 52 LINE",
"878 24 OFFCURVE",
"991 2 OFFCURVE",
"1086 0 CURVE",
"1086 90 LINE"
);
}
);
width = 1086;
},
{
anchors = (
{
name = "#entry";
position = "{1199, 0}";
},
{
name = "#exit";
position = "{0, 0}";
},
{
name = bottom;
position = "{440, 0}";
},
{
name = top;
position = "{393, 594}";
}
);
components = (
{
name = "hah-ar.init";
}
);
layerId = "9AB624CD-9C19-4372-9845-4C197A276709";
paths = (
{
closed = 1;
nodes = (
"1110 60 OFFCURVE",
"1000 106 OFFCURVE",
"931 135 CURVE",
"909 79 LINE",
"984 48 OFFCURVE",
"1104 0 OFFCURVE",
"1199 0 CURVE",
"1199 60 LINE"
);
}
);
width = 1199;
}
);
unicode = FEA4;
},
{
glyphname = "hah-ar.init";
layers = (
{
anchors = (
{
name = "#exit";
position = "{0, 0}";
},
{
name = bottom;
position = "{285, 0}";
},
{
name = top;
position = "{250, 503}";
}
);
layerId = "7C6EC3B8-53E3-46D5-865A-ED8DFE2E3A2E";
paths = (
{
closed = 1;
nodes = (
"659 115 OFFCURVE",
"602 241 OFFCURVE",
"536 343 CURVE SMOOTH",
"467 449 OFFCURVE",
"395 503 OFFCURVE",
"320 503 CURVE SMOOTH",
"177 503 OFFCURVE",
"71 323 OFFCURVE",
"53 297 CURVE",
"77 279 LINE",
"96 306 OFFCURVE",
"195 473 OFFCURVE",
"320 473 CURVE SMOOTH",
"384 473 OFFCURVE",
"447 425 OFFCURVE",
"511 327 CURVE SMOOTH",
"576 227 OFFCURVE",
"636 92 OFFCURVE",
"820 21 CURVE",
"831 49 LINE"
);
},
{
closed = 1;
nodes = (
"216 2 OFFCURVE",
"391 -28 OFFCURVE",
"631 105 CURVE SMOOTH",
"643 112 OFFCURVE",
"652 115 OFFCURVE",
"663 120 CURVE",
"651 148 LINE",
"640 143 OFFCURVE",
"629 138 OFFCURVE",
"617 131 CURVE SMOOTH",
"383 2 OFFCURVE",
"216 32 OFFCURVE",
"0 30 CURVE",
"0 0 LINE"
);
}
);
width = 871;
},
{
anchors = (
{
name = "#exit";
position = "{0, 0}";
},
{
name = bottom;
position = "{324, -97}";
},
{
name = top;
position = "{136, 835}";
}
);
layerId = "EA99615A-DD74-4F65-B9DC-480CDB683AEE";
paths = (
{
closed = 1;
nodes = (
"102 344 OFFCURVE",
"196 503 OFFCURVE",
"313 503 CURVE SMOOTH",
"371 503 OFFCURVE",
"430 458 OFFCURVE",
"491 364 CURVE SMOOTH",
"556 264 OFFCURVE",
"619 125 OFFCURVE",
"808 52 CURVE",
"840 136 LINE",
"685 195 OFFCURVE",
"635 308 OFFCURVE",
"567 412 CURVE SMOOTH",
"489 532 OFFCURVE",
"404 593 OFFCURVE",
"313 593 CURVE SMOOTH",
"144 593 OFFCURVE",
"26 392 OFFCURVE",
"9 368 CURVE",
"83 316 LINE"
);
},
{
closed = 1;
nodes = (
"642 205 OFFCURVE",
"639 204 OFFCURVE",
"636 202 CURVE",
"629 199 OFFCURVE",
"619 195 OFFCURVE",
"609 189 CURVE SMOOTH",
"424 78 OFFCURVE",
"277 89 OFFCURVE",
"105 89 CURVE SMOOTH",
"71 89 OFFCURVE",
"36 90 OFFCURVE",
"0 90 CURVE",
"0 0 LINE",
"212 2 OFFCURVE",
"399 -30 OFFCURVE",
"653 111 CURVE SMOOTH",
"662 116 OFFCURVE",
"675 123 OFFCURVE",
"682 126 CURVE",
"644 206 LINE"
);
}
);
width = 880;
},
{
anchors = (
{
name = "#exit";
position = "{0, 0}";
},
{
name = bottom;
position = "{405, -6}";
},
{
name = top;
position = "{393, 594}";
}
);
layerId = "9AB624CD-9C19-4372-9845-4C197A276709";
paths = (
{
closed = 1;
nodes = (
"131 347 OFFCURVE",
"241 534 OFFCURVE",
"393 534 CURVE SMOOTH",
"473 534 OFFCURVE",
"548 480 OFFCURVE",
"622 367 CURVE SMOOTH",
"689 265 OFFCURVE",
"743 142 OFFCURVE",
"909 79 CURVE",
"931 135 LINE",
"787 190 OFFCURVE",
"741 293 OFFCURVE",
"672 399 CURVE SMOOTH",
"588 528 OFFCURVE",
"495 594 OFFCURVE",
"393 594 CURVE SMOOTH",
"207 594 OFFCURVE",
"81 379 OFFCURVE",
"65 356 CURVE",
"113 322 LINE"
);
},
{
closed = 1;
nodes = (
"793 181 OFFCURVE",
"782 175 OFFCURVE",
"768 167 CURVE SMOOTH",
"564 51 OFFCURVE",
"406 54 OFFCURVE",
"104 59 CURVE SMOOTH",
"70 60 OFFCURVE",
"35 60 OFFCURVE",
"0 60 CURVE",
"0 0 LINE",
"35 0 OFFCURVE",
"69 0 OFFCURVE",
"103 -1 CURVE SMOOTH",
"405 -6 OFFCURVE",
"577 -5 OFFCURVE",
"798 115 CURVE SMOOTH",
"809 121 OFFCURVE",
"819 126 OFFCURVE",
"824 128 CURVE",
"800 184 LINE"
);
}
);
width = 961;
}
);
unicode = FEA3;
},
{
glyphname = "dal-ar";
layers = (
{
anchors = (
{
name = bottom;
position = "{261, 0}";
},
{
name = top;
position = "{70, 388}";
}
);
layerId = "7C6EC3B8-53E3-46D5-865A-ED8DFE2E3A2E";
paths = (
{
closed = 1;
nodes = (
"351 415 OFFCURVE",
"485 272 OFFCURVE",
"485 178 CURVE SMOOTH",
"485 30 OFFCURVE",
"344 30 OFFCURVE",
"40 30 CURVE",
"40 0 LINE",
"344 0 OFFCURVE",
"515 0 OFFCURVE",
"515 178 CURVE SMOOTH",
"515 288 OFFCURVE",
"374 438 OFFCURVE",
"140 567 CURVE",
"130 539 LINE"
);
}
);
width = 555;
},
{
anchors = (
{
name = top;
position = "{127, 785}";
}
);
layerId = "EA99615A-DD74-4F65-B9DC-480CDB683AEE";
paths = (
{
closed = 1;
nodes = (
"341 505 OFFCURVE",
"509 402 OFFCURVE",
"509 247 CURVE SMOOTH",
"509 71 OFFCURVE",
"224 95 OFFCURVE",
"40 95 CURVE",
"40 5 LINE",
"220 5 OFFCURVE",
"599 -27 OFFCURVE",
"599 247 CURVE SMOOTH",
"599 458 OFFCURVE",
"391 595 OFFCURVE",
"80 595 CURVE",
"80 505 LINE"
);
}
);
width = 639;
},
{
anchors = (
{
name = bottom;
position = "{259, 0}";
},
{
name = top;
position = "{60, 500}";
}
);
layerId = "9AB624CD-9C19-4372-9845-4C197A276709";
paths = (
{
closed = 1;
nodes = (
"364 0 OFFCURVE",
"535 0 OFFCURVE",
"535 178 CURVE SMOOTH",
"535 289 OFFCURVE",
"389 439 OFFCURVE",
"165 565 CURVE",
"135 513 LINE",
"337 399 OFFCURVE",
"475 262 OFFCURVE",
"475 178 CURVE SMOOTH",
"475 60 OFFCURVE",
"364 60 OFFCURVE",
"60 60 CURVE",
"60 0 LINE"
);
}
);
width = 595;
}
);
unicode = 062F;
},
{
glyphname = "dal-ar.001";
layers = (
{
anchors = (
{
name = bottom;
position = "{286, 0}";
},
{
name = top;
position = "{34, 500}";
}
);
layerId = "7C6EC3B8-53E3-46D5-865A-ED8DFE2E3A2E";
paths = (
{
closed = 1;
nodes = (
"222 0 OFFCURVE",
"554 -28 OFFCURVE",
"554 197 CURVE SMOOTH",
"554 311 OFFCURVE",
"461 500 OFFCURVE",
"80 500 CURVE",
"80 470 LINE",
"352 470 OFFCURVE",
"524 365 OFFCURVE",
"524 197 CURVE SMOOTH",
"524 4 OFFCURVE",
"224 30 OFFCURVE",
"40 30 CURVE",
"40 0 LINE"
);
}
);
width = 594;
},
{
anchors = (
{
name = top;
position = "{127, 785}";
}
);
layerId = "EA99615A-DD74-4F65-B9DC-480CDB683AEE";
paths = (
{
closed = 1;
nodes = (
"341 505 OFFCURVE",
"509 402 OFFCURVE",
"509 247 CURVE SMOOTH",
"509 71 OFFCURVE",
"224 95 OFFCURVE",
"40 95 CURVE",
"40 5 LINE",
"220 5 OFFCURVE",
"599 -27 OFFCURVE",
"599 247 CURVE SMOOTH",
"599 458 OFFCURVE",
"391 595 OFFCURVE",
"80 595 CURVE",
"80 505 LINE"
);
}
);
width = 639;
},
{
anchors = (
{
name = top;
position = "{54, 663}";
}
);
layerId = "9AB624CD-9C19-4372-9845-4C197A276709";
paths = (
{
closed = 1;
nodes = (
"303 2 OFFCURVE",
"619 -27 OFFCURVE",
"619 182 CURVE SMOOTH",
"619 357 OFFCURVE",
"436 500 OFFCURVE",
"160 500 CURVE",
"160 440 LINE",
"403 440 OFFCURVE",
"559 319 OFFCURVE",
"559 182 CURVE SMOOTH",
"559 39 OFFCURVE",
"305 62 OFFCURVE",
"120 60 CURVE",
"120 0 LINE"
);
}
);
width = 649;
}
);
},
{
glyphname = "dal-ar.fina";
layers = (
{
anchors = (
{
name = "#entry";
position = "{770, 0}";
},
{
name = "#exit";
position = "{60, 0}";
},
{
name = bottom;
position = "{349, 0}";
},
{
name = top;
position = "{69, 411}";
}
);
guideLines = (
{
position = "{479, 237}";
}
);
layerId = "7C6EC3B8-53E3-46D5-865A-ED8DFE2E3A2E";
paths = (
{
closed = 1;
nodes = (
"357 0 OFFCURVE",
"527 0 OFFCURVE",
"535 166 CURVE",
"545 147 OFFCURVE",
"557 129 OFFCURVE",
"568 110 CURVE SMOOTH",
"621 21 OFFCURVE",
"662 0 OFFCURVE",
"770 0 CURVE",
"770 30 LINE",
"671 30 OFFCURVE",
"642 46 OFFCURVE",
"594 126 CURVE SMOOTH",
"542 212 OFFCURVE",
"493 309 OFFCURVE",
"441 360 CURVE SMOOTH",
"376 429 OFFCURVE",
"280 501 OFFCURVE",
"160 567 CURVE",
"150 539 LINE",
"371 415 OFFCURVE",
"505 272 OFFCURVE",
"505 178 CURVE SMOOTH",
"505 30 OFFCURVE",
"364 30 OFFCURVE",
"60 30 CURVE",
"60 0 LINE"
);
}
);
width = 770;
},
{
anchors = (
{
name = "#entry";
position = "{862, 0}";
},
{
name = top;
position = "{529, 836}";
}
);
layerId = "EA99615A-DD74-4F65-B9DC-480CDB683AEE";
paths = (
{
closed = 1;
nodes = (
"345 -5 OFFCURVE",
"513 25 OFFCURVE",
"590 112 CURVE",
"625 45 OFFCURVE",
"698 0 OFFCURVE",
"862 0 CURVE",
"862 90 LINE",
"683 90 OFFCURVE",
"652 135 OFFCURVE",
"644 285 CURVE SMOOTH",
"642 321 OFFCURVE",
"639 387 OFFCURVE",
"618 616 CURVE",
"529 604 LINE",
"551 366 OFFCURVE",
"554 300 OFFCURVE",
"554 282 CURVE SMOOTH",
"554 130 OFFCURVE",
"450 85 OFFCURVE",
"100 85 CURVE",
"100 -5 LINE"
);
}
);
width = 862;
},
{
anchors = (
{
name = "#entry";
position = "{800, 0}";
},
{
name = top;
position = "{28, 500}";
}
);
components = (
{
name = "dal-ar";
transform = "{1, 0, 0, 1, 3, 0}";
}
);
layerId = "9AB624CD-9C19-4372-9845-4C197A276709";
paths = (
{
closed = 1;
nodes = (
"477 191 LINE",
"502 87 OFFCURVE",
"571 -2 OFFCURVE",
"800 0 CURVE",
"800 60 LINE",
"605 62 OFFCURVE",
"554 124 OFFCURVE",
"533 214 CURVE"
);
}
);
width = 800;
}
);
unicode = FEAA;
},
{
glyphname = "dal-ar.fina.001";
layers = (
{
anchors = (
{
name = "#entry";
position = "{662, 0}";
},
{
name = top;
position = "{12, 500}";
}
);
components = (
{
name = "dal-ar";
}
);
layerId = "7C6EC3B8-53E3-46D5-865A-ED8DFE2E3A2E";
paths = (
{
closed = 1;
nodes = (
"516 200 LINE",
"518 74 OFFCURVE",
"575 0 OFFCURVE",
"662 0 CURVE",
"662 30 LINE",
"606 30 OFFCURVE",
"546 81 OFFCURVE",
"546 198 CURVE SMOOTH",
"546 198 OFFCURVE",
"546 206 OFFCURVE",
"545 211 CURVE"
);
}
);
width = 662;
},
{
anchors = (
{
name = "#entry";
position = "{814, 0}";
},
{
name = top;
position = "{87, 756}";
}
);
components = (
{
name = "dal-ar";
transform = "{1, 0, 0, 1, 0, -5}";
}
);
layerId = "EA99615A-DD74-4F65-B9DC-480CDB683AEE";
paths = (
{
closed = 1;
nodes = (
"520 127 OFFCURVE",
"539 0 OFFCURVE",
"814 0 CURVE",
"814 90 LINE",
"635 90 OFFCURVE",
"610 133 OFFCURVE",
"596 285 CURVE",
"508 267 LINE"
);
}
);
width = 814;
},
{
anchors = (
{
name = "#entry";
position = "{887, 0}";
},
{
name = top;
position = "{28, 677}";
}
);
components = (
{
name = "dal-ar";
transform = "{1, 0, 0, 1, 3, 0}";
}
);
layerId = "9AB624CD-9C19-4372-9845-4C197A276709";
paths = (
{
closed = 1;
nodes = (
"558 220 LINE",
"578 104 OFFCURVE",
"637 -2 OFFCURVE",
"887 0 CURVE",
"887 60 LINE",
"676 62 OFFCURVE",
"634 134 OFFCURVE",
"616 236 CURVE"
);
}
);
width = 887;
}
);
},
{
glyphname = "dal-ar.fina.002";
layers = (
{
anchors = (
{
name = "#entry";
position = "{643, 0}";
},
{
name = top;
position = "{19, 268}";
}
);
layerId = "7C6EC3B8-53E3-46D5-865A-ED8DFE2E3A2E";
paths = (
{
closed = 1;
nodes = (
"193 0 OFFCURVE",
"452 -20 OFFCURVE",
"531 108 CURVE",
"542 28 OFFCURVE",
"569 0 OFFCURVE",
"643 0 CURVE",
"643 30 LINE",
"560 30 OFFCURVE",
"554 82 OFFCURVE",
"554 197 CURVE SMOOTH",
"554 311 OFFCURVE",
"461 500 OFFCURVE",
"80 500 CURVE",
"80 470 LINE",
"352 470 OFFCURVE",
"524 365 OFFCURVE",
"524 197 CURVE SMOOTH",
"524 4 OFFCURVE",
"224 30 OFFCURVE",
"40 30 CURVE",
"40 0 LINE"
);
}
);
width = 643;
},
{
anchors = (
{
name = "#entry";
position = "{862, 0}";
},
{
name = top;
position = "{529, 836}";
}
);
layerId = "EA99615A-DD74-4F65-B9DC-480CDB683AEE";
paths = (
{
closed = 1;
nodes = (
"345 -5 OFFCURVE",
"513 25 OFFCURVE",
"590 112 CURVE",
"625 45 OFFCURVE",
"698 0 OFFCURVE",
"862 0 CURVE",
"862 90 LINE",
"683 90 OFFCURVE",
"652 135 OFFCURVE",
"644 285 CURVE SMOOTH",
"642 321 OFFCURVE",
"639 387 OFFCURVE",
"618 616 CURVE",
"529 604 LINE",
"551 366 OFFCURVE",
"554 300 OFFCURVE",
"554 282 CURVE SMOOTH",
"554 130 OFFCURVE",
"450 85 OFFCURVE",
"100 85 CURVE",
"100 -5 LINE"
);
}
);
width = 862;
},
{
anchors = (
{
name = "#entry";
position = "{887, 0}";
},
{
name = top;
position = "{28, 677}";
}
);
components = (
{
name = "dal-ar";
transform = "{1, 0, 0, 1, 3, 0}";
}
);
layerId = "9AB624CD-9C19-4372-9845-4C197A276709";
paths = (
{
closed = 1;
nodes = (
"558 220 LINE",
"578 104 OFFCURVE",
"637 -2 OFFCURVE",
"887 0 CURVE",
"887 60 LINE",
"676 62 OFFCURVE",
"634 134 OFFCURVE",
"616 236 CURVE"
);
}
);
width = 887;
}
);
},
{
glyphname = "dal-ar.fina.003";
layers = (
{
anchors = (
{
name = "#entry";
position = "{704, 0}";
},
{
name = "#exit";
position = "{40, 0}";
},
{
name = bottom;
position = "{329, 0}";
},
{
name = top;
position = "{49, 289}";
}
);
guideLines = (
{
position = "{459, 237}";
}
);
layerId = "7C6EC3B8-53E3-46D5-865A-ED8DFE2E3A2E";
paths = (
{
closed = 1;
nodes = (
"344 0 OFFCURVE",
"485 0 OFFCURVE",
"485 148 CURVE SMOOTH",
"485 255 OFFCURVE",
"322 436 OFFCURVE",
"135 512 CURVE",
"125 484 LINE",
"298 412 OFFCURVE",
"455 240 OFFCURVE",
"455 148 CURVE SMOOTH",
"455 30 OFFCURVE",
"344 30 OFFCURVE",
"40 30 CURVE",
"40 0 LINE"
);
},
{
closed = 1;
nodes = (
"447 186 OFFCURVE",
"467 153 OFFCURVE",
"489 117 CURVE SMOOTH",
"547 23 OFFCURVE",
"593 0 OFFCURVE",
"704 0 CURVE",
"704 30 LINE",
"603 30 OFFCURVE",
"567 47 OFFCURVE",
"515 133 CURVE SMOOTH",
"493 169 OFFCURVE",
"473 202 OFFCURVE",
"461 231 CURVE",
"436 216 LINE"
);
}
);
width = 704;
},
{
anchors = (
{
name = "#entry";
position = "{862, 0}";
},
{
name = top;
position = "{529, 836}";
}
);
layerId = "EA99615A-DD74-4F65-B9DC-480CDB683AEE";
paths = (
{
closed = 1;
nodes = (
"345 -5 OFFCURVE",
"513 25 OFFCURVE",
"590 112 CURVE",
"625 45 OFFCURVE",
"698 0 OFFCURVE",
"862 0 CURVE",
"862 90 LINE",
"683 90 OFFCURVE",
"652 135 OFFCURVE",
"644 285 CURVE SMOOTH",
"642 321 OFFCURVE",
"639 387 OFFCURVE",
"618 616 CURVE",
"529 604 LINE",
"551 366 OFFCURVE",
"554 300 OFFCURVE",
"554 282 CURVE SMOOTH",
"554 130 OFFCURVE",
"450 85 OFFCURVE",
"100 85 CURVE",
"100 -5 LINE"
);
}
);
width = 862;
},
{
anchors = (
{
name = "#entry";
position = "{887, 0}";
},
{
name = top;
position = "{28, 677}";
}
);
components = (
{
name = "dal-ar";
transform = "{1, 0, 0, 1, 3, 0}";
}
);
layerId = "9AB624CD-9C19-4372-9845-4C197A276709";
paths = (
{
closed = 1;
nodes = (
"558 220 LINE",
"578 104 OFFCURVE",
"637 -2 OFFCURVE",
"887 0 CURVE",
"887 60 LINE",
"676 62 OFFCURVE",
"634 134 OFFCURVE",
"616 236 CURVE"
);
}
);
width = 887;
}
);
},
{
glyphname = "reh-ar";
layers = (
{
anchors = (
{
name = "#entry";
position = "{218, 0}";
},
{
name = bottom;
position = "{135, -122}";
},
{
name = top;
position = "{187, 499}";
}
);
layerId = "7C6EC3B8-53E3-46D5-865A-ED8DFE2E3A2E";
paths = (
{
closed = 1;
nodes = (
"188 203 OFFCURVE",
"261 -324 OFFCURVE",
"-10 -504 CURVE",
"6 -529 LINE",
"294 -337 OFFCURVE",
"218 206 OFFCURVE",
"199 500 CURVE",
"169 498 LINE"
);
}
);
width = 273;
},
{
anchors = (
{
name = "#entry";
position = "{348, 0}";
},
{
name = top;
position = "{280, 778}";
}
);
layerId = "EA99615A-DD74-4F65-B9DC-480CDB683AEE";
paths = (
{
closed = 1;
nodes = (
"291 149 OFFCURVE",
"313 -258 OFFCURVE",
"-40 -509 CURVE",
"12 -583 LINE",
"405 -302 OFFCURVE",
"381 155 OFFCURVE",
"343 589 CURVE",
"253 581 LINE"
);
}
);
width = 403;
},
{
anchors = (
{
name = "#entry";
position = "{287, 0}";
},
{
name = bottom;
position = "{169, -455}";
},
{
name = top;
position = "{250, 500}";
}
);
layerId = "9AB624CD-9C19-4372-9845-4C197A276709";
paths = (
{
closed = 1;
nodes = (
"341 -243 OFFCURVE",
"318 70 OFFCURVE",
"280 503 CURVE",
"220 497 LINE",
"258 66 OFFCURVE",
"279 -213 OFFCURVE",
"-60 -455 CURVE",
"-26 -503 LINE"
);
}
);
width = 330;
}
);
unicode = 0631;
},
{
glyphname = "reh-ar.001";
layers = (
{
anchors = (
{
name = "#entry";
position = "{231, 0}";
},
{
name = top;
position = "{257, 500}";
}
);
layerId = "7C6EC3B8-53E3-46D5-865A-ED8DFE2E3A2E";
paths = (
{
closed = 1;
nodes = (
"333 -246 OFFCURVE",
"261 187 OFFCURVE",
"264 483 CURVE",
"235 483 LINE",
"231 184 OFFCURVE",
"299 -228 OFFCURVE",
"-190 -464 CURVE",
"-177 -491 LINE"
);
}
);
width = 286;
},
{
anchors = (
{
name = "#entry";
position = "{348, 0}";
},
{
name = top;
position = "{280, 778}";
}
);
layerId = "EA99615A-DD74-4F65-B9DC-480CDB683AEE";
paths = (
{
closed = 1;
nodes = (
"291 149 OFFCURVE",
"313 -258 OFFCURVE",
"-40 -509 CURVE",
"12 -583 LINE",
"405 -302 OFFCURVE",
"381 155 OFFCURVE",
"343 589 CURVE",
"253 581 LINE"
);
}
);
width = 403;
},
{
anchors = (
{
name = "#entry";
position = "{287, 0}";
},
{
name = top;
position = "{236, 712}";
}
);
layerId = "9AB624CD-9C19-4372-9845-4C197A276709";
paths = (
{
closed = 1;
nodes = (
"341 -243 OFFCURVE",
"318 70 OFFCURVE",
"280 503 CURVE",
"220 497 LINE",
"258 66 OFFCURVE",
"279 -213 OFFCURVE",
"-60 -455 CURVE",
"-26 -503 LINE"
);
}
);
width = 330;
}
);
},
{
glyphname = "seen-ar";
layers = (
{
anchors = (
{
name = "#entry";
position = "{1365, 0}";
},
{
name = bottom;
position = "{936, -103}";
},
{
name = top;
position = "{964, 532}";
}
);
layerId = "7C6EC3B8-53E3-46D5-865A-ED8DFE2E3A2E";
paths = (
{
closed = 1;
nodes = (
"1115 42 OFFCURVE",
"1220 -34 OFFCURVE",
"1294 -34 CURVE SMOOTH",
"1369 -34 OFFCURVE",
"1409 42 OFFCURVE",
"1409 178 CURVE SMOOTH",
"1409 318 OFFCURVE",
"1365 495 OFFCURVE",
"1354 545 CURVE",
"1325 539 LINE",
"1336 488 OFFCURVE",
"1379 315 OFFCURVE",
"1379 178 CURVE SMOOTH",
"1379 59 OFFCURVE",
"1348 -4 OFFCURVE",
"1294 -4 CURVE SMOOTH",
"1231 -4 OFFCURVE",
"1134 68 OFFCURVE",
"1062 169 CURVE",
"1038 151 LINE"
);
},
{
closed = 1;
nodes = (
"809 9 OFFCURVE",
"850 0 OFFCURVE",
"891 -1 CURVE SMOOTH",
"1004 -4 OFFCURVE",
"1065 57 OFFCURVE",
"1065 173 CURVE SMOOTH",
"1065 302 OFFCURVE",
"990 467 OFFCURVE",
"964 532 CURVE",
"936 521 LINE",
"963 455 OFFCURVE",
"1035 295 OFFCURVE",
"1035 173 CURVE SMOOTH",
"1035 74 OFFCURVE",
"988 27 OFFCURVE",
"891 29 CURVE SMOOTH",
"854 30 OFFCURVE",
"816 38 OFFCURVE",
"798 43 CURVE",
"789 14 LINE"
);
},
{
closed = 1;
nodes = (
"35 27 OFFCURVE",
"30 -16 OFFCURVE",
"30 -60 CURVE SMOOTH",
"30 -712 OFFCURVE",
"832 -775 OFFCURVE",
"832 -158 CURVE SMOOTH",
"833 77 OFFCURVE",
"689 327 OFFCURVE",
"622 442 CURVE SMOOTH",
"606 470 OFFCURVE",
"595 489 OFFCURVE",
"592 498 CURVE",
"564 488 LINE",
"585 433 OFFCURVE",
"803 124 OFFCURVE",
"802 -158 CURVE SMOOTH",
"802 -734 OFFCURVE",
"60 -674 OFFCURVE",
"60 -60 CURVE SMOOTH",
"60 -18 OFFCURVE",
"65 21 OFFCURVE",
"76 59 CURVE",
"47 67 LINE"
);
}
);
width = 1419;
},
{
anchors = (
{
name = "#entry";
position = "{1333, 0}";
},
{
name = top;
position = "{1100, 740}";
}
);
layerId = "EA99615A-DD74-4F65-B9DC-480CDB683AEE";
paths = (
{
closed = 1;
nodes = (
"-167 -173 OFFCURVE",
"-112 -575 OFFCURVE",
"236 -594 CURVE SMOOTH",
"314 -598 OFFCURVE",
"372 -598 OFFCURVE",
"424 -594 CURVE SMOOTH",
"673 -574 OFFCURVE",
"803 -403 OFFCURVE",
"803 -101 CURVE SMOOTH",
"803 -48 OFFCURVE",
"802 3 OFFCURVE",
"801 51 CURVE",
"834 14 OFFCURVE",
"876 -10 OFFCURVE",
"931 -10 CURVE SMOOTH",
"1031 -10 OFFCURVE",
"1086 42 OFFCURVE",
"1116 121 CURVE",
"1151 47 OFFCURVE",
"1206 -8 OFFCURVE",
"1292 -8 CURVE SMOOTH",
"1518 -8 OFFCURVE",
"1516 257 OFFCURVE",
"1484 511 CURVE",
"1394 503 LINE",
"1431 188 OFFCURVE",
"1403 82 OFFCURVE",
"1292 82 CURVE SMOOTH",
"1141 82 OFFCURVE",
"1145 428 OFFCURVE",
"1135 502 CURVE",
"1045 493 LINE",
"1072 193 OFFCURVE",
"1044 86 OFFCURVE",
"931 86 CURVE SMOOTH",
"838 86 OFFCURVE",
"801 204 OFFCURVE",
"784 316 CURVE SMOOTH",
"775 378 OFFCURVE",
"770 440 OFFCURVE",
"765 502 CURVE",
"675 488 LINE",
"695 327 OFFCURVE",
"713 116 OFFCURVE",
"713 -99 CURVE SMOOTH",
"713 -374 OFFCURVE",
"592 -487 OFFCURVE",
"416 -503 CURVE SMOOTH",
"371 -507 OFFCURVE",
"317 -507 OFFCURVE",
"236 -503 CURVE SMOOTH",
"-47 -488 OFFCURVE",
"-75 -113 OFFCURVE",
"-74 78 CURVE",
"-164 79 LINE"
);
}
);
width = 1539;
},
{
anchors = (
{
name = "#entry";
position = "{1491, 3}";
},
{
name = bottom;
position = "{1171, -109}";
},
{
name = top;
position = "{1062, 543}";
}
);
layerId = "9AB624CD-9C19-4372-9845-4C197A276709";
paths = (
{
closed = 1;
nodes = (
"1426 488 OFFCURVE",
"1469 314 OFFCURVE",
"1469 178 CURVE SMOOTH",
"1469 57 OFFCURVE",
"1438 -4 OFFCURVE",
"1384 -4 CURVE SMOOTH",
"1321 -4 OFFCURVE",
"1224 67 OFFCURVE",
"1153 168 CURVE",
"1103 134 LINE",
"1186 16 OFFCURVE",
"1300 -64 OFFCURVE",
"1384 -64 CURVE SMOOTH",
"1478 -64 OFFCURVE",
"1529 24 OFFCURVE",
"1529 178 CURVE SMOOTH",
"1529 322 OFFCURVE",
"1484 502 OFFCURVE",
"1473 551 CURVE",
"1415 539 LINE"
);
},
{
closed = 1;
nodes = (
"1032 455 OFFCURVE",
"1105 296 OFFCURVE",
"1105 173 CURVE SMOOTH",
"1105 74 OFFCURVE",
"1058 26 OFFCURVE",
"962 29 CURVE SMOOTH",
"934 30 OFFCURVE",
"900 35 OFFCURVE",
"866 43 CURVE",
"852 -15 LINE",
"872 -20 OFFCURVE",
"916 -30 OFFCURVE",
"960 -31 CURVE SMOOTH",
"1090 -34 OFFCURVE",
"1165 40 OFFCURVE",
"1165 173 CURVE SMOOTH",
"1165 308 OFFCURVE",
"1088 479 OFFCURVE",
"1062 543 CURVE",
"1006 521 LINE"
);
},
{
closed = 1;
nodes = (
"627 479 OFFCURVE",
"632 468 OFFCURVE",
"656 427 CURVE SMOOTH",
"723 312 OFFCURVE",
"863 69 OFFCURVE",
"862 -158 CURVE SMOOTH",
"859 -734 OFFCURVE",
"120 -674 OFFCURVE",
"120 -60 CURVE",
"60 -60 LINE",
"60 -750 OFFCURVE",
"922 -817 OFFCURVE",
"922 -158 CURVE SMOOTH",
"922 85 OFFCURVE",
"775 342 OFFCURVE",
"708 457 CURVE SMOOTH",
"686 495 OFFCURVE",
"682 503 OFFCURVE",
"680 507 CURVE",
"624 489 LINE"
);
}
);
width = 1589;
}
);
unicode = 0633;
},
{
glyphname = "seen-ar.001";
layers = (
{
anchors = (
{
name = "#entry";
position = "{1355, 0}";
},
{
name = top;
position = "{954, 532}";
}
);
background = {
paths = (
{
closed = 0;
nodes = (
"1333 542 LINE",
"1344 491 OFFCURVE",
"1388 316 OFFCURVE",
"1388 178 CURVE SMOOTH",
"1388 76 OFFCURVE",
"1364 -19 OFFCURVE",
"1287 -19 CURVE SMOOTH",
"1238 -19 OFFCURVE",
"1136 27 OFFCURVE",
"1042 160 CURVE"
);
},
{
closed = 0;
nodes = (
"941 517 LINE",
"968 451 OFFCURVE",
"1042 286 OFFCURVE",
"1042 160 CURVE SMOOTH",
"1042 70 OFFCURVE",
"1004 -4 OFFCURVE",
"882 -1 CURVE SMOOTH",
"843 0 OFFCURVE",
"803 11 OFFCURVE",
"784 19 CURVE"
);
},
{
closed = 0;
nodes = (
"567 498 LINE",
"587 441 OFFCURVE",
"808 129 OFFCURVE",
"808 -158 CURVE SMOOTH",
"808 -755 OFFCURVE",
"31 -693 OFFCURVE",
"31 -60 CURVE SMOOTH",
"31 -19 OFFCURVE",
"36 22 OFFCURVE",
"48 63 CURVE SMOOTH"
);
}
);
};
layerId = "7C6EC3B8-53E3-46D5-865A-ED8DFE2E3A2E";
paths = (
{
closed = 1;
nodes = (
"1105 42 OFFCURVE",
"1210 -34 OFFCURVE",
"1284 -34 CURVE SMOOTH",
"1359 -34 OFFCURVE",
"1399 42 OFFCURVE",
"1399 178 CURVE SMOOTH",
"1399 318 OFFCURVE",
"1355 495 OFFCURVE",
"1344 545 CURVE",
"1315 539 LINE",
"1326 488 OFFCURVE",
"1369 315 OFFCURVE",
"1369 178 CURVE SMOOTH",
"1369 59 OFFCURVE",
"1338 -4 OFFCURVE",
"1284 -4 CURVE SMOOTH",
"1221 -4 OFFCURVE",
"1124 68 OFFCURVE",
"1052 169 CURVE",
"1028 151 LINE"
);
},
{
closed = 1;
nodes = (
"799 9 OFFCURVE",
"840 0 OFFCURVE",
"881 -1 CURVE SMOOTH",
"994 -4 OFFCURVE",
"1055 57 OFFCURVE",
"1055 173 CURVE SMOOTH",
"1055 302 OFFCURVE",
"980 467 OFFCURVE",
"954 532 CURVE",
"926 521 LINE",
"953 455 OFFCURVE",
"1025 295 OFFCURVE",
"1025 173 CURVE SMOOTH",
"1025 74 OFFCURVE",
"978 27 OFFCURVE",
"881 29 CURVE SMOOTH",
"844 30 OFFCURVE",
"806 38 OFFCURVE",
"788 43 CURVE",
"779 14 LINE"
);
},
{
closed = 1;
nodes = (
"25 27 OFFCURVE",
"20 -16 OFFCURVE",
"20 -60 CURVE SMOOTH",
"20 -712 OFFCURVE",
"822 -775 OFFCURVE",
"822 -158 CURVE SMOOTH",
"823 77 OFFCURVE",
"679 327 OFFCURVE",
"612 442 CURVE SMOOTH",
"596 470 OFFCURVE",
"585 489 OFFCURVE",
"582 498 CURVE",
"554 488 LINE",
"575 433 OFFCURVE",
"793 124 OFFCURVE",
"792 -158 CURVE SMOOTH",
"792 -734 OFFCURVE",
"50 -674 OFFCURVE",
"50 -60 CURVE SMOOTH",
"50 -18 OFFCURVE",
"55 21 OFFCURVE",
"66 59 CURVE",
"37 67 LINE"
);
}
);
width = 1409;
},
{
anchors = (
{
name = "#entry";
position = "{1473, 3}";
},
{
name = top;
position = "{835, 700}";
}
);
layerId = "EA99615A-DD74-4F65-B9DC-480CDB683AEE";
paths = (
{
closed = 1;
nodes = (
"-42 -213 OFFCURVE",
"113 -515 OFFCURVE",
"458 -515 CURVE SMOOTH",
"703 -515 OFFCURVE",
"801 -397 OFFCURVE",
"801 -101 CURVE SMOOTH",
"801 135 OFFCURVE",
"732 318 OFFCURVE",
"561 538 CURVE",
"490 482 LINE",
"648 282 OFFCURVE",
"711 116 OFFCURVE",
"711 -99 CURVE SMOOTH",
"711 -333 OFFCURVE",
"637 -426 OFFCURVE",
"452 -426 CURVE SMOOTH",
"183 -426 OFFCURVE",
"65 -173 OFFCURVE",
"143 95 CURVE",
"57 120 LINE"
);
},
{
closed = 1;
nodes = (
"942 462 OFFCURVE",
"1012 316 OFFCURVE",
"1012 202 CURVE SMOOTH",
"1012 108 OFFCURVE",
"963 59 OFFCURVE",
"866 59 CURVE SMOOTH",
"811 59 OFFCURVE",
"780 62 OFFCURVE",
"772 67 CURVE",
"727 -10 LINE",
"754 -27 OFFCURVE",
"802 -31 OFFCURVE",
"865 -31 CURVE SMOOTH",
"1012 -31 OFFCURVE",
"1102 57 OFFCURVE",
"1102 202 CURVE SMOOTH",
"1102 336 OFFCURVE",
"1021 504 OFFCURVE",
"995 549 CURVE",
"917 504 LINE"
);
},
{
closed = 1;
nodes = (
"1370 482 OFFCURVE",
"1413 306 OFFCURVE",
"1413 168 CURVE SMOOTH",
"1413 37 OFFCURVE",
"1377 -29 OFFCURVE",
"1315 -29 CURVE SMOOTH",
"1249 -29 OFFCURVE",
"1149 44 OFFCURVE",
"1076 149 CURVE",
"1002 98 LINE",
"1093 -32 OFFCURVE",
"1217 -119 OFFCURVE",
"1315 -119 CURVE SMOOTH",
"1435 -119 OFFCURVE",
"1503 -12 OFFCURVE",
"1503 168 CURVE SMOOTH",
"1503 317 OFFCURVE",
"1458 502 OFFCURVE",
"1447 551 CURVE",
"1359 532 LINE"
);
},
{
closed = 1;
nodes = (
"2076 -269 OFFCURVE",
"2074 -4 OFFCURVE",
"2052 190 CURVE",
"1962 181 LINE",
"1972 153 OFFCURVE",
"1971 -267 OFFCURVE",
"2212 -267 CURVE SMOOTH",
"2438 -267 OFFCURVE",
"2438 -6 OFFCURVE",
"2416 258 CURVE",
"2326 249 LINE",
"2336 161 OFFCURVE",
"2332 -271 OFFCURVE",
"2573 -271 CURVE SMOOTH",
"2799 -271 OFFCURVE",
"2797 -6 OFFCURVE",
"2765 328 CURVE",
"2675 320 LINE",
"2712 -75 OFFCURVE",
"2684 -181 OFFCURVE",
"2573 -181 CURVE SMOOTH",
"2422 -181 OFFCURVE",
"2426 165 OFFCURVE",
"2416 259 CURVE",
"2326 250 LINE",
"2353 -71 OFFCURVE",
"2324 -177 OFFCURVE",
"2212 -177 CURVE SMOOTH",
"2061 -177 OFFCURVE",
"2062 97 OFFCURVE",
"2052 191 CURVE",
"1962 182 LINE",
"1989 -73 OFFCURVE",
"1961 -179 OFFCURVE",
"1740 -179 CURVE",
"1740 -269 LINE"
);
}
);
width = 1543;
},
{
anchors = (
{
name = "#entry";
position = "{1461, 3}";
},
{
name = top;
position = "{1032, 805}";
}
);
layerId = "9AB624CD-9C19-4372-9845-4C197A276709";
paths = (
{
closed = 1;
nodes = (
"1396 488 OFFCURVE",
"1439 314 OFFCURVE",
"1439 178 CURVE SMOOTH",
"1439 57 OFFCURVE",
"1408 -4 OFFCURVE",
"1354 -4 CURVE SMOOTH",
"1291 -4 OFFCURVE",
"1194 67 OFFCURVE",
"1123 168 CURVE",
"1073 134 LINE",
"1156 16 OFFCURVE",
"1270 -64 OFFCURVE",
"1354 -64 CURVE SMOOTH",
"1448 -64 OFFCURVE",
"1499 24 OFFCURVE",
"1499 178 CURVE SMOOTH",
"1499 322 OFFCURVE",
"1454 502 OFFCURVE",
"1443 551 CURVE",
"1385 539 LINE"
);
},
{
closed = 1;
nodes = (
"1002 455 OFFCURVE",
"1075 296 OFFCURVE",
"1075 173 CURVE SMOOTH",
"1075 74 OFFCURVE",
"1028 26 OFFCURVE",
"932 29 CURVE SMOOTH",
"904 30 OFFCURVE",
"870 35 OFFCURVE",
"836 43 CURVE",
"822 -15 LINE",
"842 -20 OFFCURVE",
"886 -30 OFFCURVE",
"930 -31 CURVE SMOOTH",
"1060 -34 OFFCURVE",
"1135 40 OFFCURVE",
"1135 173 CURVE SMOOTH",
"1135 308 OFFCURVE",
"1058 479 OFFCURVE",
"1032 543 CURVE",
"976 521 LINE"
);
},
{
closed = 1;
nodes = (
"597 479 OFFCURVE",
"602 468 OFFCURVE",
"626 427 CURVE SMOOTH",
"693 312 OFFCURVE",
"833 69 OFFCURVE",
"832 -158 CURVE SMOOTH",
"829 -734 OFFCURVE",
"90 -674 OFFCURVE",
"90 -60 CURVE",
"30 -60 LINE",
"30 -750 OFFCURVE",
"892 -817 OFFCURVE",
"892 -158 CURVE SMOOTH",
"892 85 OFFCURVE",
"745 342 OFFCURVE",
"678 457 CURVE SMOOTH",
"656 495 OFFCURVE",
"652 503 OFFCURVE",
"650 507 CURVE",
"594 489 LINE"
);
}
);
width = 1529;
}
);
},
{
glyphname = "seen-ar.fina";
layers = (
{
anchors = (
{
name = "#entry";
position = "{1529, 0}";
},
{
name = top;
position = "{954, 563}";
}
);
components = (
{
name = "seen-ar";
transform = "{1, 0, 0, 1, 0, 31}";
}
);
layerId = "7C6EC3B8-53E3-46D5-865A-ED8DFE2E3A2E";
paths = (
{
closed = 1;
nodes = (
"1444 30 OFFCURVE",
"1401 91 OFFCURVE",
"1399 215 CURVE",
"1369 215 LINE",
"1371 75 OFFCURVE",
"1427 0 OFFCURVE",
"1530 0 CURVE",
"1530 30 LINE"
);
}
);
width = 1530;
},
{
anchors = (
{
name = "#entry";
position = "{1716, 0}";
},
{
name = top;
position = "{1086, 778}";
}
);
components = (
{
name = "seen-ar";
transform = "{1, 0, 0, 1, -1, 6}";
}
);
layerId = "EA99615A-DD74-4F65-B9DC-480CDB683AEE";
paths = (
{
closed = 1;
nodes = (
"1407 128 OFFCURVE",
"1440 0 OFFCURVE",
"1716 0 CURVE",
"1716 90 LINE",
"1536 90 OFFCURVE",
"1497 134 OFFCURVE",
"1498 285 CURVE",
"1410 267 LINE"
);
}
);
width = 1716;
},
{
anchors = (
{
name = "#entry";
position = "{1803, 0}";
},
{
name = top;
position = "{1011, 857}";
}
);
components = (
{
alignment = -1;
name = "seen-ar";
transform = "{1, 0, 0, 1, 0, 37}";
}
);
layerId = "9AB624CD-9C19-4372-9845-4C197A276709";
paths = (
{
closed = 1;
nodes = (
"1551 42 OFFCURVE",
"1536 160 OFFCURVE",
"1524 300 CURVE",
"1465 294 LINE",
"1477 154 OFFCURVE",
"1499 -22 OFFCURVE",
"1803 0 CURVE",
"1803 60 LINE"
);
}
);
width = 1803;
}
);
unicode = FEB2;
},
{
glyphname = "seen-ar.medi";
layers = (
{
anchors = (
{
name = "#entry";
position = "{830, 0}";
},
{
name = "#exit";
position = "{0, 0}";
},
{
name = bottom;
position = "{445, 0}";
},
{
name = top;
position = "{419, 500}";
}
);
layerId = "7C6EC3B8-53E3-46D5-865A-ED8DFE2E3A2E";
paths = (
{
closed = 1;
nodes = (
"97 1 OFFCURVE",
"145 41 OFFCURVE",
"167 119 CURVE",
"210 41 OFFCURVE",
"284 1 OFFCURVE",
"348 1 CURVE SMOOTH",
"408 1 OFFCURVE",
"460 35 OFFCURVE",
"472 106 CURVE",
"514 44 OFFCURVE",
"579 0 OFFCURVE",
"636 0 CURVE SMOOTH",
"682 0 OFFCURVE",
"710 25 OFFCURVE",
"726 69 CURVE",
"741 18 OFFCURVE",
"770 0 OFFCURVE",
"830 0 CURVE",
"830 30 LINE",
"760 30 OFFCURVE",
"743 63 OFFCURVE",
"741 171 CURVE",
"741 264 OFFCURVE",
"719 405 OFFCURVE",
"696 536 CURVE",
"666 532 LINE",
"713 281 OFFCURVE",
"753 30 OFFCURVE",
"636 30 CURVE SMOOTH",
"578 30 OFFCURVE",
"505 90 OFFCURVE",
"475 165 CURVE",
"474 216 OFFCURVE",
"469 273 OFFCURVE",
"429 478 CURVE",
"399 472 LINE",
"445 236 OFFCURVE",
"445 201 OFFCURVE",
"445 140 CURVE SMOOTH",
"445 66 OFFCURVE",
"401 31 OFFCURVE",
"348 31 CURVE SMOOTH",
"286 31 OFFCURVE",
"210 79 OFFCURVE",
"177 169 CURVE",
"180 197 OFFCURVE",
"182 229 OFFCURVE",
"182 265 CURVE SMOOTH",
"182 333 OFFCURVE",
"177 414 OFFCURVE",
"170 508 CURVE",
"140 506 LINE",
"147 408 OFFCURVE",
"152 326 OFFCURVE",
"152 260 CURVE SMOOTH",
"152 102 OFFCURVE",
"121 32 OFFCURVE",
"0 30 CURVE",
"0 0 LINE"
);
}
);
width = 830;
},
{
anchors = (
{
name = "#entry";
position = "{1299, 0}";
},
{
name = "#exit";
position = "{0, 0}";
},
{
name = top;
position = "{539, 779}";
}
);
components = (
{
name = "seen-ar.init";
},
{
alignment = -1;
name = _connection3;
transform = "{1, 0, 0, 1, 653, 0}";
}
);
layerId = "EA99615A-DD74-4F65-B9DC-480CDB683AEE";
width = 1299;
},
{
anchors = (
{
name = "#entry";
position = "{1036, 0}";
},
{
name = "#exit";
position = "{0, 0}";
},
{
name = bottom;
position = "{613, 0}";
},
{
name = top;
position = "{566, 540}";
}
);
layerId = "9AB624CD-9C19-4372-9845-4C197A276709";
paths = (
{
closed = 1;
nodes = (
"141 1 OFFCURVE",
"219 40 OFFCURVE",
"260 112 CURVE",
"348 -29 OFFCURVE",
"559 -37 OFFCURVE",
"612 99 CURVE",
"660 40 OFFCURVE",
"726 0 OFFCURVE",
"786 0 CURVE SMOOTH",
"835 0 OFFCURVE",
"868 21 OFFCURVE",
"889 58 CURVE",
"916 18 OFFCURVE",
"964 0 OFFCURVE",
"1036 0 CURVE",
"1036 60 LINE",
"945 60 OFFCURVE",
"919 88 OFFCURVE",
"919 184 CURVE SMOOTH",
"924 290 OFFCURVE",
"902 429 OFFCURVE",
"876 571 CURVE",
"816 561 LINE",
"849 377 OFFCURVE",
"863 261 OFFCURVE",
"859 172 CURVE SMOOTH",
"854 93 OFFCURVE",
"830 60 OFFCURVE",
"786 60 CURVE SMOOTH",
"729 60 OFFCURVE",
"655 120 OFFCURVE",
"625 194 CURVE",
"624 246 OFFCURVE",
"619 305 OFFCURVE",
"578 514 CURVE",
"520 502 LINE",
"565 267 OFFCURVE",
"565 231 OFFCURVE",
"565 170 CURVE SMOOTH",
"565 11 OFFCURVE",
"337 31 OFFCURVE",
"289 192 CURVE",
"307 281 OFFCURVE",
"300 399 OFFCURVE",
"290 540 CURVE",
"230 536 LINE",
"253 202 OFFCURVE",
"261 63 OFFCURVE",
"0 60 CURVE",
"0 0 LINE"
);
}
);
width = 1036;
}
);
unicode = FEB4;
},
{
glyphname = "seen-ar.init";
layers = (
{
anchors = (
{
name = "#entry";
position = "{813, 0}";
},
{
name = "#exit";
position = "{0, 0}";
},
{
name = bottom;
position = "{552, 0}";
},
{
name = top;
position = "{506, 500}";
}
);
layerId = "7C6EC3B8-53E3-46D5-865A-ED8DFE2E3A2E";
paths = (
{
closed = 1;
nodes = (
"571 69 OFFCURVE",
"655 0 OFFCURVE",
"726 0 CURVE SMOOTH",
"871 0 OFFCURVE",
"839 246 OFFCURVE",
"786 536 CURVE",
"756 532 LINE",
"809 242 OFFCURVE",
"837 30 OFFCURVE",
"726 30 CURVE SMOOTH",
"667 30 OFFCURVE",
"594 91 OFFCURVE",
"564 167 CURVE",
"536 155 LINE"
);
},
{
closed = 1;
nodes = (
"277 -40 OFFCURVE",
"565 -58 OFFCURVE",
"565 140 CURVE SMOOTH",
"565 201 OFFCURVE",
"565 240 OFFCURVE",
"519 478 CURVE",
"489 472 LINE",
"535 236 OFFCURVE",
"535 201 OFFCURVE",
"535 140 CURVE SMOOTH",
"535 -24 OFFCURVE",
"294 3 OFFCURVE",
"255 174 CURVE",
"227 164 LINE"
);
},
{
closed = 1;
nodes = (
"253 172 OFFCURVE",
"261 33 OFFCURVE",
"0 30 CURVE",
"0 0 LINE",
"293 3 OFFCURVE",
"283 174 OFFCURVE",
"260 508 CURVE",
"230 506 LINE"
);
}
);
width = 851;
},
{
anchors = (
{
name = "#entry";
position = "{0, 0}";
},
{
name = top;
position = "{613, 748}";
}
);
layerId = "EA99615A-DD74-4F65-B9DC-480CDB683AEE";
paths = (
{
closed = 1;
nodes = (
"336 0 OFFCURVE",
"334 265 OFFCURVE",
"312 459 CURVE",
"222 450 LINE",
"232 422 OFFCURVE",
"231 2 OFFCURVE",
"472 2 CURVE SMOOTH",
"698 2 OFFCURVE",
"698 263 OFFCURVE",
"676 527 CURVE",
"586 518 LINE",
"596 430 OFFCURVE",
"592 -2 OFFCURVE",
"833 -2 CURVE SMOOTH",
"1059 -2 OFFCURVE",
"1057 263 OFFCURVE",
"1025 597 CURVE",
"935 589 LINE",
"972 194 OFFCURVE",
"944 88 OFFCURVE",
"833 88 CURVE SMOOTH",
"682 88 OFFCURVE",
"686 434 OFFCURVE",
"676 528 CURVE",
"586 519 LINE",
"613 198 OFFCURVE",
"584 92 OFFCURVE",
"472 92 CURVE SMOOTH",
"321 92 OFFCURVE",
"322 366 OFFCURVE",
"312 460 CURVE",
"222 451 LINE",
"249 196 OFFCURVE",
"221 90 OFFCURVE",
"0 90 CURVE",
"0 0 LINE"
);
}
);
width = 1080;
},
{
anchors = (
{
name = "#entry";
position = "{906, 0}";
},
{
name = "#exit";
position = "{0, 0}";
},
{
name = bottom;
position = "{613, 0}";
},
{
name = top;
position = "{537, 550}";
}
);
layerId = "9AB624CD-9C19-4372-9845-4C197A276709";
paths = (
{
closed = 1;
nodes = (
"884 191 OFFCURVE",
"873 60 OFFCURVE",
"786 60 CURVE SMOOTH",
"728 60 OFFCURVE",
"654 121 OFFCURVE",
"624 196 CURVE",
"568 174 LINE",
"608 76 OFFCURVE",
"703 0 OFFCURVE",
"786 0 CURVE SMOOTH",
"965 0 OFFCURVE",
"929 281 OFFCURVE",
"876 571 CURVE",
"816 561 LINE"
);
},
{
closed = 1;
nodes = (
"565 267 OFFCURVE",
"565 231 OFFCURVE",
"565 170 CURVE SMOOTH",
"565 8 OFFCURVE",
"328 32 OFFCURVE",
"286 201 CURVE",
"228 187 LINE",
"286 -51 OFFCURVE",
"625 -64 OFFCURVE",
"625 170 CURVE SMOOTH",
"625 231 OFFCURVE",
"625 273 OFFCURVE",
"578 514 CURVE",
"520 502 LINE"
);
},
{
closed = 1;
nodes = (
"253 202 OFFCURVE",
"261 63 OFFCURVE",
"0 60 CURVE",
"0 0 LINE",
"325 3 OFFCURVE",
"313 206 OFFCURVE",
"290 540 CURVE",
"230 536 LINE"
);
}
);
width = 979;
}
);
unicode = FEB3;
},
{
glyphname = "seen-ar.init.001";
layers = (
{
anchors = (
{
name = "#entry";
position = "{813, 0}";
},
{
name = "#exit";
position = "{0, 0}";
},
{
name = bottom;
position = "{552, 0}";
},
{
name = top;
position = "{506, 500}";
}
);
layerId = "7C6EC3B8-53E3-46D5-865A-ED8DFE2E3A2E";
paths = (
{
closed = 1;
nodes = (
"571 69 OFFCURVE",
"655 0 OFFCURVE",
"726 0 CURVE SMOOTH",
"871 0 OFFCURVE",
"839 246 OFFCURVE",
"786 536 CURVE",
"756 532 LINE",
"809 242 OFFCURVE",
"837 30 OFFCURVE",
"726 30 CURVE SMOOTH",
"667 30 OFFCURVE",
"594 91 OFFCURVE",
"564 167 CURVE",
"536 155 LINE"
);
},
{
closed = 1;
nodes = (
"277 -40 OFFCURVE",
"565 -58 OFFCURVE",
"565 140 CURVE SMOOTH",
"565 201 OFFCURVE",
"565 240 OFFCURVE",
"519 478 CURVE",
"489 472 LINE",
"535 236 OFFCURVE",
"535 201 OFFCURVE",
"535 140 CURVE SMOOTH",
"535 -24 OFFCURVE",
"294 3 OFFCURVE",
"255 174 CURVE",
"227 164 LINE"
);
},
{
closed = 1;
nodes = (
"253 172 OFFCURVE",
"261 33 OFFCURVE",
"0 30 CURVE",
"0 0 LINE",
"293 3 OFFCURVE",
"283 174 OFFCURVE",
"260 508 CURVE",
"230 506 LINE"
);
}
);
width = 851;
},
{
anchors = (
{
name = "#entry";
position = "{0, 0}";
},
{
name = top;
position = "{613, 748}";
}
);
layerId = "EA99615A-DD74-4F65-B9DC-480CDB683AEE";
paths = (
{
closed = 1;
nodes = (
"336 0 OFFCURVE",
"334 265 OFFCURVE",
"312 459 CURVE",
"222 450 LINE",
"232 422 OFFCURVE",
"231 2 OFFCURVE",
"472 2 CURVE SMOOTH",
"698 2 OFFCURVE",
"698 263 OFFCURVE",
"676 527 CURVE",
"586 518 LINE",
"596 430 OFFCURVE",
"592 -2 OFFCURVE",
"833 -2 CURVE SMOOTH",
"1059 -2 OFFCURVE",
"1057 263 OFFCURVE",
"1025 597 CURVE",
"935 589 LINE",
"972 194 OFFCURVE",
"944 88 OFFCURVE",
"833 88 CURVE SMOOTH",
"682 88 OFFCURVE",
"686 434 OFFCURVE",
"676 528 CURVE",
"586 519 LINE",
"613 198 OFFCURVE",
"584 92 OFFCURVE",
"472 92 CURVE SMOOTH",
"321 92 OFFCURVE",
"322 366 OFFCURVE",
"312 460 CURVE",
"222 451 LINE",
"249 196 OFFCURVE",
"221 90 OFFCURVE",
"0 90 CURVE",
"0 0 LINE"
);
}
);
width = 1080;
},
{
anchors = (
{
name = "#entry";
position = "{1178, 0}";
},
{
name = "#exit";
position = "{0, 0}";
},
{
name = bottom;
position = "{765, 0}";
},
{
name = top;
position = "{802, 571}";
}
);
layerId = "9AB624CD-9C19-4372-9845-4C197A276709";
paths = (
{
closed = 1;
nodes = (
"802 198 OFFCURVE",
"756 62 OFFCURVE",
"598 62 CURVE SMOOTH",
"386 62 OFFCURVE",
"378 441 OFFCURVE",
"378 500 CURVE",
"318 500 LINE",
"318 441 OFFCURVE",
"328 2 OFFCURVE",
"598 2 CURVE SMOOTH",
"854 2 OFFCURVE",
"854 294 OFFCURVE",
"832 509 CURVE",
"772 505 LINE"
);
},
{
closed = 1;
nodes = (
"1252 202 OFFCURVE",
"1210 58 OFFCURVE",
"1049 58 CURVE SMOOTH",
"838 58 OFFCURVE",
"842 420 OFFCURVE",
"832 509 CURVE",
"772 505 LINE",
"782 418 OFFCURVE",
"778 -2 OFFCURVE",
"1049 -2 CURVE SMOOTH",
"1305 -2 OFFCURVE",
"1303 295 OFFCURVE",
"1271 570 CURVE",
"1211 564 LINE"
);
},
{
closed = 1;
nodes = (
"318 304 OFFCURVE",
"384 60 OFFCURVE",
"0 60 CURVE",
"0 0 LINE",
"448 1 OFFCURVE",
"378 307 OFFCURVE",
"378 500 CURVE",
"318 500 LINE"
);
}
);
width = 1316;
}
);
},
{
glyphname = "sad-ar";
layers = (
{
anchors = (
{
name = "#entry";
position = "{1164, 0}";
},
{
name = bottom;
position = "{1131, 0}";
},
{
name = top;
position = "{963, 549}";
}
);
components = (
{
name = "sad-01";
}
);
layerId = "7C6EC3B8-53E3-46D5-865A-ED8DFE2E3A2E";
paths = (
{
closed = 1;
nodes = (
"2 -3 OFFCURVE",
"0 -39 OFFCURVE",
"0 -73 CURVE SMOOTH",
"0 -355 OFFCURVE",
"110 -513 OFFCURVE",
"313 -513 CURVE SMOOTH",
"334 -513 OFFCURVE",
"356 -511 OFFCURVE",
"384 -505 CURVE SMOOTH",
"638 -451 OFFCURVE",
"794 -273 OFFCURVE",
"794 -31 CURVE SMOOTH",
"794 43 OFFCURVE",
"770 126 OFFCURVE",
"744 215 CURVE SMOOTH",
"718 302 OFFCURVE",
"691 396 OFFCURVE",
"680 498 CURVE",
"650 495 LINE",
"673 282 OFFCURVE",
"764 108 OFFCURVE",
"764 -31 CURVE SMOOTH",
"764 -258 OFFCURVE",
"619 -425 OFFCURVE",
"378 -476 CURVE SMOOTH",
"353 -481 OFFCURVE",
"332 -483 OFFCURVE",
"313 -483 CURVE SMOOTH",
"128 -483 OFFCURVE",
"30 -339 OFFCURVE",
"30 -73 CURVE SMOOTH",
"30 -40 OFFCURVE",
"32 -4 OFFCURVE",
"35 33 CURVE",
"5 35 LINE"
);
}
);
width = 1748;
},
{
anchors = (
{
name = "#entry";
position = "{1279, 0}";
},
{
name = top;
position = "{952, 862}";
}
);
components = (
{
name = "sad-01";
}
);
layerId = "EA99615A-DD74-4F65-B9DC-480CDB683AEE";
paths = (
{
closed = 1;
nodes = (
"804 195 OFFCURVE",
"834 56 OFFCURVE",
"834 14 CURVE SMOOTH",
"834 -538 OFFCURVE",
"130 -589 OFFCURVE",
"130 -28 CURVE SMOOTH",
"130 1 OFFCURVE",
"131 34 OFFCURVE",
"135 76 CURVE",
"45 84 LINE",
"42 40 OFFCURVE",
"40 4 OFFCURVE",
"40 -28 CURVE SMOOTH",
"40 -713 OFFCURVE",
"924 -652 OFFCURVE",
"924 14 CURVE SMOOTH",
"924 66 OFFCURVE",
"894 205 OFFCURVE",
"809 554 CURVE",
"721 532 LINE"
);
}
);
width = 1908;
},
{
anchors = (
{
name = "#entry";
position = "{1309, 0}";
},
{
name = bottom;
position = "{1248, 0}";
},
{
name = top;
position = "{1024, 500}";
}
);
components = (
{
name = "sad-01";
transform = "{1, 0, 0, 1, 719, 0}";
}
);
layerId = "9AB624CD-9C19-4372-9845-4C197A276709";
paths = (
{
closed = 1;
nodes = (
"62 -35 OFFCURVE",
"60 -69 OFFCURVE",
"60 -105 CURVE SMOOTH",
"60 -707 OFFCURVE",
"824 -653 OFFCURVE",
"824 -63 CURVE SMOOTH",
"824 -17 OFFCURVE",
"783 167 OFFCURVE",
"690 502 CURVE",
"632 488 LINE",
"722 161 OFFCURVE",
"764 -24 OFFCURVE",
"764 -63 CURVE SMOOTH",
"764 -577 OFFCURVE",
"120 -625 OFFCURVE",
"120 -105 CURVE SMOOTH",
"120 -71 OFFCURVE",
"121 -40 OFFCURVE",
"125 -4 CURVE",
"65 2 LINE"
);
}
);
width = 1808;
}
);
unicode = 0635;
},
{
glyphname = "sad-ar.init";
layers = (
{
anchors = (
{
name = "#entry";
position = "{526, 0}";
},
{
name = "#exit";
position = "{0, 0}";
},
{
name = top;
position = "{325, 536}";
}
);
components = (
{
name = "sad-init-regular";
}
);
layerId = "7C6EC3B8-53E3-46D5-865A-ED8DFE2E3A2E";
width = 1054;
},
{
anchors = (
{
name = "#entry";
position = "{566, 0}";
},
{
name = "#exit";
position = "{0, 0}";
},
{
name = top;
position = "{230, 863}";
}
);
components = (
{
name = "sad-regular";
transform = "{1, 0, 0, 1, 1175, 0}";
},
{
name = "sad-init-regular";
}
);
layerId = "EA99615A-DD74-4F65-B9DC-480CDB683AEE";
width = 2350;
},
{
anchors = (
{
name = "#entry";
position = "{746, 0}";
},
{
name = "#exit";
position = "{0, 0}";
},
{
name = bottom;
position = "{625, 0}";
},
{
name = top;
position = "{403, 500}";
}
);
components = (
{
name = "sad-init-regular";
transform = "{1, 0, 0, 1, 377, 0}";
}
);
layerId = "9AB624CD-9C19-4372-9845-4C197A276709";
paths = (
{
closed = 1;
nodes = (
"161 362 LINE",
"161 208 OFFCURVE",
"140 0 OFFCURVE",
"381 0 CURVE",
"381 60 LINE",
"206 60 OFFCURVE",
"221 194 OFFCURVE",
"220 362 CURVE"
);
},
{
closed = 1;
nodes = (
"160 194 OFFCURVE",
"175 60 OFFCURVE",
"0 60 CURVE",
"0 0 LINE",
"241 0 OFFCURVE",
"220 208 OFFCURVE",
"220 362 CURVE",
"161 362 LINE"
);
}
);
width = 1333;
}
);
unicode = FEBB;
},
{
glyphname = "tah-ar.init";
layers = (
{
anchors = (
{
name = "#entry";
position = "{472, 0}";
},
{
name = "#exit";
position = "{0, 0}";
},
{
name = top;
position = "{405, 561}";
}
);
layerId = "7C6EC3B8-53E3-46D5-865A-ED8DFE2E3A2E";
paths = (
{
closed = 1;
nodes = (
"39 0 OFFCURVE",
"338 0 OFFCURVE",
"472 0 CURVE SMOOTH",
"849 0 OFFCURVE",
"981 40 OFFCURVE",
"981 290 CURVE SMOOTH",
"981 460 OFFCURVE",
"865 561 OFFCURVE",
"671 561 CURVE SMOOTH",
"316 561 OFFCURVE",
"83 341 OFFCURVE",
"49 -27 CURVE",
"79 -29 LINE",
"111 323 OFFCURVE",
"332 531 OFFCURVE",
"671 531 CURVE SMOOTH",
"849 531 OFFCURVE",
"951 443 OFFCURVE",
"951 290 CURVE SMOOTH",
"951 59 OFFCURVE",
"811 30 OFFCURVE",
"472 30 CURVE SMOOTH",
"247 30 OFFCURVE",
"109 30 OFFCURVE",
"0 30 CURVE",
"0 0 LINE"
);
},
{
closed = 1;
nodes = (
"80 48 OFFCURVE",
"91 155 OFFCURVE",
"101 264 CURVE SMOOTH",
"112 389 OFFCURVE",
"124 514 OFFCURVE",
"124 664 CURVE SMOOTH",
"124 789 OFFCURVE",
"117 912 OFFCURVE",
"101 1049 CURVE",
"71 1045 LINE",
"88 908 OFFCURVE",
"94 787 OFFCURVE",
"94 664 CURVE SMOOTH",
"94 386 OFFCURVE",
"53 191 OFFCURVE",
"48 -75 CURVE",
"78 -75 LINE"
);
}
);
width = 1011;
},
{
anchors = (
{
name = "#entry";
position = "{552, 0}";
},
{
name = "#exit";
position = "{0, 0}";
},
{
name = bottom;
position = "{483, 0}";
},
{
name = top;
position = "{552, 651}";
}
);
layerId = "EA99615A-DD74-4F65-B9DC-480CDB683AEE";
paths = (
{
closed = 1;
nodes = (
"206 359 OFFCURVE",
"419 561 OFFCURVE",
"751 561 CURVE SMOOTH",
"921 561 OFFCURVE",
"1016 479 OFFCURVE",
"1016 335 CURVE SMOOTH",
"1016 134 OFFCURVE",
"938 90 OFFCURVE",
"552 90 CURVE SMOOTH",
"419 90 OFFCURVE",
"40 90 OFFCURVE",
"0 90 CURVE",
"0 0 LINE",
"38 0 OFFCURVE",
"419 0 OFFCURVE",
"552 0 CURVE SMOOTH",
"982 0 OFFCURVE",
"1106 72 OFFCURVE",
"1106 335 CURVE SMOOTH",
"1106 530 OFFCURVE",
"970 651 OFFCURVE",
"751 651 CURVE SMOOTH",
"373 651 OFFCURVE",
"120 413 OFFCURVE",
"84 22 CURVE",
"174 14 LINE"
);
},
{
closed = 1;
nodes = (
"105 964 OFFCURVE",
"106 891 OFFCURVE",
"106 823 CURVE SMOOTH",
"106 578 OFFCURVE",
"109 399 OFFCURVE",
"82 -71 CURVE",
"172 -77 LINE",
"207 529 OFFCURVE",
"195 658 OFFCURVE",
"195 1050 CURVE",
"105 1050 LINE"
);
}
);
width = 1126;
},
{
anchors = (
{
name = "#entry";
position = "{522, 0}";
},
{
name = "#exit";
position = "{0, 0}";
},
{
name = bottom;
position = "{486, 0}";
},
{
name = top;
position = "{721, 561}";
}
);
layerId = "9AB624CD-9C19-4372-9845-4C197A276709";
paths = (
{
closed = 1;
nodes = (
"158 0 OFFCURVE",
"296 0 OFFCURVE",
"522 0 CURVE SMOOTH",
"864 0 OFFCURVE",
"1031 35 OFFCURVE",
"1031 290 CURVE SMOOTH",
"1031 460 OFFCURVE",
"915 561 OFFCURVE",
"721 561 CURVE SMOOTH",
"366 561 OFFCURVE",
"132 341 OFFCURVE",
"99 -26 CURVE",
"159 -32 LINE",
"189 304 OFFCURVE",
"397 501 OFFCURVE",
"721 501 CURVE SMOOTH",
"883 501 OFFCURVE",
"971 426 OFFCURVE",
"971 290 CURVE SMOOTH",
"971 102 OFFCURVE",
"889 60 OFFCURVE",
"522 60 CURVE SMOOTH",
"297 60 OFFCURVE",
"160 60 OFFCURVE",
"0 60 CURVE",
"0 0 LINE"
);
},
{
closed = 1;
nodes = (
"137 913 OFFCURVE",
"144 791 OFFCURVE",
"144 664 CURVE SMOOTH",
"144 515 OFFCURVE",
"132 392 OFFCURVE",
"121 267 CURVE SMOOTH",
"111 158 OFFCURVE",
"100 50 OFFCURVE",
"98 -75 CURVE",
"158 -75 LINE",
"160 46 OFFCURVE",
"171 152 OFFCURVE",
"181 261 CURVE SMOOTH",
"192 386 OFFCURVE",
"204 513 OFFCURVE",
"204 664 CURVE SMOOTH",
"204 793 OFFCURVE",
"197 917 OFFCURVE",
"181 1052 CURVE",
"121 1046 LINE"
);
}
);
width = 1031;
}
);
unicode = FEC3;
},
{
glyphname = "ain-ar";
layers = (
{
anchors = (
{
name = bottom;
position = "{185, -131}";
},
{
name = top;
position = "{152, 500}";
}
);
layerId = "7C6EC3B8-53E3-46D5-865A-ED8DFE2E3A2E";
paths = (
{
closed = 1;
nodes = (
"-87 -541 OFFCURVE",
"-59 42 OFFCURVE",
"394 -5 CURVE",
"398 25 LINE",
"-97 76 OFFCURVE",
"-129 -573 OFFCURVE",
"425 -558 CURVE",
"425 -528 LINE"
);
},
{
closed = 1;
nodes = (
"207 -2 LINE",
"184 8 OFFCURVE",
"161 22 OFFCURVE",
"144 36 CURVE SMOOTH",
"18 144 OFFCURVE",
"-7 286 OFFCURVE",
"87 401 CURVE SMOOTH",
"141 467 OFFCURVE",
"258 488 OFFCURVE",
"381 451 CURVE",
"390 482 LINE",
"255 519 OFFCURVE",
"124 495 OFFCURVE",
"64 420 CURVE SMOOTH",
"-40 291 OFFCURVE",
"-16 129 OFFCURVE",
"126 11 CURVE SMOOTH",
"137 2 OFFCURVE",
"152 -8 OFFCURVE",
"167 -16 CURVE"
);
}
);
width = 455;
},
{
anchors = (
{
name = top;
position = "{143, 791}";
}
);
layerId = "EA99615A-DD74-4F65-B9DC-480CDB683AEE";
paths = (
{
closed = 1;
nodes = (
"181 93 OFFCURVE",
"131 189 OFFCURVE",
"131 280 CURVE SMOOTH",
"131 416 OFFCURVE",
"240 540 OFFCURVE",
"403 540 CURVE SMOOTH",
"444 540 OFFCURVE",
"489 532 OFFCURVE",
"536 514 CURVE",
"569 599 LINE",
"510 621 OFFCURVE",
"455 630 OFFCURVE",
"403 630 CURVE SMOOTH",
"187 630 OFFCURVE",
"40 460 OFFCURVE",
"40 278 CURVE SMOOTH",
"40 158 OFFCURVE",
"103 34 OFFCURVE",
"250 -52 CURVE",
"296 25 LINE"
);
},
{
closed = 1;
nodes = (
"539 88 OFFCURVE",
"518 90 OFFCURVE",
"493 90 CURVE SMOOTH",
"213 90 OFFCURVE",
"90 -14 OFFCURVE",
"90 -256 CURVE SMOOTH",
"90 -530 OFFCURVE",
"244 -643 OFFCURVE",
"596 -633 CURVE",
"594 -543 LINE",
"289 -551 OFFCURVE",
"180 -473 OFFCURVE",
"180 -256 CURVE SMOOTH",
"180 -68 OFFCURVE",
"261 0 OFFCURVE",
"493 0 CURVE SMOOTH",
"514 0 OFFCURVE",
"529 -2 OFFCURVE",
"552 -4 CURVE",
"560 86 LINE"
);
}
);
width = 636;
},
{
anchors = (
{
name = bottom;
position = "{330, -646}";
},
{
name = top;
position = "{294, 516}";
}
);
layerId = "9AB624CD-9C19-4372-9845-4C197A276709";
paths = (
{
closed = 1;
nodes = (
"57 635 OFFCURVE",
"-178 157 OFFCURVE",
"184 -56 CURVE",
"214 -4 LINE",
"-85 172 OFFCURVE",
"104 553 OFFCURVE",
"428 431 CURVE",
"450 487 LINE"
);
},
{
closed = 1;
nodes = (
"-84 60 OFFCURVE",
"-179 -653 OFFCURVE",
"490 -653 CURVE",
"490 -593 LINE",
"-93 -593 OFFCURVE",
"-12 0 OFFCURVE",
"459 0 CURVE",
"459 60 LINE"
);
}
);
width = 600;
}
);
unicode = 0639;
},
{
glyphname = "ain-ar.fina";
layers = (
{
anchors = (
{
name = "#entry";
position = "{651, 0}";
},
{
name = bottom;
position = "{183, -131}";
},
{
name = top;
position = "{285, 500}";
}
);
layerId = "7C6EC3B8-53E3-46D5-865A-ED8DFE2E3A2E";
paths = (
{
closed = 1;
nodes = (
"349 -560 OFFCURVE",
"87 -485 OFFCURVE",
"87 -286 CURVE SMOOTH",
"87 -151 OFFCURVE",
"214 -67 OFFCURVE",
"344 19 CURVE SMOOTH",
"466 100 OFFCURVE",
"592 184 OFFCURVE",
"592 311 CURVE SMOOTH",
"592 397 OFFCURVE",
"563 453 OFFCURVE",
"508 472 CURVE SMOOTH",
"382 515 OFFCURVE",
"68 500 OFFCURVE",
"68 389 CURVE SMOOTH",
"68 150 OFFCURVE",
"442 0 OFFCURVE",
"651 0 CURVE",
"651 30 LINE",
"448 30 OFFCURVE",
"98 170 OFFCURVE",
"98 389 CURVE SMOOTH",
"98 457 OFFCURVE",
"354 492 OFFCURVE",
"498 444 CURVE SMOOTH",
"540 430 OFFCURVE",
"562 385 OFFCURVE",
"562 311 CURVE SMOOTH",
"562 78 OFFCURVE",
"57 3 OFFCURVE",
"57 -286 CURVE SMOOTH",
"57 -483 OFFCURVE",
"298 -598 OFFCURVE",
"597 -550 CURVE",
"593 -520 LINE"
);
}
);
width = 651;
},
{
anchors = (
{
name = "#entry";
position = "{651, 0}";
},
{
name = top;
position = "{291, 834}";
}
);
layerId = "EA99615A-DD74-4F65-B9DC-480CDB683AEE";
paths = (
{
closed = 1;
nodes = (
"391 90 OFFCURVE",
"113 268 OFFCURVE",
"113 434 CURVE SMOOTH",
"113 484 OFFCURVE",
"368 517 OFFCURVE",
"493 474 CURVE SMOOTH",
"622 430 OFFCURVE",
"536 245 OFFCURVE",
"319 102 CURVE SMOOTH",
"189 16 OFFCURVE",
"42 -82 OFFCURVE",
"42 -241 CURVE SMOOTH",
"42 -450 OFFCURVE",
"291 -570 OFFCURVE",
"600 -519 CURVE",
"586 -431 LINE",
"333 -472 OFFCURVE",
"132 -387 OFFCURVE",
"132 -241 CURVE SMOOTH",
"132 -130 OFFCURVE",
"239 -60 OFFCURVE",
"369 26 CURVE SMOOTH",
"657 216 OFFCURVE",
"738 486 OFFCURVE",
"523 560 CURVE SMOOTH",
"315 632 OFFCURVE",
"23 564 OFFCURVE",
"23 434 CURVE SMOOTH",
"23 165 OFFCURVE",
"433 0 OFFCURVE",
"651 0 CURVE",
"651 90 LINE"
);
}
);
width = 651;
},
{
anchors = (
{
name = "#entry";
position = "{738, 0}";
},
{
name = bottom;
position = "{224, -534}";
},
{
name = top;
position = "{305, 568}";
}
);
layerId = "9AB624CD-9C19-4372-9845-4C197A276709";
paths = (
{
closed = 1;
nodes = (
"464 60 OFFCURVE",
"90 277 OFFCURVE",
"90 434 CURVE SMOOTH",
"90 516 OFFCURVE",
"414 535 OFFCURVE",
"577 455 CURVE SMOOTH",
"702 394 OFFCURVE",
"626 217 OFFCURVE",
"406 72 CURVE SMOOTH",
"276 -14 OFFCURVE",
"129 -112 OFFCURVE",
"129 -271 CURVE SMOOTH",
"129 -479 OFFCURVE",
"377 -600 OFFCURVE",
"687 -549 CURVE",
"677 -489 LINE",
"404 -535 OFFCURVE",
"189 -436 OFFCURVE",
"189 -271 CURVE SMOOTH",
"189 -144 OFFCURVE",
"310 -64 OFFCURVE",
"440 22 CURVE SMOOTH",
"701 195 OFFCURVE",
"779 423 OFFCURVE",
"603 509 CURVE SMOOTH",
"386 615 OFFCURVE",
"30 574 OFFCURVE",
"30 434 CURVE SMOOTH",
"30 240 OFFCURVE",
"426 0 OFFCURVE",
"738 0 CURVE",
"738 60 LINE"
);
}
);
width = 738;
}
);
unicode = FECA;
},
{
glyphname = "ain-ar.medi";
layers = (
{
anchors = (
{
name = "#entry";
position = "{651, 0}";
},
{
name = "#exit";
position = "{0, 0}";
},
{
name = bottom;
position = "{334, 0}";
},
{
name = top;
position = "{298, 532}";
}
);
layerId = "7C6EC3B8-53E3-46D5-865A-ED8DFE2E3A2E";
paths = (
{
closed = 1;
nodes = (
"444 30 OFFCURVE",
"49 160 OFFCURVE",
"49 421 CURVE SMOOTH",
"49 497 OFFCURVE",
"338 528 OFFCURVE",
"503 473 CURVE SMOOTH",
"551 457 OFFCURVE",
"577 406 OFFCURVE",
"577 326 CURVE SMOOTH",
"577 39 OFFCURVE",
"285 30 OFFCURVE",
"0 30 CURVE",
"0 0 LINE",
"285 0 OFFCURVE",
"607 9 OFFCURVE",
"607 326 CURVE SMOOTH",
"607 418 OFFCURVE",
"574 480 OFFCURVE",
"513 501 CURVE SMOOTH",
"385 545 OFFCURVE",
"19 547 OFFCURVE",
"19 421 CURVE SMOOTH",
"19 138 OFFCURVE",
"440 0 OFFCURVE",
"651 0 CURVE",
"651 30 LINE"
);
}
);
width = 651;
},
{
anchors = (
{
name = "#entry";
position = "{678, 0}";
},
{
name = "#exit";
position = "{0, 0}";
},
{
name = top;
position = "{313, 870}";
}
);
layerId = "EA99615A-DD74-4F65-B9DC-480CDB683AEE";
paths = (
{
closed = 1;
nodes = (
"474 90 OFFCURVE",
"97 216 OFFCURVE",
"90 466 CURVE SMOOTH",
"88 523 OFFCURVE",
"380 552 OFFCURVE",
"524 503 CURVE SMOOTH",
"565 489 OFFCURVE",
"588 445 OFFCURVE",
"588 371 CURVE SMOOTH",
"588 98 OFFCURVE",
"310 90 OFFCURVE",
"0 90 CURVE",
"0 0 LINE",
"312 0 OFFCURVE",
"678 10 OFFCURVE",
"678 371 CURVE SMOOTH",
"678 482 OFFCURVE",
"634 561 OFFCURVE",
"554 589 CURVE SMOOTH",
"419 636 OFFCURVE",
"-1 636 OFFCURVE",
"0 466 CURVE SMOOTH",
"1 150 OFFCURVE",
"460 0 OFFCURVE",
"678 0 CURVE",
"678 90 LINE"
);
}
);
width = 678;
},
{
anchors = (
{
name = "#entry";
position = "{758, 0}";
},
{
name = "#exit";
position = "{0, 0}";
},
{
name = bottom;
position = "{481, 0}";
},
{
name = top;
position = "{390, 554}";
}
);
layerId = "9AB624CD-9C19-4372-9845-4C197A276709";
paths = (
{
closed = 1;
nodes = (
"390 0 OFFCURVE",
"698 9 OFFCURVE",
"698 311 CURVE SMOOTH",
"698 426 OFFCURVE",
"665 473 OFFCURVE",
"614 501 CURVE SMOOTH",
"466 582 OFFCURVE",
"50 577 OFFCURVE",
"50 426 CURVE SMOOTH",
"50 114 OFFCURVE",
"552 0 OFFCURVE",
"758 0 CURVE",
"758 60 LINE",
"556 60 OFFCURVE",
"110 164 OFFCURVE",
"110 426 CURVE SMOOTH",
"110 490 OFFCURVE",
"414 533 OFFCURVE",
"594 445 CURVE SMOOTH",
"621 432 OFFCURVE",
"638 371 OFFCURVE",
"638 311 CURVE SMOOTH",
"638 67 OFFCURVE",
"390 60 OFFCURVE",
"0 60 CURVE",
"0 0 LINE"
);
}
);
width = 758;
}
);
unicode = FECC;
},
{
glyphname = "ain-ar.init";
layers = (
{
anchors = (
{
name = "#entry";
position = "{0, 0}";
},
{
name = bottom;
position = "{302, -4}";
},
{
name = top;
position = "{322, 531}";
}
);
layerId = "7C6EC3B8-53E3-46D5-865A-ED8DFE2E3A2E";
paths = (
{
closed = 1;
nodes = (
"166 78 OFFCURVE",
"88 168 OFFCURVE",
"88 253 CURVE SMOOTH",
"88 402 OFFCURVE",
"197 500 OFFCURVE",
"364 500 CURVE SMOOTH",
"391 500 OFFCURVE",
"426 493 OFFCURVE",
"453 483 CURVE",
"463 511 LINE",
"434 522 OFFCURVE",
"395 530 OFFCURVE",
"364 530 CURVE SMOOTH",
"181 530 OFFCURVE",
"58 419 OFFCURVE",
"58 253 CURVE SMOOTH",
"58 156 OFFCURVE",
"144 55 OFFCURVE",
"272 -1 CURVE",
"284 27 LINE"
);
},
{
closed = 1;
nodes = (
"0 0 LINE",
"57 -2 OFFCURVE",
"119 -4 OFFCURVE",
"174 -4 CURVE SMOOTH",
"302 -4 OFFCURVE",
"457 3 OFFCURVE",
"562 14 CURVE",
"558 44 LINE",
"456 33 OFFCURVE",
"303 26 OFFCURVE",
"174 26 CURVE SMOOTH",
"118 26 OFFCURVE",
"56 28 OFFCURVE",
"0 30 CURVE"
);
}
);
width = 602;
},
{
anchors = (
{
name = "#entry";
position = "{0, 0}";
},
{
name = top;
position = "{320, 793}";
}
);
components = (
{
name = _connection2;
}
);
layerId = "EA99615A-DD74-4F65-B9DC-480CDB683AEE";
paths = (
{
closed = 1;
nodes = (
"502 594 LINE",
"464 595 OFFCURVE",
"369 595 OFFCURVE",
"318 595 CURVE SMOOTH",
"121 595 OFFCURVE",
"23 483 OFFCURVE",
"23 266 CURVE SMOOTH",
"23 97 OFFCURVE",
"119 0 OFFCURVE",
"297 0 CURVE SMOOTH",
"344 0 OFFCURVE",
"456 1 OFFCURVE",
"572 4 CURVE",
"570 94 LINE",
"454 91 OFFCURVE",
"345 89 OFFCURVE",
"299 90 CURVE SMOOTH",
"170 93 OFFCURVE",
"113 147 OFFCURVE",
"113 266 CURVE SMOOTH",
"113 435 OFFCURVE",
"173 505 OFFCURVE",
"318 505 CURVE SMOOTH",
"375 505 OFFCURVE",
"457 504 OFFCURVE",
"502 504 CURVE"
);
}
);
width = 612;
},
{
anchors = (
{
name = "#entry";
position = "{0, 0}";
},
{
name = bottom;
position = "{301, 0}";
},
{
name = top;
position = "{280, 518}";
}
);
layerId = "9AB624CD-9C19-4372-9845-4C197A276709";
paths = (
{
closed = 1;
nodes = (
"55 -2 OFFCURVE",
"118 -4 OFFCURVE",
"174 -4 CURVE SMOOTH",
"306 -4 OFFCURVE",
"460 3 OFFCURVE",
"561 14 CURVE",
"555 74 LINE",
"455 63 OFFCURVE",
"303 56 OFFCURVE",
"174 56 CURVE SMOOTH",
"118 56 OFFCURVE",
"57 58 OFFCURVE",
"0 60 CURVE",
"0 0 LINE"
);
},
{
closed = 1;
nodes = (
"432 523 OFFCURVE",
"394 530 OFFCURVE",
"364 530 CURVE SMOOTH",
"181 530 OFFCURVE",
"58 419 OFFCURVE",
"58 253 CURVE SMOOTH",
"58 155 OFFCURVE",
"143 55 OFFCURVE",
"272 -1 CURVE",
"296 55 LINE",
"189 101 OFFCURVE",
"118 181 OFFCURVE",
"118 253 CURVE SMOOTH",
"118 385 OFFCURVE",
"214 470 OFFCURVE",
"364 470 CURVE SMOOTH",
"387 470 OFFCURVE",
"418 464 OFFCURVE",
"443 455 CURVE",
"463 511 LINE"
);
}
);
width = 602;
}
);
unicode = FECB;
},
{
glyphname = "ain-ar.init.001";
layers = (
{
anchors = (
{
name = bottom;
position = "{302, -4}";
},
{
name = top;
position = "{322, 531}";
}
);
layerId = "7C6EC3B8-53E3-46D5-865A-ED8DFE2E3A2E";
paths = (
{
closed = 1;
nodes = (
"166 78 OFFCURVE",
"88 168 OFFCURVE",
"88 253 CURVE SMOOTH",
"88 402 OFFCURVE",
"197 500 OFFCURVE",
"364 500 CURVE SMOOTH",
"391 500 OFFCURVE",
"426 493 OFFCURVE",
"453 483 CURVE",
"463 511 LINE",
"434 522 OFFCURVE",
"395 530 OFFCURVE",
"364 530 CURVE SMOOTH",
"181 530 OFFCURVE",
"58 419 OFFCURVE",
"58 253 CURVE SMOOTH",
"58 156 OFFCURVE",
"144 55 OFFCURVE",
"272 -1 CURVE",
"284 27 LINE"
);
},
{
closed = 1;
nodes = (
"0 0 LINE",
"57 -2 OFFCURVE",
"119 -4 OFFCURVE",
"174 -4 CURVE SMOOTH",
"302 -4 OFFCURVE",
"457 3 OFFCURVE",
"562 14 CURVE",
"558 44 LINE",
"456 33 OFFCURVE",
"303 26 OFFCURVE",
"174 26 CURVE SMOOTH",
"118 26 OFFCURVE",
"56 28 OFFCURVE",
"0 30 CURVE"
);
}
);
width = 602;
},
{
anchors = (
{
name = "#entry";
position = "{0, 0}";
},
{
name = top;
position = "{320, 793}";
}
);
components = (
{
name = _connection2;
}
);
layerId = "EA99615A-DD74-4F65-B9DC-480CDB683AEE";
paths = (
{
closed = 1;
nodes = (
"502 594 LINE",
"464 595 OFFCURVE",
"369 595 OFFCURVE",
"318 595 CURVE SMOOTH",
"121 595 OFFCURVE",
"23 483 OFFCURVE",
"23 266 CURVE SMOOTH",
"23 97 OFFCURVE",
"119 0 OFFCURVE",
"297 0 CURVE SMOOTH",
"344 0 OFFCURVE",
"456 1 OFFCURVE",
"572 4 CURVE",
"570 94 LINE",
"454 91 OFFCURVE",
"345 89 OFFCURVE",
"299 90 CURVE SMOOTH",
"170 93 OFFCURVE",
"113 147 OFFCURVE",
"113 266 CURVE SMOOTH",
"113 435 OFFCURVE",
"173 505 OFFCURVE",
"318 505 CURVE SMOOTH",
"375 505 OFFCURVE",
"457 504 OFFCURVE",
"502 504 CURVE"
);
}
);
width = 612;
},
{
anchors = (
{
name = "#entry";
position = "{0, 0}";
},
{
name = bottom;
position = "{301, 0}";
},
{
name = top;
position = "{280, 518}";
}
);
layerId = "9AB624CD-9C19-4372-9845-4C197A276709";
paths = (
{
closed = 1;
nodes = (
"405 71 OFFCURVE",
"221 60 OFFCURVE",
"0 60 CURVE",
"0 0 LINE",
"191 0 OFFCURVE",
"389 8 OFFCURVE",
"572 34 CURVE",
"564 94 LINE"
);
},
{
closed = 1;
nodes = (
"86 674 OFFCURVE",
"-139 137 OFFCURVE",
"244 5 CURVE",
"264 61 LINE",
"-39 165 OFFCURVE",
"132 580 OFFCURVE",
"427 420 CURVE",
"455 472 LINE"
);
}
);
width = 602;
}
);
},
{
glyphname = "fehDotless-ar";
layers = (
{
anchors = (
{
name = bottom;
position = "{786, 0}";
},
{
name = top;
position = "{965, 584}";
}
);
layerId = "7C6EC3B8-53E3-46D5-865A-ED8DFE2E3A2E";
paths = (
{
closed = 1;
nodes = (
"864 -5 OFFCURVE",
"914 0 CURVE SMOOTH",
"1091 18 OFFCURVE",
"1287 31 OFFCURVE",
"1287 239 CURVE SMOOTH",
"1287 476 OFFCURVE",
"1106 659 OFFCURVE",
"906 546 CURVE SMOOTH",
"812 492 OFFCURVE",
"756 400 OFFCURVE",
"756 298 CURVE SMOOTH",
"756 160 OFFCURVE",
"839 117 OFFCURVE",
"996 117 CURVE SMOOTH",
"1091 117 OFFCURVE",
"1218 146 OFFCURVE",
"1314 189 CURVE",
"1302 216 LINE",
"1210 179 OFFCURVE",
"1086 147 OFFCURVE",
"996 147 CURVE SMOOTH",
"859 147 OFFCURVE",
"788 174 OFFCURVE",
"786 298 CURVE",
"786 389 OFFCURVE",
"836 472 OFFCURVE",
"921 520 CURVE SMOOTH",
"1098 620 OFFCURVE",
"1257 454 OFFCURVE",
"1257 240 CURVE SMOOTH",
"1257 91 OFFCURVE",
"1151 46 OFFCURVE",
"914 30 CURVE SMOOTH",
"842 25 OFFCURVE",
"559 24 OFFCURVE",
"467 29 CURVE SMOOTH",
"107 49 OFFCURVE",
"0 184 OFFCURVE",
"113 558 CURVE",
"84 568 LINE",
"-34 175 OFFCURVE",
"85 23 OFFCURVE",
"467 0 CURVE SMOOTH",
"550 -5 OFFCURVE"
);
}
);
width = 1354;
},
{
anchors = (
{
name = top;
position = "{1079, 1000}";
}
);
layerId = "EA99615A-DD74-4F65-B9DC-480CDB683AEE";
paths = (
{
closed = 1;
nodes = (
"51 465 OFFCURVE",
"44 380 OFFCURVE",
"44 321 CURVE SMOOTH",
"44 114 OFFCURVE",
"175 21 OFFCURVE",
"471 0 CURVE SMOOTH",
"499 -2 OFFCURVE",
"957 -3 OFFCURVE",
"1029 -3 CURVE SMOOTH",
"1409 -3 OFFCURVE",
"1389 130 OFFCURVE",
"1389 452 CURVE SMOOTH",
"1389 685 OFFCURVE",
"1298 781 OFFCURVE",
"1079 781 CURVE SMOOTH",
"882 781 OFFCURVE",
"784 669 OFFCURVE",
"784 452 CURVE SMOOTH",
"784 283 OFFCURVE",
"880 190 OFFCURVE",
"1058 186 CURVE SMOOTH",
"1106 185 OFFCURVE",
"1218 188 OFFCURVE",
"1334 194 CURVE",
"1330 284 LINE",
"1214 278 OFFCURVE",
"1105 275 OFFCURVE",
"1060 276 CURVE SMOOTH",
"931 279 OFFCURVE",
"874 333 OFFCURVE",
"874 452 CURVE SMOOTH",
"874 621 OFFCURVE",
"934 691 OFFCURVE",
"1079 691 CURVE SMOOTH",
"1246 691 OFFCURVE",
"1299 635 OFFCURVE",
"1299 452 CURVE SMOOTH",
"1299 124 OFFCURVE",
"1305 87 OFFCURVE",
"1029 87 CURVE SMOOTH",
"957 87 OFFCURVE",
"503 88 OFFCURVE",
"477 90 CURVE SMOOTH",
"225 109 OFFCURVE",
"134 169 OFFCURVE",
"134 321 CURVE SMOOTH",
"134 376 OFFCURVE",
"140 457 OFFCURVE",
"153 563 CURVE",
"63 573 LINE"
);
}
);
width = 1416;
},
{
anchors = (
{
name = bottom;
position = "{786, 0}";
},
{
name = top;
position = "{1008, 627}";
}
);
layerId = "9AB624CD-9C19-4372-9845-4C197A276709";
paths = (
{
closed = 1;
nodes = (
"-32 182 OFFCURVE",
"77 21 OFFCURVE",
"465 -1 CURVE SMOOTH",
"558 -6 OFFCURVE",
"843 -4 OFFCURVE",
"916 0 CURVE SMOOTH",
"1188 15 OFFCURVE",
"1287 92 OFFCURVE",
"1287 290 CURVE SMOOTH",
"1287 543 OFFCURVE",
"1093 702 OFFCURVE",
"906 596 CURVE SMOOTH",
"813 543 OFFCURVE",
"756 450 OFFCURVE",
"756 348 CURVE SMOOTH",
"758 217 OFFCURVE",
"827 167 OFFCURVE",
"996 167 CURVE SMOOTH",
"1081 167 OFFCURVE",
"1206 195 OFFCURVE",
"1313 238 CURVE",
"1291 294 LINE",
"1191 254 OFFCURVE",
"1073 227 OFFCURVE",
"996 227 CURVE SMOOTH",
"857 227 OFFCURVE",
"818 255 OFFCURVE",
"816 348 CURVE SMOOTH",
"816 429 OFFCURVE",
"860 501 OFFCURVE",
"936 544 CURVE SMOOTH",
"1080 626 OFFCURVE",
"1227 498 OFFCURVE",
"1227 290 CURVE SMOOTH",
"1227 128 OFFCURVE",
"1155 73 OFFCURVE",
"912 60 CURVE SMOOTH",
"841 56 OFFCURVE",
"560 54 OFFCURVE",
"469 59 CURVE SMOOTH",
"121 78 OFFCURVE",
"37 202 OFFCURVE",
"142 549 CURVE",
"84 567 LINE"
);
}
);
width = 1359;
}
);
unicode = 06A1;
},
{
glyphname = "fehDotless-ar.001";
layers = (
{
anchors = (
{
name = bottom;
position = "{786, 0}";
},
{
name = top;
position = "{965, 584}";
}
);
layerId = "7C6EC3B8-53E3-46D5-865A-ED8DFE2E3A2E";
paths = (
{
closed = 1;
nodes = (
"864 -5 OFFCURVE",
"914 0 CURVE SMOOTH",
"1091 18 OFFCURVE",
"1287 31 OFFCURVE",
"1287 239 CURVE SMOOTH",
"1287 476 OFFCURVE",
"1106 659 OFFCURVE",
"906 546 CURVE SMOOTH",
"812 492 OFFCURVE",
"756 400 OFFCURVE",
"756 298 CURVE SMOOTH",
"756 160 OFFCURVE",
"839 117 OFFCURVE",
"996 117 CURVE SMOOTH",
"1091 117 OFFCURVE",
"1218 146 OFFCURVE",
"1314 189 CURVE",
"1302 216 LINE",
"1210 179 OFFCURVE",
"1086 147 OFFCURVE",
"996 147 CURVE SMOOTH",
"859 147 OFFCURVE",
"788 174 OFFCURVE",
"786 298 CURVE",
"786 389 OFFCURVE",
"836 472 OFFCURVE",
"921 520 CURVE SMOOTH",
"1098 620 OFFCURVE",
"1257 454 OFFCURVE",
"1257 240 CURVE SMOOTH",
"1257 91 OFFCURVE",
"1151 46 OFFCURVE",
"914 30 CURVE SMOOTH",
"842 25 OFFCURVE",
"559 24 OFFCURVE",
"467 29 CURVE SMOOTH",
"107 49 OFFCURVE",
"0 184 OFFCURVE",
"113 558 CURVE",
"84 568 LINE",
"-34 175 OFFCURVE",
"85 23 OFFCURVE",
"467 0 CURVE SMOOTH",
"550 -5 OFFCURVE"
);
}
);
width = 1354;
},
{
anchors = (
{
name = top;
position = "{1079, 1000}";
}
);
layerId = "EA99615A-DD74-4F65-B9DC-480CDB683AEE";
paths = (
{
closed = 1;
nodes = (
"51 465 OFFCURVE",
"44 380 OFFCURVE",
"44 321 CURVE SMOOTH",
"44 114 OFFCURVE",
"175 21 OFFCURVE",
"471 0 CURVE SMOOTH",
"499 -2 OFFCURVE",
"957 -3 OFFCURVE",
"1029 -3 CURVE SMOOTH",
"1409 -3 OFFCURVE",
"1389 130 OFFCURVE",
"1389 452 CURVE SMOOTH",
"1389 685 OFFCURVE",
"1298 781 OFFCURVE",
"1079 781 CURVE SMOOTH",
"882 781 OFFCURVE",
"784 669 OFFCURVE",
"784 452 CURVE SMOOTH",
"784 283 OFFCURVE",
"880 190 OFFCURVE",
"1058 186 CURVE SMOOTH",
"1106 185 OFFCURVE",
"1218 188 OFFCURVE",
"1334 194 CURVE",
"1330 284 LINE",
"1214 278 OFFCURVE",
"1105 275 OFFCURVE",
"1060 276 CURVE SMOOTH",
"931 279 OFFCURVE",
"874 333 OFFCURVE",
"874 452 CURVE SMOOTH",
"874 621 OFFCURVE",
"934 691 OFFCURVE",
"1079 691 CURVE SMOOTH",
"1246 691 OFFCURVE",
"1299 635 OFFCURVE",
"1299 452 CURVE SMOOTH",
"1299 124 OFFCURVE",
"1305 87 OFFCURVE",
"1029 87 CURVE SMOOTH",
"957 87 OFFCURVE",
"503 88 OFFCURVE",
"477 90 CURVE SMOOTH",
"225 109 OFFCURVE",
"134 169 OFFCURVE",
"134 321 CURVE SMOOTH",
"134 376 OFFCURVE",
"140 457 OFFCURVE",
"153 563 CURVE",
"63 573 LINE"
);
}
);
width = 1416;
},
{
anchors = (
{
name = top;
position = "{1040, 836}";
}
);
layerId = "9AB624CD-9C19-4372-9845-4C197A276709";
paths = (
{
closed = 1;
nodes = (
"30 178 OFFCURVE",
"131 27 OFFCURVE",
"512 4 CURVE SMOOTH",
"594 -1 OFFCURVE",
"907 -1 OFFCURVE",
"956 4 CURVE SMOOTH",
"1133 22 OFFCURVE",
"1316 34 OFFCURVE",
"1316 228 CURVE SMOOTH",
"1316 487 OFFCURVE",
"1126 678 OFFCURVE",
"957 582 CURVE SMOOTH",
"869 532 OFFCURVE",
"815 444 OFFCURVE",
"815 347 CURVE SMOOTH",
"815 220 OFFCURVE",
"888 161 OFFCURVE",
"1040 161 CURVE SMOOTH",
"1140 161 OFFCURVE",
"1263 182 OFFCURVE",
"1302 205 CURVE",
"1270 257 LINE",
"1242 239 OFFCURVE",
"1127 221 OFFCURVE",
"1040 221 CURVE SMOOTH",
"919 221 OFFCURVE",
"875 256 OFFCURVE",
"875 347 CURVE SMOOTH",
"875 423 OFFCURVE",
"916 490 OFFCURVE",
"987 530 CURVE SMOOTH",
"1111 600 OFFCURVE",
"1256 440 OFFCURVE",
"1256 228 CURVE SMOOTH",
"1256 90 OFFCURVE",
"1129 84 OFFCURVE",
"950 64 CURVE SMOOTH",
"905 59 OFFCURVE",
"594 59 OFFCURVE",
"516 64 CURVE SMOOTH",
"175 86 OFFCURVE",
"98 198 OFFCURVE",
"200 535 CURVE",
"142 553 LINE"
);
}
);
width = 1359;
}
);
},
{
glyphname = "fehDotless-ar.fina";
layers = (
{
anchors = (
{
name = "#entry";
position = "{1294, 0}";
},
{
name = bottom;
position = "{1025, 0}";
},
{
name = top;
position = "{1025, 603}";
}
);
layerId = "7C6EC3B8-53E3-46D5-865A-ED8DFE2E3A2E";
paths = (
{
closed = 1;
nodes = (
"1141 31 OFFCURVE",
"942 42 OFFCURVE",
"846 142 CURVE SMOOTH",
"684 311 OFFCURVE",
"795 573 OFFCURVE",
"1025 573 CURVE SMOOTH",
"1152 573 OFFCURVE",
"1252 455 OFFCURVE",
"1252 309 CURVE SMOOTH",
"1252 126 OFFCURVE",
"1106 30 OFFCURVE",
"825 30 CURVE SMOOTH",
"790 30 OFFCURVE",
"750 30 OFFCURVE",
"704 30 CURVE SMOOTH",
"642 30 OFFCURVE",
"569 29 OFFCURVE",
"482 29 CURVE SMOOTH",
"199 29 OFFCURVE",
"70 125 OFFCURVE",
"70 331 CURVE SMOOTH",
"70 399 OFFCURVE",
"84 480 OFFCURVE",
"113 578 CURVE",
"85 586 LINE",
"55 486 OFFCURVE",
"40 403 OFFCURVE",
"40 331 CURVE SMOOTH",
"40 106 OFFCURVE",
"184 -1 OFFCURVE",
"482 -1 CURVE SMOOTH",
"633 -1 OFFCURVE",
"742 0 OFFCURVE",
"825 0 CURVE SMOOTH",
"1122 0 OFFCURVE",
"1282 107 OFFCURVE",
"1282 309 CURVE SMOOTH",
"1282 472 OFFCURVE",
"1169 603 OFFCURVE",
"1025 603 CURVE SMOOTH",
"768 603 OFFCURVE",
"643 309 OFFCURVE",
"824 122 CURVE SMOOTH",
"929 13 OFFCURVE",
"1141 1 OFFCURVE",
"1294 0 CURVE",
"1294 30 LINE"
);
}
);
width = 1294;
},
{
anchors = (
{
name = "#entry";
position = "{1419, 0}";
},
{
name = top;
position = "{1070, 920}";
}
);
layerId = "EA99615A-DD74-4F65-B9DC-480CDB683AEE";
paths = (
{
closed = 1;
nodes = (
"1110 92 OFFCURVE",
"972 125 OFFCURVE",
"901 198 CURVE SMOOTH",
"850 251 OFFCURVE",
"827 307 OFFCURVE",
"828 377 CURVE SMOOTH",
"833 532 OFFCURVE",
"916 603 OFFCURVE",
"1070 603 CURVE SMOOTH",
"1209 603 OFFCURVE",
"1282 524 OFFCURVE",
"1282 354 CURVE SMOOTH",
"1282 173 OFFCURVE",
"1153 90 OFFCURVE",
"870 90 CURVE SMOOTH",
"835 90 OFFCURVE",
"795 90 OFFCURVE",
"748 90 CURVE SMOOTH",
"686 90 OFFCURVE",
"614 89 OFFCURVE",
"527 89 CURVE SMOOTH",
"251 89 OFFCURVE",
"130 179 OFFCURVE",
"130 376 CURVE SMOOTH",
"130 443 OFFCURVE",
"144 520 OFFCURVE",
"173 618 CURVE",
"87 644 LINE",
"55 539 OFFCURVE",
"40 451 OFFCURVE",
"40 376 CURVE SMOOTH",
"40 125 OFFCURVE",
"204 -1 OFFCURVE",
"527 -1 CURVE SMOOTH",
"678 -1 OFFCURVE",
"787 0 OFFCURVE",
"870 0 CURVE SMOOTH",
"1214 0 OFFCURVE",
"1372 111 OFFCURVE",
"1372 354 CURVE SMOOTH",
"1372 583 OFFCURVE",
"1268 693 OFFCURVE",
"1070 693 CURVE SMOOTH",
"854 693 OFFCURVE",
"740 590 OFFCURVE",
"739 372 CURVE SMOOTH",
"739 279 OFFCURVE",
"770 205 OFFCURVE",
"837 136 CURVE SMOOTH",
"927 42 OFFCURVE",
"1084 2 OFFCURVE",
"1419 0 CURVE",
"1419 90 LINE"
);
}
);
width = 1419;
},
{
anchors = (
{
name = "#entry";
position = "{1459, 0}";
},
{
name = bottom;
position = "{1128, 0}";
},
{
name = top;
position = "{1110, 573}";
}
);
layerId = "9AB624CD-9C19-4372-9845-4C197A276709";
paths = (
{
closed = 1;
nodes = (
"154 465 OFFCURVE",
"140 385 OFFCURVE",
"140 316 CURVE SMOOTH",
"140 99 OFFCURVE",
"277 -1 OFFCURVE",
"567 -1 CURVE SMOOTH",
"617 -1 OFFCURVE",
"719 -2 OFFCURVE",
"801 0 CURVE SMOOTH",
"852 1 OFFCURVE",
"896 0 OFFCURVE",
"910 0 CURVE SMOOTH",
"1199 0 OFFCURVE",
"1352 101 OFFCURVE",
"1352 294 CURVE SMOOTH",
"1352 449 OFFCURVE",
"1245 573 OFFCURVE",
"1110 573 CURVE SMOOTH",
"866 573 OFFCURVE",
"747 293 OFFCURVE",
"919 117 CURVE SMOOTH",
"1000 34 OFFCURVE",
"1152 2 OFFCURVE",
"1459 0 CURVE",
"1459 60 LINE",
"1169 62 OFFCURVE",
"1029 90 OFFCURVE",
"963 159 CURVE SMOOTH",
"829 299 OFFCURVE",
"918 513 OFFCURVE",
"1110 513 CURVE SMOOTH",
"1211 513 OFFCURVE",
"1292 416 OFFCURVE",
"1292 294 CURVE SMOOTH",
"1292 139 OFFCURVE",
"1167 60 OFFCURVE",
"910 60 CURVE SMOOTH",
"896 60 OFFCURVE",
"854 60 OFFCURVE",
"800 60 CURVE SMOOTH",
"720 60 OFFCURVE",
"617 59 OFFCURVE",
"567 59 CURVE SMOOTH",
"308 59 OFFCURVE",
"200 136 OFFCURVE",
"200 316 CURVE SMOOTH",
"200 379 OFFCURVE",
"213 453 OFFCURVE",
"242 549 CURVE",
"184 567 LINE"
);
}
);
width = 1459;
}
);
},
{
glyphname = "fehDotless-ar.fina.001";
layers = (
{
anchors = (
{
name = "#entry";
position = "{1239, 0}";
},
{
name = top;
position = "{970, 603}";
}
);
layerId = "7C6EC3B8-53E3-46D5-865A-ED8DFE2E3A2E";
paths = (
{
closed = 1;
nodes = (
"1086 31 OFFCURVE",
"887 42 OFFCURVE",
"791 142 CURVE SMOOTH",
"629 311 OFFCURVE",
"740 573 OFFCURVE",
"970 573 CURVE SMOOTH",
"1097 573 OFFCURVE",
"1197 455 OFFCURVE",
"1197 309 CURVE SMOOTH",
"1197 126 OFFCURVE",
"1051 30 OFFCURVE",
"770 30 CURVE SMOOTH",
"735 30 OFFCURVE",
"695 30 OFFCURVE",
"649 30 CURVE SMOOTH",
"587 30 OFFCURVE",
"514 29 OFFCURVE",
"427 29 CURVE SMOOTH",
"144 29 OFFCURVE",
"15 125 OFFCURVE",
"15 331 CURVE SMOOTH",
"15 399 OFFCURVE",
"29 480 OFFCURVE",
"58 578 CURVE",
"30 586 LINE",
"0 486 OFFCURVE",
"-15 403 OFFCURVE",
"-15 331 CURVE SMOOTH",
"-15 106 OFFCURVE",
"129 -1 OFFCURVE",
"427 -1 CURVE SMOOTH",
"578 -1 OFFCURVE",
"687 0 OFFCURVE",
"770 0 CURVE SMOOTH",
"1067 0 OFFCURVE",
"1227 107 OFFCURVE",
"1227 309 CURVE SMOOTH",
"1227 472 OFFCURVE",
"1114 603 OFFCURVE",
"970 603 CURVE SMOOTH",
"713 603 OFFCURVE",
"588 309 OFFCURVE",
"769 122 CURVE SMOOTH",
"874 13 OFFCURVE",
"1086 1 OFFCURVE",
"1239 0 CURVE",
"1239 30 LINE"
);
}
);
width = 1239;
},
{
anchors = (
{
name = "#entry";
position = "{1419, 0}";
},
{
name = top;
position = "{1070, 920}";
}
);
layerId = "EA99615A-DD74-4F65-B9DC-480CDB683AEE";
paths = (
{
closed = 1;
nodes = (
"1110 92 OFFCURVE",
"972 125 OFFCURVE",
"901 198 CURVE SMOOTH",
"748 356 OFFCURVE",
"852 603 OFFCURVE",
"1070 603 CURVE SMOOTH",
"1188 603 OFFCURVE",
"1282 493 OFFCURVE",
"1282 354 CURVE SMOOTH",
"1282 180 OFFCURVE",
"1143 90 OFFCURVE",
"870 90 CURVE SMOOTH",
"835 90 OFFCURVE",
"795 90 OFFCURVE",
"748 90 CURVE SMOOTH",
"686 90 OFFCURVE",
"614 89 OFFCURVE",
"527 89 CURVE SMOOTH",
"251 89 OFFCURVE",
"130 179 OFFCURVE",
"130 376 CURVE SMOOTH",
"130 443 OFFCURVE",
"144 520 OFFCURVE",
"173 618 CURVE",
"87 644 LINE",
"55 539 OFFCURVE",
"40 451 OFFCURVE",
"40 376 CURVE SMOOTH",
"40 125 OFFCURVE",
"204 -1 OFFCURVE",
"527 -1 CURVE SMOOTH",
"678 -1 OFFCURVE",
"787 0 OFFCURVE",
"870 0 CURVE SMOOTH",
"1192 0 OFFCURVE",
"1372 125 OFFCURVE",
"1372 354 CURVE SMOOTH",
"1372 542 OFFCURVE",
"1239 693 OFFCURVE",
"1070 693 CURVE SMOOTH",
"773 693 OFFCURVE",
"630 352 OFFCURVE",
"837 136 CURVE SMOOTH",
"927 42 OFFCURVE",
"1084 2 OFFCURVE",
"1419 0 CURVE",
"1419 90 LINE"
);
}
);
width = 1419;
},
{
anchors = (
{
name = "#entry";
position = "{1459, 0}";
},
{
name = top;
position = "{1110, 839}";
}
);
layerId = "9AB624CD-9C19-4372-9845-4C197A276709";
paths = (
{
closed = 1;
nodes = (
"154 465 OFFCURVE",
"140 385 OFFCURVE",
"140 316 CURVE SMOOTH",
"140 99 OFFCURVE",
"277 -1 OFFCURVE",
"567 -1 CURVE SMOOTH",
"617 -1 OFFCURVE",
"719 -2 OFFCURVE",
"801 0 CURVE SMOOTH",
"852 1 OFFCURVE",
"896 0 OFFCURVE",
"910 0 CURVE SMOOTH",
"1199 0 OFFCURVE",
"1352 101 OFFCURVE",
"1352 294 CURVE SMOOTH",
"1352 449 OFFCURVE",
"1245 573 OFFCURVE",
"1110 573 CURVE SMOOTH",
"866 573 OFFCURVE",
"747 293 OFFCURVE",
"919 117 CURVE SMOOTH",
"1000 34 OFFCURVE",
"1152 2 OFFCURVE",
"1459 0 CURVE",
"1459 60 LINE",
"1169 62 OFFCURVE",
"1029 90 OFFCURVE",
"963 159 CURVE SMOOTH",
"829 299 OFFCURVE",
"918 513 OFFCURVE",
"1110 513 CURVE SMOOTH",
"1211 513 OFFCURVE",
"1292 416 OFFCURVE",
"1292 294 CURVE SMOOTH",
"1292 139 OFFCURVE",
"1167 60 OFFCURVE",
"910 60 CURVE SMOOTH",
"896 60 OFFCURVE",
"854 60 OFFCURVE",
"800 60 CURVE SMOOTH",
"720 60 OFFCURVE",
"617 59 OFFCURVE",
"567 59 CURVE SMOOTH",
"308 59 OFFCURVE",
"200 136 OFFCURVE",
"200 316 CURVE SMOOTH",
"200 379 OFFCURVE",
"213 453 OFFCURVE",
"242 549 CURVE",
"184 567 LINE"
);
}
);
width = 1459;
}
);
},
{
glyphname = "fehDotless-ar.fina.002";
layers = (
{
anchors = (
{
name = "#entry";
position = "{1239, 0}";
},
{
name = top;
position = "{970, 603}";
}
);
layerId = "7C6EC3B8-53E3-46D5-865A-ED8DFE2E3A2E";
paths = (
{
closed = 1;
nodes = (
"1086 31 OFFCURVE",
"887 42 OFFCURVE",
"791 142 CURVE SMOOTH",
"629 311 OFFCURVE",
"740 573 OFFCURVE",
"970 573 CURVE SMOOTH",
"1097 573 OFFCURVE",
"1197 455 OFFCURVE",
"1197 309 CURVE SMOOTH",
"1197 126 OFFCURVE",
"1051 30 OFFCURVE",
"770 30 CURVE SMOOTH",
"735 30 OFFCURVE",
"695 30 OFFCURVE",
"649 30 CURVE SMOOTH",
"587 30 OFFCURVE",
"514 29 OFFCURVE",
"427 29 CURVE SMOOTH",
"144 29 OFFCURVE",
"15 125 OFFCURVE",
"15 331 CURVE SMOOTH",
"15 399 OFFCURVE",
"29 480 OFFCURVE",
"58 578 CURVE",
"30 586 LINE",
"0 486 OFFCURVE",
"-15 403 OFFCURVE",
"-15 331 CURVE SMOOTH",
"-15 106 OFFCURVE",
"129 -1 OFFCURVE",
"427 -1 CURVE SMOOTH",
"578 -1 OFFCURVE",
"687 0 OFFCURVE",
"770 0 CURVE SMOOTH",
"1067 0 OFFCURVE",
"1227 107 OFFCURVE",
"1227 309 CURVE SMOOTH",
"1227 472 OFFCURVE",
"1114 603 OFFCURVE",
"970 603 CURVE SMOOTH",
"713 603 OFFCURVE",
"588 309 OFFCURVE",
"769 122 CURVE SMOOTH",
"874 13 OFFCURVE",
"1086 1 OFFCURVE",
"1239 0 CURVE",
"1239 30 LINE"
);
}
);
width = 1239;
},
{
anchors = (
{
name = "#entry";
position = "{1419, 0}";
},
{
name = top;
position = "{1070, 920}";
}
);
layerId = "EA99615A-DD74-4F65-B9DC-480CDB683AEE";
paths = (
{
closed = 1;
nodes = (
"1110 92 OFFCURVE",
"972 125 OFFCURVE",
"901 198 CURVE SMOOTH",
"748 356 OFFCURVE",
"852 603 OFFCURVE",
"1070 603 CURVE SMOOTH",
"1188 603 OFFCURVE",
"1282 493 OFFCURVE",
"1282 354 CURVE SMOOTH",
"1282 180 OFFCURVE",
"1143 90 OFFCURVE",
"870 90 CURVE SMOOTH",
"835 90 OFFCURVE",
"795 90 OFFCURVE",
"748 90 CURVE SMOOTH",
"686 90 OFFCURVE",
"614 89 OFFCURVE",
"527 89 CURVE SMOOTH",
"251 89 OFFCURVE",
"130 179 OFFCURVE",
"130 376 CURVE SMOOTH",
"130 443 OFFCURVE",
"144 520 OFFCURVE",
"173 618 CURVE",
"87 644 LINE",
"55 539 OFFCURVE",
"40 451 OFFCURVE",
"40 376 CURVE SMOOTH",
"40 125 OFFCURVE",
"204 -1 OFFCURVE",
"527 -1 CURVE SMOOTH",
"678 -1 OFFCURVE",
"787 0 OFFCURVE",
"870 0 CURVE SMOOTH",
"1192 0 OFFCURVE",
"1372 125 OFFCURVE",
"1372 354 CURVE SMOOTH",
"1372 542 OFFCURVE",
"1239 693 OFFCURVE",
"1070 693 CURVE SMOOTH",
"773 693 OFFCURVE",
"630 352 OFFCURVE",
"837 136 CURVE SMOOTH",
"927 42 OFFCURVE",
"1084 2 OFFCURVE",
"1419 0 CURVE",
"1419 90 LINE"
);
},
{
closed = 1;
nodes = (
"1892 17 LINE",
"2027 16 OFFCURVE",
"2175 17 OFFCURVE",
"2214 17 CURVE SMOOTH",
"2594 17 OFFCURVE",
"2574 150 OFFCURVE",
"2574 472 CURVE SMOOTH",
"2574 705 OFFCURVE",
"2483 801 OFFCURVE",
"2264 801 CURVE SMOOTH",
"2067 801 OFFCURVE",
"1969 689 OFFCURVE",
"1969 472 CURVE SMOOTH",
"1969 303 OFFCURVE",
"2065 210 OFFCURVE",
"2243 206 CURVE SMOOTH",
"2291 205 OFFCURVE",
"2403 208 OFFCURVE",
"2519 214 CURVE",
"2515 304 LINE",
"2399 298 OFFCURVE",
"2290 295 OFFCURVE",
"2245 296 CURVE SMOOTH",
"2116 299 OFFCURVE",
"2059 353 OFFCURVE",
"2059 472 CURVE SMOOTH",
"2059 641 OFFCURVE",
"2119 711 OFFCURVE",
"2264 711 CURVE SMOOTH",
"2431 711 OFFCURVE",
"2484 655 OFFCURVE",
"2484 472 CURVE SMOOTH",
"2484 144 OFFCURVE",
"2490 107 OFFCURVE",
"2214 107 CURVE SMOOTH",
"2175 107 OFFCURVE",
"2027 106 OFFCURVE",
"1892 107 CURVE"
);
}
);
width = 1419;
},
{
anchors = (
{
name = "#entry";
position = "{1459, 0}";
},
{
name = top;
position = "{1110, 839}";
}
);
layerId = "9AB624CD-9C19-4372-9845-4C197A276709";
paths = (
{
closed = 1;
nodes = (
"154 465 OFFCURVE",
"140 385 OFFCURVE",
"140 316 CURVE SMOOTH",
"140 99 OFFCURVE",
"277 -1 OFFCURVE",
"567 -1 CURVE SMOOTH",
"617 -1 OFFCURVE",
"719 -2 OFFCURVE",
"801 0 CURVE SMOOTH",
"852 1 OFFCURVE",
"896 0 OFFCURVE",
"910 0 CURVE SMOOTH",
"1199 0 OFFCURVE",
"1352 101 OFFCURVE",
"1352 294 CURVE SMOOTH",
"1352 449 OFFCURVE",
"1245 573 OFFCURVE",
"1110 573 CURVE SMOOTH",
"866 573 OFFCURVE",
"747 293 OFFCURVE",
"919 117 CURVE SMOOTH",
"1000 34 OFFCURVE",
"1152 2 OFFCURVE",
"1459 0 CURVE",
"1459 60 LINE",
"1169 62 OFFCURVE",
"1029 90 OFFCURVE",
"963 159 CURVE SMOOTH",
"829 299 OFFCURVE",
"918 513 OFFCURVE",
"1110 513 CURVE SMOOTH",
"1211 513 OFFCURVE",
"1292 416 OFFCURVE",
"1292 294 CURVE SMOOTH",
"1292 139 OFFCURVE",
"1167 60 OFFCURVE",
"910 60 CURVE SMOOTH",
"896 60 OFFCURVE",
"854 60 OFFCURVE",
"800 60 CURVE SMOOTH",
"720 60 OFFCURVE",
"617 59 OFFCURVE",
"567 59 CURVE SMOOTH",
"308 59 OFFCURVE",
"200 136 OFFCURVE",
"200 316 CURVE SMOOTH",
"200 379 OFFCURVE",
"213 453 OFFCURVE",
"242 549 CURVE",
"184 567 LINE"
);
}
);
width = 1459;
}
);
},
{
glyphname = "fehDotless-ar.medi";
layers = (
{
anchors = (
{
name = "#entry";
position = "{600, 0}";
},
{
name = "#exit";
position = "{0, 0}";
},
{
name = bottom;
position = "{328, 0}";
},
{
name = top;
position = "{338, 600}";
}
);
layerId = "7C6EC3B8-53E3-46D5-865A-ED8DFE2E3A2E";
paths = (
{
closed = 1;
nodes = (
"326 30 OFFCURVE",
"109 10 OFFCURVE",
"109 254 CURVE SMOOTH",
"109 435 OFFCURVE",
"208 570 OFFCURVE",
"338 570 CURVE SMOOTH",
"455 570 OFFCURVE",
"555 417 OFFCURVE",
"555 238 CURVE SMOOTH",
"555 88 OFFCURVE",
"449 30 OFFCURVE",
"170 30 CURVE SMOOTH",
"108 30 OFFCURVE",
"49 30 OFFCURVE",
"0 30 CURVE",
"0 0 LINE",
"47 0 OFFCURVE",
"107 0 OFFCURVE",
"170 0 CURVE SMOOTH",
"465 0 OFFCURVE",
"585 67 OFFCURVE",
"585 238 CURVE SMOOTH",
"585 434 OFFCURVE",
"473 600 OFFCURVE",
"338 600 CURVE SMOOTH",
"190 600 OFFCURVE",
"79 451 OFFCURVE",
"79 254 CURVE SMOOTH",
"79 -22 OFFCURVE",
"328 0 OFFCURVE",
"600 0 CURVE",
"600 30 LINE"
);
}
);
width = 600;
},
{
anchors = (
{
name = "#entry";
position = "{890, 0}";
},
{
name = "#exit";
position = "{0, 0}";
},
{
name = top;
position = "{439, 789}";
}
);
layerId = "EA99615A-DD74-4F65-B9DC-480CDB683AEE";
paths = (
{
closed = 1;
nodes = (
"451 12 OFFCURVE",
"752 -22 OFFCURVE",
"754 329 CURVE SMOOTH",
"755 536 OFFCURVE",
"666 655 OFFCURVE",
"451 655 CURVE SMOOTH",
"251 655 OFFCURVE",
"157 537 OFFCURVE",
"157 329 CURVE SMOOTH",
"157 91 OFFCURVE",
"315 13 OFFCURVE",
"890 0 CURVE",
"890 90 LINE",
"362 102 OFFCURVE",
"247 156 OFFCURVE",
"247 329 CURVE SMOOTH",
"247 488 OFFCURVE",
"303 565 OFFCURVE",
"451 565 CURVE SMOOTH",
"615 565 OFFCURVE",
"664 486 OFFCURVE",
"664 329 CURVE SMOOTH",
"664 78 OFFCURVE",
"455 102 OFFCURVE",
"0 90 CURVE",
"0 0 LINE"
);
}
);
width = 890;
},
{
anchors = (
{
name = "#entry";
position = "{640, 0}";
},
{
name = "#exit";
position = "{0, 0}";
},
{
name = bottom;
position = "{327, 0}";
},
{
name = top;
position = "{338, 600}";
}
);
layerId = "9AB624CD-9C19-4372-9845-4C197A276709";
paths = (
{
closed = 1;
nodes = (
"50 0 OFFCURVE",
"107 0 OFFCURVE",
"170 0 CURVE SMOOTH",
"463 0 OFFCURVE",
"585 67 OFFCURVE",
"585 238 CURVE SMOOTH",
"585 434 OFFCURVE",
"473 600 OFFCURVE",
"338 600 CURVE SMOOTH",
"190 600 OFFCURVE",
"79 451 OFFCURVE",
"79 254 CURVE SMOOTH",
"79 -23 OFFCURVE",
"327 0 OFFCURVE",
"640 0 CURVE",
"640 60 LINE",
"325 60 OFFCURVE",
"139 43 OFFCURVE",
"139 254 CURVE SMOOTH",
"139 418 OFFCURVE",
"225 540 OFFCURVE",
"338 540 CURVE SMOOTH",
"436 540 OFFCURVE",
"525 400 OFFCURVE",
"525 238 CURVE SMOOTH",
"525 108 OFFCURVE",
"434 60 OFFCURVE",
"170 60 CURVE SMOOTH",
"109 60 OFFCURVE",
"50 60 OFFCURVE",
"0 60 CURVE",
"0 0 LINE"
);
}
);
width = 640;
}
);
},
{
glyphname = "fehDotless-ar.init";
layers = (
{
anchors = (
{
name = "#entry";
position = "{0, 0}";
},
{
name = bottom;
position = "{300, -5}";
},
{
name = top;
position = "{335, 575}";
}
);
layerId = "7C6EC3B8-53E3-46D5-865A-ED8DFE2E3A2E";
paths = (
{
closed = 1;
nodes = (
"0 0 LINE",
"-1 0 OFFCURVE",
"180 -3 OFFCURVE",
"223 -3 CURVE SMOOTH",
"422 -2 OFFCURVE",
"596 -22 OFFCURVE",
"596 236 CURVE SMOOTH",
"596 409 OFFCURVE",
"502 575 OFFCURVE",
"335 575 CURVE SMOOTH",
"194 575 OFFCURVE",
"65 445 OFFCURVE",
"65 295 CURVE SMOOTH",
"65 153 OFFCURVE",
"149 114 OFFCURVE",
"305 114 CURVE SMOOTH",
"422 114 OFFCURVE",
"527 143 OFFCURVE",
"623 186 CURVE",
"611 213 LINE",
"519 172 OFFCURVE",
"395 144 OFFCURVE",
"305 144 CURVE SMOOTH",
"168 144 OFFCURVE",
"97 171 OFFCURVE",
"95 295 CURVE SMOOTH",
"95 427 OFFCURVE",
"208 545 OFFCURVE",
"335 545 CURVE SMOOTH",
"482 545 OFFCURVE",
"566 394 OFFCURVE",
"566 237 CURVE SMOOTH",
"566 38 OFFCURVE",
"482 23 OFFCURVE",
"223 27 CURVE SMOOTH",
"188 28 OFFCURVE",
"3 30 OFFCURVE",
"0 30 CURVE"
);
}
);
width = 663;
},
{
anchors = (
{
name = "#entry";
position = "{0, 0}";
},
{
name = top;
position = "{367, 942}";
}
);
layerId = "EA99615A-DD74-4F65-B9DC-480CDB683AEE";
paths = (
{
closed = 1;
nodes = (
"0 0 LINE",
"135 -1 OFFCURVE",
"283 0 OFFCURVE",
"322 0 CURVE SMOOTH",
"702 0 OFFCURVE",
"682 133 OFFCURVE",
"682 455 CURVE SMOOTH",
"682 688 OFFCURVE",
"591 784 OFFCURVE",
"372 784 CURVE SMOOTH",
"175 784 OFFCURVE",
"77 672 OFFCURVE",
"77 455 CURVE SMOOTH",
"77 286 OFFCURVE",
"173 193 OFFCURVE",
"351 189 CURVE SMOOTH",
"399 188 OFFCURVE",
"511 191 OFFCURVE",
"627 197 CURVE",
"623 287 LINE",
"507 281 OFFCURVE",
"398 278 OFFCURVE",
"353 279 CURVE SMOOTH",
"224 282 OFFCURVE",
"167 336 OFFCURVE",
"167 455 CURVE SMOOTH",
"167 624 OFFCURVE",
"227 694 OFFCURVE",
"372 694 CURVE SMOOTH",
"539 694 OFFCURVE",
"592 638 OFFCURVE",
"592 455 CURVE SMOOTH",
"592 127 OFFCURVE",
"598 90 OFFCURVE",
"322 90 CURVE SMOOTH",
"283 90 OFFCURVE",
"135 89 OFFCURVE",
"0 90 CURVE"
);
}
);
width = 731;
},
{
anchors = (
{
name = "#entry";
position = "{0, 0}";
},
{
name = bottom;
position = "{284, -4}";
},
{
name = top;
position = "{335, 575}";
}
);
layerId = "9AB624CD-9C19-4372-9845-4C197A276709";
paths = (
{
closed = 1;
nodes = (
"3 0 OFFCURVE",
"187 -2 OFFCURVE",
"222 -3 CURVE SMOOTH",
"516 -11 OFFCURVE",
"596 40 OFFCURVE",
"596 247 CURVE SMOOTH",
"596 440 OFFCURVE",
"486 585 OFFCURVE",
"335 585 CURVE SMOOTH",
"192 585 OFFCURVE",
"65 454 OFFCURVE",
"65 305 CURVE SMOOTH",
"65 174 OFFCURVE",
"136 124 OFFCURVE",
"305 124 CURVE SMOOTH",
"399 124 OFFCURVE",
"528 153 OFFCURVE",
"623 196 CURVE",
"599 250 LINE",
"510 211 OFFCURVE",
"391 184 OFFCURVE",
"305 184 CURVE SMOOTH",
"166 184 OFFCURVE",
"127 212 OFFCURVE",
"125 305 CURVE SMOOTH",
"123 421 OFFCURVE",
"225 525 OFFCURVE",
"335 525 CURVE SMOOTH",
"451 525 OFFCURVE",
"536 407 OFFCURVE",
"536 247 CURVE SMOOTH",
"536 81 OFFCURVE",
"486 50 OFFCURVE",
"224 57 CURVE SMOOTH",
"189 58 OFFCURVE",
"3 60 OFFCURVE",
"0 60 CURVE",
"0 0 LINE"
);
}
);
width = 661;
}
);
},
{
glyphname = "fehDotless-ar.init.001";
layers = (
{
anchors = (
{
name = "#entry";
position = "{0, 0}";
},
{
name = top;
position = "{335, 575}";
}
);
layerId = "7C6EC3B8-53E3-46D5-865A-ED8DFE2E3A2E";
paths = (
{
closed = 1;
nodes = (
"0 0 LINE",
"-1 0 OFFCURVE",
"180 -3 OFFCURVE",
"223 -3 CURVE SMOOTH",
"422 -2 OFFCURVE",
"596 -22 OFFCURVE",
"596 236 CURVE SMOOTH",
"596 409 OFFCURVE",
"502 575 OFFCURVE",
"335 575 CURVE SMOOTH",
"194 575 OFFCURVE",
"65 445 OFFCURVE",
"65 295 CURVE SMOOTH",
"65 153 OFFCURVE",
"149 114 OFFCURVE",
"305 114 CURVE SMOOTH",
"422 114 OFFCURVE",
"527 143 OFFCURVE",
"623 186 CURVE",
"611 213 LINE",
"519 172 OFFCURVE",
"395 144 OFFCURVE",
"305 144 CURVE SMOOTH",
"168 144 OFFCURVE",
"97 171 OFFCURVE",
"95 295 CURVE SMOOTH",
"95 427 OFFCURVE",
"208 545 OFFCURVE",
"335 545 CURVE SMOOTH",
"482 545 OFFCURVE",
"566 394 OFFCURVE",
"566 237 CURVE SMOOTH",
"566 38 OFFCURVE",
"482 23 OFFCURVE",
"223 27 CURVE SMOOTH",
"188 28 OFFCURVE",
"3 30 OFFCURVE",
"0 30 CURVE"
);
}
);
width = 600;
},
{
anchors = (
{
name = "#entry";
position = "{0, 0}";
},
{
name = top;
position = "{367, 840}";
}
);
layerId = "EA99615A-DD74-4F65-B9DC-480CDB683AEE";
paths = (
{
closed = 1;
nodes = (
"273 0 LINE SMOOTH",
"470 0 OFFCURVE",
"691 -64 OFFCURVE",
"691 354 CURVE SMOOTH",
"691 573 OFFCURVE",
"562 738 OFFCURVE",
"385 738 CURVE SMOOTH",
"218 738 OFFCURVE",
"70 586 OFFCURVE",
"70 413 CURVE SMOOTH",
"70 255 OFFCURVE",
"159 187 OFFCURVE",
"355 187 CURVE SMOOTH",
"466 187 OFFCURVE",
"585 212 OFFCURVE",
"665 252 CURVE",
"625 332 LINE",
"556 298 OFFCURVE",
"454 277 OFFCURVE",
"355 277 CURVE SMOOTH",
"206 277 OFFCURVE",
"160 311 OFFCURVE",
"160 413 CURVE SMOOTH",
"160 536 OFFCURVE",
"267 648 OFFCURVE",
"385 648 CURVE SMOOTH",
"509 648 OFFCURVE",
"601 524 OFFCURVE",
"601 354 CURVE SMOOTH",
"601 36 OFFCURVE",
"474 90 OFFCURVE",
"273 90 CURVE SMOOTH",
"0 90 LINE",
"0 0 LINE"
);
}
);
width = 731;
},
{
anchors = (
{
name = "#entry";
position = "{0, 0}";
},
{
name = top;
position = "{385, 793}";
}
);
layerId = "9AB624CD-9C19-4372-9845-4C197A276709";
paths = (
{
closed = 1;
nodes = (
"273 0 LINE SMOOTH",
"474 0 OFFCURVE",
"631 -5 OFFCURVE",
"631 234 CURVE SMOOTH",
"631 420 OFFCURVE",
"527 558 OFFCURVE",
"385 558 CURVE SMOOTH",
"251 558 OFFCURVE",
"130 433 OFFCURVE",
"130 293 CURVE SMOOTH",
"130 171 OFFCURVE",
"192 127 OFFCURVE",
"355 127 CURVE SMOOTH",
"468 127 OFFCURVE",
"551 142 OFFCURVE",
"618 175 CURVE",
"592 229 LINE",
"533 200 OFFCURVE",
"460 187 OFFCURVE",
"355 187 CURVE SMOOTH",
"222 187 OFFCURVE",
"190 210 OFFCURVE",
"190 293 CURVE SMOOTH",
"190 399 OFFCURVE",
"284 498 OFFCURVE",
"385 498 CURVE SMOOTH",
"492 498 OFFCURVE",
"571 387 OFFCURVE",
"571 234 CURVE SMOOTH",
"571 57 OFFCURVE",
"474 60 OFFCURVE",
"273 60 CURVE SMOOTH",
"0 60 LINE",
"0 0 LINE"
);
}
);
width = 661;
}
);
},
{
glyphname = "fehDotless-ar.init.002";
layers = (
{
anchors = (
{
name = "#entry";
position = "{0, 0}";
},
{
name = bottom;
position = "{300, -5}";
},
{
name = top;
position = "{335, 575}";
}
);
layerId = "7C6EC3B8-53E3-46D5-865A-ED8DFE2E3A2E";
paths = (
{
closed = 1;
nodes = (
"0 0 LINE",
"-1 0 OFFCURVE",
"180 -3 OFFCURVE",
"223 -3 CURVE SMOOTH",
"422 -2 OFFCURVE",
"596 -22 OFFCURVE",
"596 236 CURVE SMOOTH",
"596 409 OFFCURVE",
"502 575 OFFCURVE",
"335 575 CURVE SMOOTH",
"194 575 OFFCURVE",
"65 445 OFFCURVE",
"65 295 CURVE SMOOTH",
"65 153 OFFCURVE",
"149 114 OFFCURVE",
"305 114 CURVE SMOOTH",
"422 114 OFFCURVE",
"527 143 OFFCURVE",
"623 186 CURVE",
"611 213 LINE",
"519 172 OFFCURVE",
"395 144 OFFCURVE",
"305 144 CURVE SMOOTH",
"168 144 OFFCURVE",
"97 171 OFFCURVE",
"95 295 CURVE SMOOTH",
"95 427 OFFCURVE",
"208 545 OFFCURVE",
"335 545 CURVE SMOOTH",
"482 545 OFFCURVE",
"566 394 OFFCURVE",
"566 237 CURVE SMOOTH",
"566 38 OFFCURVE",
"482 23 OFFCURVE",
"223 27 CURVE SMOOTH",
"188 28 OFFCURVE",
"3 30 OFFCURVE",
"0 30 CURVE"
);
}
);
width = 663;
},
{
anchors = (
{
name = "#entry";
position = "{0, 0}";
},
{
name = top;
position = "{367, 942}";
}
);
layerId = "EA99615A-DD74-4F65-B9DC-480CDB683AEE";
paths = (
{
closed = 1;
nodes = (
"0 0 LINE",
"135 -1 OFFCURVE",
"283 0 OFFCURVE",
"322 0 CURVE SMOOTH",
"702 0 OFFCURVE",
"682 133 OFFCURVE",
"682 455 CURVE SMOOTH",
"682 688 OFFCURVE",
"591 784 OFFCURVE",
"372 784 CURVE SMOOTH",
"175 784 OFFCURVE",
"77 672 OFFCURVE",
"77 455 CURVE SMOOTH",
"77 286 OFFCURVE",
"173 193 OFFCURVE",
"351 189 CURVE SMOOTH",
"399 188 OFFCURVE",
"511 191 OFFCURVE",
"627 197 CURVE",
"623 287 LINE",
"507 281 OFFCURVE",
"398 278 OFFCURVE",
"353 279 CURVE SMOOTH",
"224 282 OFFCURVE",
"167 336 OFFCURVE",
"167 455 CURVE SMOOTH",
"167 624 OFFCURVE",
"227 694 OFFCURVE",
"372 694 CURVE SMOOTH",
"539 694 OFFCURVE",
"592 638 OFFCURVE",
"592 455 CURVE SMOOTH",
"592 127 OFFCURVE",
"598 90 OFFCURVE",
"322 90 CURVE SMOOTH",
"283 90 OFFCURVE",
"135 89 OFFCURVE",
"0 90 CURVE"
);
}
);
width = 731;
},
{
anchors = (
{
name = "#entry";
position = "{0, 0}";
},
{
name = top;
position = "{385, 793}";
}
);
layerId = "9AB624CD-9C19-4372-9845-4C197A276709";
paths = (
{
closed = 1;
nodes = (
"273 0 LINE SMOOTH",
"474 0 OFFCURVE",
"631 -5 OFFCURVE",
"631 234 CURVE SMOOTH",
"631 420 OFFCURVE",
"527 558 OFFCURVE",
"385 558 CURVE SMOOTH",
"251 558 OFFCURVE",
"130 433 OFFCURVE",
"130 293 CURVE SMOOTH",
"130 171 OFFCURVE",
"192 127 OFFCURVE",
"355 127 CURVE SMOOTH",
"468 127 OFFCURVE",
"551 142 OFFCURVE",
"618 175 CURVE",
"592 229 LINE",
"533 200 OFFCURVE",
"460 187 OFFCURVE",
"355 187 CURVE SMOOTH",
"222 187 OFFCURVE",
"190 210 OFFCURVE",
"190 293 CURVE SMOOTH",
"190 399 OFFCURVE",
"284 498 OFFCURVE",
"385 498 CURVE SMOOTH",
"492 498 OFFCURVE",
"571 387 OFFCURVE",
"571 234 CURVE SMOOTH",
"571 57 OFFCURVE",
"474 60 OFFCURVE",
"273 60 CURVE SMOOTH",
"0 60 LINE",
"0 0 LINE"
);
}
);
width = 661;
}
);
},
{
glyphname = "qafDotless-ar";
layers = (
{
anchors = (
{
name = bottom;
position = "{185, -129}";
},
{
name = top;
position = "{533, 505}";
}
);
layerId = "7C6EC3B8-53E3-46D5-865A-ED8DFE2E3A2E";
paths = (
{
closed = 1;
nodes = (
"-36 -391 OFFCURVE",
"267 -640 OFFCURVE",
"603 -463 CURVE SMOOTH",
"779 -371 OFFCURVE",
"843 -144 OFFCURVE",
"798 196 CURVE SMOOTH",
"773 388 OFFCURVE",
"673 505 OFFCURVE",
"533 505 CURVE SMOOTH",
"393 505 OFFCURVE",
"262 375 OFFCURVE",
"262 225 CURVE SMOOTH",
"265 -5 OFFCURVE",
"581 -52 OFFCURVE",
"844 54 CURVE",
"833 81 LINE",
"591 -15 OFFCURVE",
"295 25 OFFCURVE",
"292 225 CURVE SMOOTH",
"292 357 OFFCURVE",
"407 475 OFFCURVE",
"533 475 CURVE SMOOTH",
"657 475 OFFCURVE",
"745 370 OFFCURVE",
"768 192 CURVE SMOOTH",
"812 -135 OFFCURVE",
"752 -351 OFFCURVE",
"589 -437 CURVE SMOOTH",
"275 -602 OFFCURVE",
"-3 -371 OFFCURVE",
"58 0 CURVE",
"29 5 LINE"
);
}
);
width = 864;
},
{
anchors = (
{
name = "#entry";
position = "{947, 0}";
},
{
name = top;
position = "{625, 909}";
}
);
layerId = "EA99615A-DD74-4F65-B9DC-480CDB683AEE";
paths = (
{
closed = 1;
nodes = (
"496 -564 OFFCURVE",
"558 -564 OFFCURVE",
"597 -561 CURVE SMOOTH",
"930 -538 OFFCURVE",
"954 -293 OFFCURVE",
"954 262 CURVE SMOOTH",
"954 495 OFFCURVE",
"863 591 OFFCURVE",
"644 591 CURVE SMOOTH",
"447 591 OFFCURVE",
"349 479 OFFCURVE",
"349 262 CURVE SMOOTH",
"349 93 OFFCURVE",
"445 0 OFFCURVE",
"623 -4 CURVE SMOOTH",
"671 -5 OFFCURVE",
"783 -2 OFFCURVE",
"899 4 CURVE",
"895 94 LINE",
"779 88 OFFCURVE",
"670 85 OFFCURVE",
"625 86 CURVE SMOOTH",
"496 89 OFFCURVE",
"439 143 OFFCURVE",
"439 262 CURVE SMOOTH",
"439 431 OFFCURVE",
"499 501 OFFCURVE",
"644 501 CURVE SMOOTH",
"811 501 OFFCURVE",
"864 445 OFFCURVE",
"864 262 CURVE SMOOTH",
"864 -237 OFFCURVE",
"856 -453 OFFCURVE",
"591 -469 CURVE SMOOTH",
"545 -472 OFFCURVE",
"489 -472 OFFCURVE",
"450 -469 CURVE SMOOTH",
"166 -448 OFFCURVE",
"166 -326 OFFCURVE",
"171 -50 CURVE",
"81 -48 LINE",
"77 -257 OFFCURVE",
"35 -538 OFFCURVE",
"442 -561 CURVE SMOOTH"
);
}
);
width = 1075;
},
{
anchors = (
{
name = bottom;
position = "{477, -554}";
},
{
name = top;
position = "{603, 535}";
}
);
layerId = "9AB624CD-9C19-4372-9845-4C197A276709";
paths = (
{
closed = 1;
nodes = (
"875 71 LINE",
"609 -24 OFFCURVE",
"364 47 OFFCURVE",
"362 225 CURVE SMOOTH",
"362 356 OFFCURVE",
"477 475 OFFCURVE",
"603 475 CURVE SMOOTH",
"726 475 OFFCURVE",
"815 370 OFFCURVE",
"838 192 CURVE SMOOTH",
"882 -139 OFFCURVE",
"820 -352 OFFCURVE",
"659 -436 CURVE SMOOTH",
"346 -601 OFFCURVE",
"67 -372 OFFCURVE",
"129 0 CURVE",
"69 10 LINE",
"0 -411 OFFCURVE",
"330 -678 OFFCURVE",
"687 -490 CURVE SMOOTH",
"874 -392 OFFCURVE",
"945 -156 OFFCURVE",
"898 200 CURVE SMOOTH",
"871 407 OFFCURVE",
"759 535 OFFCURVE",
"603 535 CURVE SMOOTH",
"444 535 OFFCURVE",
"302 389 OFFCURVE",
"302 225 CURVE SMOOTH",
"305 -8 OFFCURVE",
"609 -101 OFFCURVE",
"953 37 CURVE",
"931 92 LINE",
"875 70 LINE"
);
}
);
width = 1013;
}
);
unicode = 066F;
},
{
glyphname = "qafDotless-ar.001";
layers = (
{
anchors = (
{
name = bottom;
position = "{185, -129}";
},
{
name = top;
position = "{533, 505}";
}
);
layerId = "7C6EC3B8-53E3-46D5-865A-ED8DFE2E3A2E";
paths = (
{
closed = 1;
nodes = (
"-36 -391 OFFCURVE",
"267 -640 OFFCURVE",
"603 -463 CURVE SMOOTH",
"779 -371 OFFCURVE",
"843 -144 OFFCURVE",
"798 196 CURVE SMOOTH",
"773 388 OFFCURVE",
"673 505 OFFCURVE",
"533 505 CURVE SMOOTH",
"393 505 OFFCURVE",
"262 375 OFFCURVE",
"262 225 CURVE SMOOTH",
"265 -5 OFFCURVE",
"581 -52 OFFCURVE",
"844 54 CURVE",
"833 81 LINE",
"591 -15 OFFCURVE",
"295 25 OFFCURVE",
"292 225 CURVE SMOOTH",
"292 357 OFFCURVE",
"407 475 OFFCURVE",
"533 475 CURVE SMOOTH",
"657 475 OFFCURVE",
"745 370 OFFCURVE",
"768 192 CURVE SMOOTH",
"812 -135 OFFCURVE",
"752 -351 OFFCURVE",
"589 -437 CURVE SMOOTH",
"275 -602 OFFCURVE",
"-3 -371 OFFCURVE",
"58 0 CURVE",
"29 5 LINE"
);
}
);
width = 864;
},
{
anchors = (
{
name = "#entry";
position = "{947, 0}";
},
{
name = top;
position = "{625, 909}";
}
);
layerId = "EA99615A-DD74-4F65-B9DC-480CDB683AEE";
paths = (
{
closed = 1;
nodes = (
"496 -564 OFFCURVE",
"558 -564 OFFCURVE",
"597 -561 CURVE SMOOTH",
"930 -538 OFFCURVE",
"954 -293 OFFCURVE",
"954 262 CURVE SMOOTH",
"954 495 OFFCURVE",
"863 591 OFFCURVE",
"644 591 CURVE SMOOTH",
"447 591 OFFCURVE",
"349 479 OFFCURVE",
"349 262 CURVE SMOOTH",
"349 93 OFFCURVE",
"445 0 OFFCURVE",
"623 -4 CURVE SMOOTH",
"671 -5 OFFCURVE",
"783 -2 OFFCURVE",
"899 4 CURVE",
"895 94 LINE",
"779 88 OFFCURVE",
"670 85 OFFCURVE",
"625 86 CURVE SMOOTH",
"496 89 OFFCURVE",
"439 143 OFFCURVE",
"439 262 CURVE SMOOTH",
"439 431 OFFCURVE",
"499 501 OFFCURVE",
"644 501 CURVE SMOOTH",
"811 501 OFFCURVE",
"864 445 OFFCURVE",
"864 262 CURVE SMOOTH",
"864 -237 OFFCURVE",
"856 -453 OFFCURVE",
"591 -469 CURVE SMOOTH",
"545 -472 OFFCURVE",
"489 -472 OFFCURVE",
"450 -469 CURVE SMOOTH",
"166 -448 OFFCURVE",
"166 -326 OFFCURVE",
"171 -50 CURVE",
"81 -48 LINE",
"77 -257 OFFCURVE",
"35 -538 OFFCURVE",
"442 -561 CURVE SMOOTH"
);
}
);
width = 1075;
},
{
anchors = (
{
name = top;
position = "{672, 812}";
}
);
layerId = "9AB624CD-9C19-4372-9845-4C197A276709";
paths = (
{
closed = 1;
nodes = (
"90 -506 OFFCURVE",
"551 -637 OFFCURVE",
"787 -479 CURVE SMOOTH",
"1082 -282 OFFCURVE",
"1011 497 OFFCURVE",
"696 497 CURVE SMOOTH",
"565 497 OFFCURVE",
"440 356 OFFCURVE",
"440 212 CURVE SMOOTH",
"440 15 OFFCURVE",
"716 -60 OFFCURVE",
"971 45 CURVE",
"949 101 LINE",
"735 13 OFFCURVE",
"502 65 OFFCURVE",
"500 212 CURVE",
"500 323 OFFCURVE",
"599 437 OFFCURVE",
"696 437 CURVE SMOOTH",
"948 437 OFFCURVE",
"997 -265 OFFCURVE",
"753 -429 CURVE SMOOTH",
"541 -571 OFFCURVE",
"150 -460 OFFCURVE",
"160 -15 CURVE",
"100 -13 LINE"
);
}
);
width = 1065;
}
);
},
{
glyphname = "qafDotless-ar.fina";
layers = (
{
anchors = (
{
name = "#entry";
position = "{849, 0}";
},
{
name = bottom;
position = "{188, -136}";
},
{
name = top;
position = "{534, 495}";
}
);
layerId = "7C6EC3B8-53E3-46D5-865A-ED8DFE2E3A2E";
paths = (
{
closed = 1;
nodes = (
"-14 -376 OFFCURVE",
"275 -616 OFFCURVE",
"597 -445 CURVE SMOOTH",
"764 -356 OFFCURVE",
"827 -136 OFFCURVE",
"782 199 CURVE SMOOTH",
"757 384 OFFCURVE",
"666 495 OFFCURVE",
"534 495 CURVE SMOOTH",
"344 495 OFFCURVE",
"206 262 OFFCURVE",
"328 108 CURVE SMOOTH",
"422 -11 OFFCURVE",
"629 0 OFFCURVE",
"849 0 CURVE",
"849 30 LINE",
"628 30 OFFCURVE",
"436 19 OFFCURVE",
"352 126 CURVE SMOOTH",
"247 259 OFFCURVE",
"366 465 OFFCURVE",
"534 465 CURVE SMOOTH",
"649 465 OFFCURVE",
"730 365 OFFCURVE",
"752 195 CURVE SMOOTH",
"794 -128 OFFCURVE",
"737 -337 OFFCURVE",
"583 -419 CURVE SMOOTH",
"283 -579 OFFCURVE",
"20 -357 OFFCURVE",
"78 5 CURVE",
"49 10 LINE"
);
}
);
width = 849;
},
{
anchors = (
{
name = "#entry";
position = "{1099, 0}";
},
{
name = top;
position = "{634, 839}";
}
);
components = (
{
name = _connection2;
transform = "{0.50889, 0, 0, 1, 947, 0}";
},
{
name = "qafDotless-ar";
}
);
layerId = "EA99615A-DD74-4F65-B9DC-480CDB683AEE";
width = 1099;
},
{
anchors = (
{
name = "#entry";
position = "{877, 0}";
},
{
name = bottom;
position = "{450, -490}";
},
{
name = top;
position = "{554, 495}";
}
);
layerId = "9AB624CD-9C19-4372-9845-4C197A276709";
paths = (
{
closed = 1;
nodes = (
"6 -377 OFFCURVE",
"295 -617 OFFCURVE",
"617 -445 CURVE SMOOTH",
"784 -357 OFFCURVE",
"845 -137 OFFCURVE",
"802 199 CURVE SMOOTH",
"778 383 OFFCURVE",
"686 495 OFFCURVE",
"554 495 CURVE SMOOTH",
"358 495 OFFCURVE",
"230 257 OFFCURVE",
"348 107 CURVE SMOOTH",
"442 -12 OFFCURVE",
"649 0 OFFCURVE",
"877 0 CURVE",
"877 60 LINE",
"647 60 OFFCURVE",
"470 50 OFFCURVE",
"396 145 CURVE SMOOTH",
"308 255 OFFCURVE",
"407 435 OFFCURVE",
"554 435 CURVE SMOOTH",
"652 435 OFFCURVE",
"722 346 OFFCURVE",
"742 191 CURVE SMOOTH",
"783 -120 OFFCURVE",
"730 -318 OFFCURVE",
"589 -393 CURVE SMOOTH",
"311 -541 OFFCURVE",
"73 -338 OFFCURVE",
"128 0 CURVE",
"68 10 LINE"
);
}
);
width = 877;
}
);
},
{
glyphname = "qafDotless-ar.fina.001";
layers = (
{
anchors = (
{
name = "#entry";
position = "{852, 0}";
},
{
name = top;
position = "{539, 710}";
}
);
layerId = "7C6EC3B8-53E3-46D5-865A-ED8DFE2E3A2E";
paths = (
{
closed = 1;
nodes = (
"-11 -376 OFFCURVE",
"278 -616 OFFCURVE",
"600 -445 CURVE SMOOTH",
"767 -356 OFFCURVE",
"830 -136 OFFCURVE",
"785 199 CURVE SMOOTH",
"760 384 OFFCURVE",
"669 495 OFFCURVE",
"537 495 CURVE SMOOTH",
"347 495 OFFCURVE",
"209 262 OFFCURVE",
"331 108 CURVE SMOOTH",
"425 -11 OFFCURVE",
"632 0 OFFCURVE",
"852 0 CURVE",
"852 30 LINE",
"631 30 OFFCURVE",
"439 19 OFFCURVE",
"355 126 CURVE SMOOTH",
"250 259 OFFCURVE",
"369 465 OFFCURVE",
"537 465 CURVE SMOOTH",
"652 465 OFFCURVE",
"733 365 OFFCURVE",
"755 195 CURVE SMOOTH",
"797 -128 OFFCURVE",
"740 -337 OFFCURVE",
"586 -419 CURVE SMOOTH",
"286 -579 OFFCURVE",
"23 -357 OFFCURVE",
"81 5 CURVE",
"52 10 LINE"
);
}
);
width = 852;
},
{
anchors = (
{
name = "#entry";
position = "{913, 0}";
},
{
name = top;
position = "{534, 839}";
}
);
layerId = "EA99615A-DD74-4F65-B9DC-480CDB683AEE";
paths = (
{
closed = 1;
nodes = (
"652 90 OFFCURVE",
"467 80 OFFCURVE",
"387 181 CURVE SMOOTH",
"292 301 OFFCURVE",
"399 495 OFFCURVE",
"558 495 CURVE SMOOTH",
"834 495 OFFCURVE",
"858 -223 OFFCURVE",
"600 -360 CURVE SMOOTH",
"311 -513 OFFCURVE",
"60 -302 OFFCURVE",
"117 48 CURVE",
"29 62 LINE",
"-40 -360 OFFCURVE",
"287 -629 OFFCURVE",
"642 -440 CURVE SMOOTH",
"980 -260 OFFCURVE",
"941 585 OFFCURVE",
"558 585 CURVE SMOOTH",
"324 585 OFFCURVE",
"176 304 OFFCURVE",
"317 125 CURVE SMOOTH",
"425 -12 OFFCURVE",
"654 0 OFFCURVE",
"913 0 CURVE",
"913 90 LINE"
);
}
);
width = 913;
},
{
anchors = (
{
name = "#entry";
position = "{857, 0}";
},
{
name = top;
position = "{502, 811}";
}
);
layerId = "9AB624CD-9C19-4372-9845-4C197A276709";
paths = (
{
closed = 1;
nodes = (
"15 -333 OFFCURVE",
"283 -556 OFFCURVE",
"555 -448 CURVE SMOOTH",
"856 -328 OFFCURVE",
"852 505 OFFCURVE",
"502 505 CURVE SMOOTH",
"318 505 OFFCURVE",
"177 232 OFFCURVE",
"287 92 CURVE SMOOTH",
"376 -22 OFFCURVE",
"597 0 OFFCURVE",
"857 0 CURVE",
"857 60 LINE",
"595 60 OFFCURVE",
"405 41 OFFCURVE",
"335 130 CURVE SMOOTH",
"256 231 OFFCURVE",
"368 445 OFFCURVE",
"502 445 CURVE SMOOTH",
"783 445 OFFCURVE",
"772 -297 OFFCURVE",
"533 -392 CURVE SMOOTH",
"302 -484 OFFCURVE",
"77 -293 OFFCURVE",
"91 -13 CURVE",
"31 -11 LINE"
);
}
);
width = 857;
}
);
},
{
glyphname = "qafDotless-ar.fina.002";
layers = (
{
anchors = (
{
name = "#entry";
position = "{849, 0}";
},
{
name = bottom;
position = "{188, -136}";
},
{
name = top;
position = "{534, 495}";
}
);
layerId = "7C6EC3B8-53E3-46D5-865A-ED8DFE2E3A2E";
paths = (
{
closed = 1;
nodes = (
"-14 -376 OFFCURVE",
"275 -616 OFFCURVE",
"597 -445 CURVE SMOOTH",
"764 -356 OFFCURVE",
"827 -136 OFFCURVE",
"782 199 CURVE SMOOTH",
"757 384 OFFCURVE",
"666 495 OFFCURVE",
"534 495 CURVE SMOOTH",
"344 495 OFFCURVE",
"206 262 OFFCURVE",
"328 108 CURVE SMOOTH",
"422 -11 OFFCURVE",
"629 0 OFFCURVE",
"849 0 CURVE",
"849 30 LINE",
"628 30 OFFCURVE",
"436 19 OFFCURVE",
"352 126 CURVE SMOOTH",
"247 259 OFFCURVE",
"366 465 OFFCURVE",
"534 465 CURVE SMOOTH",
"649 465 OFFCURVE",
"730 365 OFFCURVE",
"752 195 CURVE SMOOTH",
"794 -128 OFFCURVE",
"737 -337 OFFCURVE",
"583 -419 CURVE SMOOTH",
"283 -579 OFFCURVE",
"20 -357 OFFCURVE",
"78 5 CURVE",
"49 10 LINE"
);
}
);
width = 849;
},
{
anchors = (
{
name = "#entry";
position = "{1099, 0}";
},
{
name = top;
position = "{634, 839}";
}
);
components = (
{
name = _connection2;
transform = "{0.50889, 0, 0, 1, 947, 0}";
},
{
name = "qafDotless-ar";
}
);
layerId = "EA99615A-DD74-4F65-B9DC-480CDB683AEE";
width = 1099;
},
{
anchors = (
{
name = "#entry";
position = "{857, 0}";
},
{
name = top;
position = "{502, 811}";
}
);
layerId = "9AB624CD-9C19-4372-9845-4C197A276709";
paths = (
{
closed = 1;
nodes = (
"15 -333 OFFCURVE",
"283 -556 OFFCURVE",
"555 -448 CURVE SMOOTH",
"856 -328 OFFCURVE",
"852 505 OFFCURVE",
"502 505 CURVE SMOOTH",
"318 505 OFFCURVE",
"177 232 OFFCURVE",
"287 92 CURVE SMOOTH",
"376 -22 OFFCURVE",
"597 0 OFFCURVE",
"857 0 CURVE",
"857 60 LINE",
"595 60 OFFCURVE",
"405 41 OFFCURVE",
"335 130 CURVE SMOOTH",
"256 231 OFFCURVE",
"368 445 OFFCURVE",
"502 445 CURVE SMOOTH",
"783 445 OFFCURVE",
"772 -297 OFFCURVE",
"533 -392 CURVE SMOOTH",
"302 -484 OFFCURVE",
"77 -293 OFFCURVE",
"91 -13 CURVE",
"31 -11 LINE"
);
}
);
width = 857;
}
);
},
{
glyphname = "kaf-ar";
layers = (
{
anchors = (
{
name = bottom;
position = "{506, 0}";
},
{
name = center;
position = "{525, 559}";
},
{
name = top;
position = "{498, 912}";
}
);
components = (
{
name = "hamza-ar";
transform = "{1, 0, 0, 1, 262, 442}";
}
);
layerId = "7C6EC3B8-53E3-46D5-865A-ED8DFE2E3A2E";
paths = (
{
closed = 1;
nodes = (
"-3 194 OFFCURVE",
"164 0 OFFCURVE",
"506 0 CURVE SMOOTH",
"1109 0 OFFCURVE",
"965 356 OFFCURVE",
"965 1007 CURVE",
"935 1007 LINE",
"941 330 OFFCURVE",
"1060 30 OFFCURVE",
"506 30 CURVE SMOOTH",
"182 30 OFFCURVE",
"28 210 OFFCURVE",
"53 559 CURVE",
"23 561 LINE"
);
}
);
width = 1000;
},
{
components = (
{
alignment = -1;
name = "hamza-ar";
transform = "{1, 0, 0, 1, 281, 472}";
}
);
layerId = "EA99615A-DD74-4F65-B9DC-480CDB683AEE";
paths = (
{
closed = 1;
nodes = (
"1015 877 OFFCURVE",
"1022 731 OFFCURVE",
"1022 607 CURVE SMOOTH",
"1022 193 OFFCURVE",
"932 90 OFFCURVE",
"571 90 CURVE SMOOTH",
"218 90 OFFCURVE",
"130 179 OFFCURVE",
"130 533 CURVE SMOOTH",
"130 555 OFFCURVE",
"131 569 OFFCURVE",
"133 603 CURVE",
"43 609 LINE",
"41 573 OFFCURVE",
"40 558 OFFCURVE",
"40 534 CURVE SMOOTH",
"40 107 OFFCURVE",
"146 0 OFFCURVE",
"571 0 CURVE SMOOTH",
"1006 0 OFFCURVE",
"1115 115 OFFCURVE",
"1115 574 CURVE SMOOTH",
"1115 712 OFFCURVE",
"1105 871 OFFCURVE",
"1105 1045 CURVE",
"1015 1045 LINE"
);
}
);
width = 1155;
},
{
anchors = (
{
name = bottom;
position = "{546, 0}";
},
{
name = top;
position = "{572, 889}";
}
);
components = (
{
name = "hamza-ar";
transform = "{1, 0, 0, 1, 278, 399}";
}
);
layerId = "9AB624CD-9C19-4372-9845-4C197A276709";
paths = (
{
closed = 1;
nodes = (
"37 195 OFFCURVE",
"204 0 OFFCURVE",
"546 0 CURVE SMOOTH",
"1041 0 OFFCURVE",
"1032 242 OFFCURVE",
"1013 708 CURVE SMOOTH",
"1010 799 OFFCURVE",
"1006 898 OFFCURVE",
"1005 1007 CURVE",
"945 1007 LINE",
"951 324 OFFCURVE",
"1056 60 OFFCURVE",
"546 60 CURVE SMOOTH",
"240 60 OFFCURVE",
"99 225 OFFCURVE",
"123 557 CURVE",
"63 561 LINE"
);
}
);
width = 1059;
}
);
unicode = 0643;
},
{
glyphname = "kaf-ar.001";
layers = (
{
components = (
{
alignment = -1;
name = "hamza-ar";
transform = "{1, 0, 0, 1, 242, 36}";
}
);
layerId = "7C6EC3B8-53E3-46D5-865A-ED8DFE2E3A2E";
paths = (
{
closed = 1;
nodes = (
"-3 194 OFFCURVE",
"164 0 OFFCURVE",
"506 0 CURVE SMOOTH",
"1109 0 OFFCURVE",
"965 356 OFFCURVE",
"965 1007 CURVE",
"935 1007 LINE",
"941 330 OFFCURVE",
"1060 30 OFFCURVE",
"506 30 CURVE SMOOTH",
"182 30 OFFCURVE",
"28 210 OFFCURVE",
"53 559 CURVE",
"23 561 LINE"
);
}
);
width = 1000;
},
{
components = (
{
alignment = -1;
name = "hamza-ar";
transform = "{1, 0, 0, 1, 281, 16}";
}
);
layerId = "EA99615A-DD74-4F65-B9DC-480CDB683AEE";
paths = (
{
closed = 1;
nodes = (
"1015 413 OFFCURVE",
"1113 90 OFFCURVE",
"571 90 CURVE SMOOTH",
"256 90 OFFCURVE",
"109 261 OFFCURVE",
"133 603 CURVE",
"43 609 LINE",
"15 216 OFFCURVE",
"202 0 OFFCURVE",
"571 0 CURVE SMOOTH",
"1235 0 OFFCURVE",
"1105 427 OFFCURVE",
"1105 1045 CURVE",
"1015 1045 LINE"
);
}
);
width = 1155;
},
{
anchors = (
{
name = top;
position = "{448, 672}";
}
);
components = (
{
name = "hamza-ar";
transform = "{1, 0, 0, 1, 239, 105}";
}
);
layerId = "9AB624CD-9C19-4372-9845-4C197A276709";
paths = (
{
closed = 1;
nodes = (
"30 201 OFFCURVE",
"30 0 OFFCURVE",
"498 0 CURVE SMOOTH",
"1055 0 OFFCURVE",
"972 356 OFFCURVE",
"972 1005 CURVE",
"912 1005 LINE",
"912 350 OFFCURVE",
"979 60 OFFCURVE",
"498 60 CURVE SMOOTH",
"90 60 OFFCURVE",
"90 201 OFFCURVE",
"90 503 CURVE",
"30 503 LINE"
);
}
);
width = 1006;
}
);
},
{
glyphname = "kaf-ar.fina";
layers = (
{
anchors = (
{
name = "#entry";
position = "{1145, 0}";
}
);
components = (
{
name = "kaf-ar";
}
);
layerId = "7C6EC3B8-53E3-46D5-865A-ED8DFE2E3A2E";
paths = (
{
closed = 1;
nodes = (
"949 426 LINE",
"956 99 OFFCURVE",
"1005 0 OFFCURVE",
"1145 0 CURVE",
"1145 30 LINE",
"1024 30 OFFCURVE",
"984 117 OFFCURVE",
"979 447 CURVE"
);
}
);
width = 1145;
},
{
anchors = (
{
name = "#entry";
position = "{1354, 0}";
}
);
components = (
{
name = "kaf-ar";
}
);
layerId = "EA99615A-DD74-4F65-B9DC-480CDB683AEE";
paths = (
{
closed = 1;
nodes = (
"1021 530 LINE",
"1018 314 OFFCURVE",
"1000 0 OFFCURVE",
"1354 0 CURVE",
"1354 90 LINE",
"1075 90 OFFCURVE",
"1115 348 OFFCURVE",
"1115 560 CURVE"
);
}
);
width = 1354;
},
{
anchors = (
{
name = "#entry";
position = "{1323, 0}";
}
);
components = (
{
name = "kaf-ar";
}
);
layerId = "9AB624CD-9C19-4372-9845-4C197A276709";
paths = (
{
closed = 1;
nodes = (
"959 483 LINE",
"957 289 OFFCURVE",
"969 0 OFFCURVE",
"1323 0 CURVE",
"1323 60 LINE",
"1026 60 OFFCURVE",
"1017 301 OFFCURVE",
"1019 486 CURVE"
);
}
);
width = 1323;
}
);
unicode = FEDA;
},
{
glyphname = "kaf-ar.medi";
layers = (
{
anchors = (
{
name = "#entry";
position = "{645, 0}";
},
{
name = "#exit";
position = "{0, 0}";
},
{
name = bottom;
position = "{279, 0}";
},
{
name = top;
position = "{272, 843}";
}
);
components = (
{
name = "kaf-ar.init";
}
);
layerId = "7C6EC3B8-53E3-46D5-865A-ED8DFE2E3A2E";
paths = (
{
closed = 1;
nodes = (
"532 47 OFFCURVE",
"549 0 OFFCURVE",
"645 0 CURVE",
"645 30 LINE",
"569 30 OFFCURVE",
"557 68 OFFCURVE",
"556 196 CURVE",
"528 196 LINE"
);
}
);
width = 645;
},
{
anchors = (
{
name = "#entry";
position = "{1237, 0}";
},
{
name = "#exit";
position = "{0, 0}";
}
);
components = (
{
name = "kaf-ar.init";
}
);
layerId = "EA99615A-DD74-4F65-B9DC-480CDB683AEE";
paths = (
{
closed = 1;
nodes = (
"938 262 LINE",
"937 86 OFFCURVE",
"979 0 OFFCURVE",
"1237 0 CURVE",
"1237 88 LINE",
"1072 88 OFFCURVE",
"1027 114 OFFCURVE",
"1027 265 CURVE"
);
}
);
width = 1237;
},
{
components = (
{
name = _connection2;
transform = "{2.04449, 0, 0, 1, 194, 0}";
},
{
name = "kaf-ar.init";
transform = "{1, 0, 0, 1, 0, -1}";
}
);
layerId = "9AB624CD-9C19-4372-9845-4C197A276709";
width = 615;
},
{
anchors = (
{
name = "#entry";
position = "{1237, 0}";
}
);
associatedMasterId = "EA99615A-DD74-4F65-B9DC-480CDB683AEE";
components = (
{
name = "kaf-ar.init";
}
);
layerId = "93EE32EB-5201-44F1-A6AE-E54E6C826338";
name = "Oct 8 19, 17:37";
paths = (
{
closed = 1;
nodes = (
"938 262 LINE",
"937 86 OFFCURVE",
"979 0 OFFCURVE",
"1237 0 CURVE",
"1237 88 LINE",
"1072 88 OFFCURVE",
"1027 114 OFFCURVE",
"1027 265 CURVE"
);
}
);
width = 1237;
},
{
anchors = (
{
name = "#entry";
position = "{1237, 0}";
}
);
associatedMasterId = "EA99615A-DD74-4F65-B9DC-480CDB683AEE";
components = (
{
name = "kaf-ar.init";
}
);
layerId = "9C00A7CA-FDFB-43B8-9BBB-91AFAF78E1C8";
name = "Oct 8 19, 17:37";
paths = (
{
closed = 1;
nodes = (
"938 262 LINE",
"937 86 OFFCURVE",
"979 0 OFFCURVE",
"1237 0 CURVE",
"1237 88 LINE",
"1072 88 OFFCURVE",
"1027 114 OFFCURVE",
"1027 265 CURVE"
);
}
);
width = 1237;
}
);
unicode = FEDC;
},
{
glyphname = "kaf-ar.medi.001";
layers = (
{
anchors = (
{
name = "#entry";
position = "{789, 0}";
},
{
name = "#exit";
position = "{0, 0}";
},
{
name = bottom;
position = "{357, 0}";
},
{
name = top;
position = "{489, 1084}";
}
);
layerId = "7C6EC3B8-53E3-46D5-865A-ED8DFE2E3A2E";
paths = (
{
closed = 1;
nodes = (
"398 0 LINE SMOOTH",
"504 0 OFFCURVE",
"610 7 OFFCURVE",
"652 82 CURVE",
"665 22 OFFCURVE",
"694 0 OFFCURVE",
"789 0 CURVE",
"789 30 LINE",
"691 30 OFFCURVE",
"675 59 OFFCURVE",
"671 164 CURVE SMOOTH",
"671 339 OFFCURVE",
"491 388 OFFCURVE",
"330 431 CURVE SMOOTH",
"183 470 OFFCURVE",
"54 506 OFFCURVE",
"54 618 CURVE SMOOTH",
"54 723 OFFCURVE",
"314 861 OFFCURVE",
"641 1058 CURVE",
"625 1084 LINE",
"300 887 OFFCURVE",
"24 741 OFFCURVE",
"24 618 CURVE SMOOTH",
"24 339 OFFCURVE",
"641 460 OFFCURVE",
"641 164 CURVE SMOOTH",
"641 40 OFFCURVE",
"532 30 OFFCURVE",
"398 30 CURVE SMOOTH",
"0 30 LINE",
"0 0 LINE"
);
}
);
width = 789;
},
{
anchors = (
{
name = "#entry";
position = "{1237, 0}";
},
{
name = "#exit";
position = "{0, 0}";
}
);
components = (
{
name = "kaf-ar.init";
}
);
layerId = "EA99615A-DD74-4F65-B9DC-480CDB683AEE";
paths = (
{
closed = 1;
nodes = (
"938 262 LINE",
"937 86 OFFCURVE",
"979 0 OFFCURVE",
"1237 0 CURVE",
"1237 88 LINE",
"1072 88 OFFCURVE",
"1027 114 OFFCURVE",
"1027 265 CURVE"
);
}
);
width = 1237;
},
{
components = (
{
name = _connection2;
transform = "{2.04449, 0, 0, 1, 194, 0}";
},
{
name = "kaf-ar.init";
transform = "{1, 0, 0, 1, 0, -1}";
}
);
layerId = "9AB624CD-9C19-4372-9845-4C197A276709";
width = 615;
},
{
anchors = (
{
name = "#entry";
position = "{1237, 0}";
}
);
associatedMasterId = "EA99615A-DD74-4F65-B9DC-480CDB683AEE";
components = (
{
name = "kaf-ar.init";
}
);
layerId = "93EE32EB-5201-44F1-A6AE-E54E6C826338";
name = "Oct 8 19, 17:37";
paths = (
{
closed = 1;
nodes = (
"938 262 LINE",
"937 86 OFFCURVE",
"979 0 OFFCURVE",
"1237 0 CURVE",
"1237 88 LINE",
"1072 88 OFFCURVE",
"1027 114 OFFCURVE",
"1027 265 CURVE"
);
}
);
width = 1237;
},
{
anchors = (
{
name = "#entry";
position = "{1237, 0}";
}
);
associatedMasterId = "EA99615A-DD74-4F65-B9DC-480CDB683AEE";
components = (
{
name = "kaf-ar.init";
}
);
layerId = "9C00A7CA-FDFB-43B8-9BBB-91AFAF78E1C8";
name = "Oct 8 19, 17:37";
paths = (
{
closed = 1;
nodes = (
"938 262 LINE",
"937 86 OFFCURVE",
"979 0 OFFCURVE",
"1237 0 CURVE",
"1237 88 LINE",
"1072 88 OFFCURVE",
"1027 114 OFFCURVE",
"1027 265 CURVE"
);
}
);
width = 1237;
}
);
},
{
glyphname = "kaf-ar.init";
layers = (
{
anchors = (
{
name = "#entry";
position = "{280, 0}";
},
{
name = "#exit";
position = "{0, 0}";
},
{
name = bottom;
position = "{227, 0}";
},
{
name = top;
position = "{295, 879}";
}
);
layerId = "7C6EC3B8-53E3-46D5-865A-ED8DFE2E3A2E";
paths = (
{
closed = 1;
nodes = (
"580 1032 OFFCURVE",
"551 1004 OFFCURVE",
"523 976 CURVE SMOOTH",
"385 838 OFFCURVE",
"238 692 OFFCURVE",
"113 529 CURVE",
"122 505 LINE",
"383 452 OFFCURVE",
"526 342 OFFCURVE",
"526 198 CURVE SMOOTH",
"526 16 OFFCURVE",
"369 25 OFFCURVE",
"0 30 CURVE",
"0 0 LINE",
"367 -5 OFFCURVE",
"556 -16 OFFCURVE",
"556 198 CURVE SMOOTH",
"556 355 OFFCURVE",
"412 471 OFFCURVE",
"151 530 CURVE",
"295 713 OFFCURVE",
"459 868 OFFCURVE",
"632 1041 CURVE",
"610 1063 LINE"
);
}
);
width = 672;
},
{
anchors = (
{
name = "#entry";
position = "{783, 0}";
},
{
name = "#exit";
position = "{0, 0}";
},
{
name = top;
position = "{481, 1161}";
}
);
layerId = "EA99615A-DD74-4F65-B9DC-480CDB683AEE";
paths = (
{
closed = 1;
nodes = (
"861 1090 OFFCURVE",
"748 1090 OFFCURVE",
"678 1090 CURVE SMOOTH",
"600 1090 OFFCURVE",
"556 1090 OFFCURVE",
"436 1090 CURVE SMOOTH",
"144 1090 OFFCURVE",
"8 991 OFFCURVE",
"8 768 CURVE SMOOTH",
"8 602 OFFCURVE",
"112 500 OFFCURVE",
"281 500 CURVE SMOOTH",
"471 500 OFFCURVE",
"610 500 OFFCURVE",
"713 500 CURVE SMOOTH",
"870 500 OFFCURVE",
"937 428 OFFCURVE",
"937 263 CURVE SMOOTH",
"937 204 OFFCURVE",
"941 90 OFFCURVE",
"783 90 CURVE SMOOTH",
"0 90 LINE",
"0 0 LINE",
"783 0 LINE SMOOTH",
"1033 0 OFFCURVE",
"1027 206 OFFCURVE",
"1027 263 CURVE SMOOTH",
"1027 479 OFFCURVE",
"920 590 OFFCURVE",
"713 590 CURVE SMOOTH",
"610 590 OFFCURVE",
"471 590 OFFCURVE",
"281 590 CURVE SMOOTH",
"161 590 OFFCURVE",
"98 652 OFFCURVE",
"98 768 CURVE SMOOTH",
"98 935 OFFCURVE",
"191 1000 OFFCURVE",
"436 1000 CURVE SMOOTH",
"557 1000 OFFCURVE",
"598 1000 OFFCURVE",
"678 1000 CURVE SMOOTH",
"748 1000 OFFCURVE",
"861 1000 OFFCURVE",
"932 1000 CURVE",
"932 1090 LINE"
);
}
);
width = 1067;
},
{
anchors = (
{
name = "#entry";
position = "{194, 0}";
},
{
name = "#exit";
position = "{0, 0}";
},
{
name = bottom;
position = "{355, 0}";
},
{
name = top;
position = "{295, 879}";
}
);
layerId = "9AB624CD-9C19-4372-9845-4C197A276709";
paths = (
{
closed = 1;
nodes = (
"583 1065 OFFCURVE",
"556 1038 OFFCURVE",
"529 1011 CURVE SMOOTH",
"386 868 OFFCURVE",
"250 734 OFFCURVE",
"127 579 CURVE",
"144 531 LINE",
"394 474 OFFCURVE",
"526 368 OFFCURVE",
"526 228 CURVE SMOOTH",
"526 46 OFFCURVE",
"368 60 OFFCURVE",
"0 60 CURVE",
"0 0 LINE",
"366 0 OFFCURVE",
"586 -18 OFFCURVE",
"586 228 CURVE SMOOTH",
"586 390 OFFCURVE",
"451 512 OFFCURVE",
"204 578 CURVE",
"339 744 OFFCURVE",
"492 888 OFFCURVE",
"653 1050 CURVE",
"611 1092 LINE"
);
}
);
width = 713;
}
);
unicode = FEDB;
},
{
glyphname = "kaf-ar.init.001";
layers = (
{
anchors = (
{
name = "#entry";
position = "{351, 0}";
},
{
name = "#exit";
position = "{0, 0}";
}
);
layerId = "7C6EC3B8-53E3-46D5-865A-ED8DFE2E3A2E";
paths = (
{
closed = 1;
nodes = (
"26 0 OFFCURVE",
"193 0 OFFCURVE",
"351 0 CURVE SMOOTH",
"506 0 OFFCURVE",
"647 13 OFFCURVE",
"647 179 CURVE SMOOTH",
"647 362 OFFCURVE",
"474 383 OFFCURVE",
"317 401 CURVE SMOOTH",
"165 418 OFFCURVE",
"30 434 OFFCURVE",
"30 573 CURVE SMOOTH",
"30 669 OFFCURVE",
"282 803 OFFCURVE",
"610 1000 CURVE",
"594 1026 LINE",
"268 829 OFFCURVE",
"0 687 OFFCURVE",
"0 573 CURVE SMOOTH",
"0 241 OFFCURVE",
"617 492 OFFCURVE",
"617 179 CURVE SMOOTH",
"617 41 OFFCURVE",
"494 30 OFFCURVE",
"359 30 CURVE SMOOTH",
"205 30 OFFCURVE",
"28 30 OFFCURVE",
"0 30 CURVE",
"0 0 LINE"
);
}
);
width = 647;
},
{
anchors = (
{
name = "#entry";
position = "{469, 0}";
},
{
name = "#exit";
position = "{0, 0}";
}
);
layerId = "EA99615A-DD74-4F65-B9DC-480CDB683AEE";
paths = (
{
closed = 1;
nodes = (
"139 0 OFFCURVE",
"315 0 OFFCURVE",
"469 0 CURVE SMOOTH",
"606 0 OFFCURVE",
"772 15 OFFCURVE",
"772 194 CURVE SMOOTH",
"772 388 OFFCURVE",
"582 410 OFFCURVE",
"430 428 CURVE SMOOTH",
"274 446 OFFCURVE",
"155 460 OFFCURVE",
"155 588 CURVE SMOOTH",
"155 675 OFFCURVE",
"400 805 OFFCURVE",
"727 1002 CURVE",
"681 1080 LINE",
"356 883 OFFCURVE",
"65 729 OFFCURVE",
"65 588 CURVE SMOOTH",
"65 190 OFFCURVE",
"682 441 OFFCURVE",
"682 194 CURVE SMOOTH",
"682 114 OFFCURVE",
"634 90 OFFCURVE",
"469 90 CURVE SMOOTH",
"316 90 OFFCURVE",
"138 90 OFFCURVE",
"0 90 CURVE",
"0 0 LINE"
);
}
);
width = 792;
},
{
anchors = (
{
name = "#entry";
position = "{429, 0}";
},
{
name = "#exit";
position = "{0, 0}";
}
);
layerId = "9AB624CD-9C19-4372-9845-4C197A276709";
paths = (
{
closed = 1;
nodes = (
"29 0 OFFCURVE",
"274 0 OFFCURVE",
"429 0 CURVE SMOOTH",
"565 0 OFFCURVE",
"717 14 OFFCURVE",
"717 179 CURVE SMOOTH",
"717 360 OFFCURVE",
"541 380 OFFCURVE",
"389 398 CURVE SMOOTH",
"232 416 OFFCURVE",
"100 431 OFFCURVE",
"100 573 CURVE SMOOTH",
"100 669 OFFCURVE",
"353 803 OFFCURVE",
"680 1000 CURVE",
"648 1052 LINE",
"323 855 OFFCURVE",
"40 705 OFFCURVE",
"40 573 CURVE SMOOTH",
"40 378 OFFCURVE",
"225 356 OFFCURVE",
"382 338 CURVE SMOOTH",
"534 321 OFFCURVE",
"657 306 OFFCURVE",
"657 179 CURVE SMOOTH",
"657 88 OFFCURVE",
"602 60 OFFCURVE",
"429 60 CURVE SMOOTH",
"276 60 OFFCURVE",
"28 60 OFFCURVE",
"0 60 CURVE",
"0 0 LINE"
);
}
);
width = 747;
}
);
},
{
glyphname = "kaf-ar.init.002";
layers = (
{
anchors = (
{
name = "#entry";
position = "{404, 0}";
},
{
name = "#exit";
position = "{0, 0}";
}
);
layerId = "7C6EC3B8-53E3-46D5-865A-ED8DFE2E3A2E";
paths = (
{
closed = 1;
nodes = (
"789 996 OFFCURVE",
"631 997 OFFCURVE",
"592 997 CURVE SMOOTH",
"160 997 OFFCURVE",
"40 958 OFFCURVE",
"40 719 CURVE SMOOTH",
"40 543 OFFCURVE",
"122 485 OFFCURVE",
"370 485 CURVE SMOOTH",
"732 485 OFFCURVE",
"815 435 OFFCURVE",
"815 229 CURVE SMOOTH",
"815 217 OFFCURVE",
"815 207 OFFCURVE",
"815 194 CURVE SMOOTH",
"815 62 OFFCURVE",
"738 30 OFFCURVE",
"404 30 CURVE SMOOTH",
"246 30 OFFCURVE",
"26 30 OFFCURVE",
"0 30 CURVE",
"0 0 LINE",
"27 0 OFFCURVE",
"247 0 OFFCURVE",
"404 0 CURVE SMOOTH",
"751 0 OFFCURVE",
"845 39 OFFCURVE",
"845 194 CURVE SMOOTH",
"845 206 OFFCURVE",
"845 218 OFFCURVE",
"845 229 CURVE SMOOTH",
"845 456 OFFCURVE",
"745 515 OFFCURVE",
"370 515 CURVE SMOOTH",
"137 515 OFFCURVE",
"70 562 OFFCURVE",
"70 719 CURVE SMOOTH",
"70 927 OFFCURVE",
"152 967 OFFCURVE",
"592 967 CURVE SMOOTH",
"666 967 OFFCURVE",
"745 966 OFFCURVE",
"825 966 CURVE",
"825 996 LINE"
);
}
);
width = 865;
},
{
anchors = (
{
name = "#entry";
position = "{469, 0}";
},
{
name = "#exit";
position = "{0, 0}";
}
);
layerId = "EA99615A-DD74-4F65-B9DC-480CDB683AEE";
paths = (
{
closed = 1;
nodes = (
"139 0 OFFCURVE",
"315 0 OFFCURVE",
"469 0 CURVE SMOOTH",
"606 0 OFFCURVE",
"772 15 OFFCURVE",
"772 194 CURVE SMOOTH",
"772 388 OFFCURVE",
"582 410 OFFCURVE",
"430 428 CURVE SMOOTH",
"274 446 OFFCURVE",
"155 460 OFFCURVE",
"155 588 CURVE SMOOTH",
"155 675 OFFCURVE",
"400 805 OFFCURVE",
"727 1002 CURVE",
"681 1080 LINE",
"356 883 OFFCURVE",
"65 729 OFFCURVE",
"65 588 CURVE SMOOTH",
"65 190 OFFCURVE",
"682 441 OFFCURVE",
"682 194 CURVE SMOOTH",
"682 114 OFFCURVE",
"634 90 OFFCURVE",
"469 90 CURVE SMOOTH",
"316 90 OFFCURVE",
"138 90 OFFCURVE",
"0 90 CURVE",
"0 0 LINE"
);
}
);
width = 792;
},
{
anchors = (
{
name = "#entry";
position = "{429, 0}";
},
{
name = "#exit";
position = "{0, 0}";
}
);
layerId = "9AB624CD-9C19-4372-9845-4C197A276709";
paths = (
{
closed = 1;
nodes = (
"29 0 OFFCURVE",
"274 0 OFFCURVE",
"429 0 CURVE SMOOTH",
"565 0 OFFCURVE",
"717 14 OFFCURVE",
"717 179 CURVE SMOOTH",
"717 360 OFFCURVE",
"541 380 OFFCURVE",
"389 398 CURVE SMOOTH",
"232 416 OFFCURVE",
"100 431 OFFCURVE",
"100 573 CURVE SMOOTH",
"100 669 OFFCURVE",
"353 803 OFFCURVE",
"680 1000 CURVE",
"648 1052 LINE",
"323 855 OFFCURVE",
"40 705 OFFCURVE",
"40 573 CURVE SMOOTH",
"40 378 OFFCURVE",
"225 356 OFFCURVE",
"382 338 CURVE SMOOTH",
"534 321 OFFCURVE",
"657 306 OFFCURVE",
"657 179 CURVE SMOOTH",
"657 88 OFFCURVE",
"602 60 OFFCURVE",
"429 60 CURVE SMOOTH",
"276 60 OFFCURVE",
"28 60 OFFCURVE",
"0 60 CURVE",
"0 0 LINE"
);
}
);
width = 747;
}
);
},
{
glyphname = "kaf-ar.init.003";
layers = (
{
anchors = (
{
name = "#entry";
position = "{404, 0}";
},
{
name = "#exit";
position = "{0, 0}";
}
);
layerId = "7C6EC3B8-53E3-46D5-865A-ED8DFE2E3A2E";
paths = (
{
closed = 1;
nodes = (
"789 996 OFFCURVE",
"631 997 OFFCURVE",
"592 997 CURVE SMOOTH",
"160 997 OFFCURVE",
"40 958 OFFCURVE",
"40 719 CURVE SMOOTH",
"40 543 OFFCURVE",
"122 485 OFFCURVE",
"370 485 CURVE SMOOTH",
"732 485 OFFCURVE",
"815 435 OFFCURVE",
"815 229 CURVE SMOOTH",
"815 217 OFFCURVE",
"815 207 OFFCURVE",
"815 194 CURVE SMOOTH",
"815 62 OFFCURVE",
"738 30 OFFCURVE",
"404 30 CURVE SMOOTH",
"246 30 OFFCURVE",
"26 30 OFFCURVE",
"0 30 CURVE",
"0 0 LINE",
"27 0 OFFCURVE",
"247 0 OFFCURVE",
"404 0 CURVE SMOOTH",
"751 0 OFFCURVE",
"845 39 OFFCURVE",
"845 194 CURVE SMOOTH",
"845 206 OFFCURVE",
"845 218 OFFCURVE",
"845 229 CURVE SMOOTH",
"845 456 OFFCURVE",
"745 515 OFFCURVE",
"370 515 CURVE SMOOTH",
"137 515 OFFCURVE",
"70 562 OFFCURVE",
"70 719 CURVE SMOOTH",
"70 927 OFFCURVE",
"152 967 OFFCURVE",
"592 967 CURVE SMOOTH",
"666 967 OFFCURVE",
"745 966 OFFCURVE",
"825 966 CURVE",
"825 996 LINE"
);
}
);
width = 865;
},
{
anchors = (
{
name = "#entry";
position = "{469, 0}";
},
{
name = "#exit";
position = "{0, 0}";
}
);
layerId = "EA99615A-DD74-4F65-B9DC-480CDB683AEE";
paths = (
{
closed = 1;
nodes = (
"139 0 OFFCURVE",
"315 0 OFFCURVE",
"469 0 CURVE SMOOTH",
"606 0 OFFCURVE",
"772 15 OFFCURVE",
"772 194 CURVE SMOOTH",
"772 388 OFFCURVE",
"582 410 OFFCURVE",
"430 428 CURVE SMOOTH",
"274 446 OFFCURVE",
"155 460 OFFCURVE",
"155 588 CURVE SMOOTH",
"155 675 OFFCURVE",
"400 805 OFFCURVE",
"727 1002 CURVE",
"681 1080 LINE",
"356 883 OFFCURVE",
"65 729 OFFCURVE",
"65 588 CURVE SMOOTH",
"65 190 OFFCURVE",
"682 441 OFFCURVE",
"682 194 CURVE SMOOTH",
"682 114 OFFCURVE",
"634 90 OFFCURVE",
"469 90 CURVE SMOOTH",
"316 90 OFFCURVE",
"138 90 OFFCURVE",
"0 90 CURVE",
"0 0 LINE"
);
}
);
width = 792;
},
{
anchors = (
{
name = "#entry";
position = "{404, 0}";
},
{
name = "#exit";
position = "{0, 0}";
}
);
layerId = "9AB624CD-9C19-4372-9845-4C197A276709";
paths = (
{
closed = 1;
nodes = (
"660 1026 OFFCURVE",
"778 1027 OFFCURVE",
"592 1027 CURVE SMOOTH",
"161 1027 OFFCURVE",
"40 969 OFFCURVE",
"40 749 CURVE SMOOTH",
"40 566 OFFCURVE",
"116 515 OFFCURVE",
"370 515 CURVE SMOOTH",
"736 515 OFFCURVE",
"815 467 OFFCURVE",
"815 259 CURVE SMOOTH",
"815 247 OFFCURVE",
"815 237 OFFCURVE",
"815 224 CURVE SMOOTH",
"815 92 OFFCURVE",
"743 60 OFFCURVE",
"404 60 CURVE SMOOTH",
"248 60 OFFCURVE",
"27 60 OFFCURVE",
"0 60 CURVE",
"0 0 LINE",
"28 0 OFFCURVE",
"248 0 OFFCURVE",
"404 0 CURVE SMOOTH",
"771 0 OFFCURVE",
"875 46 OFFCURVE",
"875 224 CURVE SMOOTH",
"875 237 OFFCURVE",
"875 248 OFFCURVE",
"875 259 CURVE SMOOTH",
"875 509 OFFCURVE",
"764 575 OFFCURVE",
"370 575 CURVE SMOOTH",
"144 575 OFFCURVE",
"100 606 OFFCURVE",
"100 749 CURVE SMOOTH",
"100 924 OFFCURVE",
"188 967 OFFCURVE",
"592 967 CURVE SMOOTH",
"666 967 OFFCURVE",
"745 966 OFFCURVE",
"825 966 CURVE",
"825 1026 LINE"
);
}
);
width = 905;
}
);
},
{
glyphname = "kaf-ar.init.005";
layers = (
{
anchors = (
{
name = "#entry";
position = "{404, 0}";
},
{
name = "#exit";
position = "{0, 0}";
},
{
name = top;
position = "{500, 1026}";
}
);
layerId = "7C6EC3B8-53E3-46D5-865A-ED8DFE2E3A2E";
paths = (
{
closed = 1;
nodes = (
"789 996 OFFCURVE",
"631 997 OFFCURVE",
"592 997 CURVE SMOOTH",
"160 997 OFFCURVE",
"40 958 OFFCURVE",
"40 719 CURVE SMOOTH",
"40 543 OFFCURVE",
"122 485 OFFCURVE",
"370 485 CURVE SMOOTH",
"732 485 OFFCURVE",
"815 435 OFFCURVE",
"815 229 CURVE SMOOTH",
"815 217 OFFCURVE",
"815 207 OFFCURVE",
"815 194 CURVE SMOOTH",
"815 62 OFFCURVE",
"738 30 OFFCURVE",
"404 30 CURVE SMOOTH",
"246 30 OFFCURVE",
"26 30 OFFCURVE",
"0 30 CURVE",
"0 0 LINE",
"27 0 OFFCURVE",
"247 0 OFFCURVE",
"404 0 CURVE SMOOTH",
"751 0 OFFCURVE",
"845 39 OFFCURVE",
"845 194 CURVE SMOOTH",
"845 206 OFFCURVE",
"845 218 OFFCURVE",
"845 229 CURVE SMOOTH",
"845 456 OFFCURVE",
"745 515 OFFCURVE",
"370 515 CURVE SMOOTH",
"137 515 OFFCURVE",
"70 562 OFFCURVE",
"70 719 CURVE SMOOTH",
"70 927 OFFCURVE",
"152 967 OFFCURVE",
"592 967 CURVE SMOOTH",
"666 967 OFFCURVE",
"745 966 OFFCURVE",
"825 966 CURVE",
"825 996 LINE"
);
}
);
width = 865;
},
{
anchors = (
{
name = "#entry";
position = "{404, 0}";
},
{
name = "#exit";
position = "{0, 0}";
},
{
name = top;
position = "{481, 1161}";
}
);
layerId = "EA99615A-DD74-4F65-B9DC-480CDB683AEE";
paths = (
{
closed = 1;
nodes = (
"148 500 OFFCURVE",
"191 501 OFFCURVE",
"234 501 CURVE SMOOTH",
"278 501 OFFCURVE",
"321 503 OFFCURVE",
"365 503 CURVE SMOOTH",
"788 503 OFFCURVE",
"875 458 OFFCURVE",
"875 268 CURVE SMOOTH",
"875 122 OFFCURVE",
"819 90 OFFCURVE",
"521 90 CURVE SMOOTH",
"485 90 OFFCURVE",
"446 90 OFFCURVE",
"404 90 CURVE SMOOTH",
"247 90 OFFCURVE",
"29 90 OFFCURVE",
"0 90 CURVE",
"0 0 LINE",
"30 0 OFFCURVE",
"247 0 OFFCURVE",
"404 0 CURVE SMOOTH",
"445 0 OFFCURVE",
"484 0 OFFCURVE",
"521 0 CURVE SMOOTH",
"862 0 OFFCURVE",
"965 59 OFFCURVE",
"965 268 CURVE SMOOTH",
"965 524 OFFCURVE",
"831 593 OFFCURVE",
"365 593 CURVE SMOOTH",
"294 593 OFFCURVE",
"222 591 OFFCURVE",
"153 590 CURVE",
"163 949 OFFCURVE",
"303 1034 OFFCURVE",
"864 1034 CURVE",
"864 1124 LINE",
"236 1124 OFFCURVE",
"62 1001 OFFCURVE",
"62 545 CURVE",
"63 527 OFFCURVE",
"74 501 OFFCURVE",
"107 500 CURVE"
);
}
);
width = 1005;
},
{
anchors = (
{
name = "#entry";
position = "{404, 0}";
},
{
name = "#exit";
position = "{0, 0}";
}
);
layerId = "9AB624CD-9C19-4372-9845-4C197A276709";
paths = (
{
closed = 1;
nodes = (
"660 1026 OFFCURVE",
"778 1027 OFFCURVE",
"592 1027 CURVE SMOOTH",
"161 1027 OFFCURVE",
"40 969 OFFCURVE",
"40 749 CURVE SMOOTH",
"40 566 OFFCURVE",
"116 515 OFFCURVE",
"370 515 CURVE SMOOTH",
"736 515 OFFCURVE",
"815 467 OFFCURVE",
"815 259 CURVE SMOOTH",
"815 247 OFFCURVE",
"815 237 OFFCURVE",
"815 224 CURVE SMOOTH",
"815 92 OFFCURVE",
"743 60 OFFCURVE",
"404 60 CURVE SMOOTH",
"248 60 OFFCURVE",
"27 60 OFFCURVE",
"0 60 CURVE",
"0 0 LINE",
"28 0 OFFCURVE",
"248 0 OFFCURVE",
"404 0 CURVE SMOOTH",
"771 0 OFFCURVE",
"875 46 OFFCURVE",
"875 224 CURVE SMOOTH",
"875 237 OFFCURVE",
"875 248 OFFCURVE",
"875 259 CURVE SMOOTH",
"875 509 OFFCURVE",
"764 575 OFFCURVE",
"370 575 CURVE SMOOTH",
"144 575 OFFCURVE",
"100 606 OFFCURVE",
"100 749 CURVE SMOOTH",
"100 924 OFFCURVE",
"188 967 OFFCURVE",
"592 967 CURVE SMOOTH",
"666 967 OFFCURVE",
"745 966 OFFCURVE",
"825 966 CURVE",
"825 1026 LINE"
);
}
);
width = 905;
}
);
},
{
glyphname = "kaf-ar.init.006";
layers = (
{
anchors = (
{
name = "#entry";
position = "{670, 0}";
},
{
name = "#exit";
position = "{0, 0}";
},
{
name = bottom;
position = "{346, 0}";
},
{
name = top;
position = "{489, 1084}";
}
);
layerId = "7C6EC3B8-53E3-46D5-865A-ED8DFE2E3A2E";
paths = (
{
closed = 1;
nodes = (
"68 0 OFFCURVE",
"243 0 OFFCURVE",
"398 0 CURVE SMOOTH",
"534 0 OFFCURVE",
"671 12 OFFCURVE",
"671 164 CURVE SMOOTH",
"671 339 OFFCURVE",
"491 388 OFFCURVE",
"330 431 CURVE SMOOTH",
"183 470 OFFCURVE",
"54 506 OFFCURVE",
"54 618 CURVE SMOOTH",
"54 723 OFFCURVE",
"314 861 OFFCURVE",
"641 1058 CURVE",
"625 1084 LINE",
"300 887 OFFCURVE",
"24 741 OFFCURVE",
"24 618 CURVE SMOOTH",
"24 339 OFFCURVE",
"641 460 OFFCURVE",
"641 164 CURVE SMOOTH",
"641 40 OFFCURVE",
"532 30 OFFCURVE",
"398 30 CURVE SMOOTH",
"244 30 OFFCURVE",
"69 30 OFFCURVE",
"0 30 CURVE",
"0 0 LINE"
);
}
);
width = 711;
},
{
anchors = (
{
name = "#entry";
position = "{783, 0}";
},
{
name = "#exit";
position = "{0, 0}";
},
{
name = top;
position = "{481, 1161}";
}
);
layerId = "EA99615A-DD74-4F65-B9DC-480CDB683AEE";
paths = (
{
closed = 1;
nodes = (
"861 1090 OFFCURVE",
"748 1090 OFFCURVE",
"678 1090 CURVE SMOOTH",
"600 1090 OFFCURVE",
"556 1090 OFFCURVE",
"436 1090 CURVE SMOOTH",
"144 1090 OFFCURVE",
"8 991 OFFCURVE",
"8 768 CURVE SMOOTH",
"8 602 OFFCURVE",
"112 500 OFFCURVE",
"281 500 CURVE SMOOTH",
"471 500 OFFCURVE",
"610 500 OFFCURVE",
"713 500 CURVE SMOOTH",
"870 500 OFFCURVE",
"937 428 OFFCURVE",
"937 263 CURVE SMOOTH",
"937 204 OFFCURVE",
"941 90 OFFCURVE",
"783 90 CURVE SMOOTH",
"0 90 LINE",
"0 0 LINE",
"783 0 LINE SMOOTH",
"1033 0 OFFCURVE",
"1027 206 OFFCURVE",
"1027 263 CURVE SMOOTH",
"1027 479 OFFCURVE",
"920 590 OFFCURVE",
"713 590 CURVE SMOOTH",
"610 590 OFFCURVE",
"471 590 OFFCURVE",
"281 590 CURVE SMOOTH",
"161 590 OFFCURVE",
"98 652 OFFCURVE",
"98 768 CURVE SMOOTH",
"98 935 OFFCURVE",
"191 1000 OFFCURVE",
"436 1000 CURVE SMOOTH",
"557 1000 OFFCURVE",
"598 1000 OFFCURVE",
"678 1000 CURVE SMOOTH",
"748 1000 OFFCURVE",
"861 1000 OFFCURVE",
"932 1000 CURVE",
"932 1090 LINE"
);
}
);
width = 1067;
},
{
anchors = (
{
name = "#entry";
position = "{404, 0}";
},
{
name = "#exit";
position = "{0, 0}";
}
);
layerId = "9AB624CD-9C19-4372-9845-4C197A276709";
paths = (
{
closed = 1;
nodes = (
"660 1026 OFFCURVE",
"778 1027 OFFCURVE",
"592 1027 CURVE SMOOTH",
"161 1027 OFFCURVE",
"40 969 OFFCURVE",
"40 749 CURVE SMOOTH",
"40 566 OFFCURVE",
"116 515 OFFCURVE",
"370 515 CURVE SMOOTH",
"736 515 OFFCURVE",
"815 467 OFFCURVE",
"815 259 CURVE SMOOTH",
"815 247 OFFCURVE",
"815 237 OFFCURVE",
"815 224 CURVE SMOOTH",
"815 92 OFFCURVE",
"743 60 OFFCURVE",
"404 60 CURVE SMOOTH",
"248 60 OFFCURVE",
"27 60 OFFCURVE",
"0 60 CURVE",
"0 0 LINE",
"28 0 OFFCURVE",
"248 0 OFFCURVE",
"404 0 CURVE SMOOTH",
"771 0 OFFCURVE",
"875 46 OFFCURVE",
"875 224 CURVE SMOOTH",
"875 237 OFFCURVE",
"875 248 OFFCURVE",
"875 259 CURVE SMOOTH",
"875 509 OFFCURVE",
"764 575 OFFCURVE",
"370 575 CURVE SMOOTH",
"144 575 OFFCURVE",
"100 606 OFFCURVE",
"100 749 CURVE SMOOTH",
"100 924 OFFCURVE",
"188 967 OFFCURVE",
"592 967 CURVE SMOOTH",
"666 967 OFFCURVE",
"745 966 OFFCURVE",
"825 966 CURVE",
"825 1026 LINE"
);
}
);
width = 905;
}
);
},
{
glyphname = "kaf-ar.init.007";
layers = (
{
anchors = (
{
name = "#entry";
position = "{670, 0}";
},
{
name = "#exit";
position = "{145, -62}";
},
{
name = bottom;
position = "{346, 0}";
},
{
name = top;
position = "{489, 1084}";
}
);
layerId = "7C6EC3B8-53E3-46D5-865A-ED8DFE2E3A2E";
paths = (
{
closed = 0;
nodes = (
"67 40 LINE",
"223 40 OFFCURVE",
"349 40 OFFCURVE",
"424 40 CURVE SMOOTH",
"622 40 OFFCURVE",
"717 143 OFFCURVE",
"717 252 CURVE SMOOTH",
"717 375 OFFCURVE",
"596 506 OFFCURVE",
"366 506 CURVE SMOOTH",
"289 506 OFFCURVE",
"355 506 OFFCURVE",
"212 506 CURVE",
"459 766 OFFCURVE",
"481 807 OFFCURVE",
"748 1063 CURVE"
);
},
{
closed = 0;
nodes = (
"720 0 LINE",
"1069 11 OFFCURVE",
"1201 74 OFFCURVE",
"1201 215 CURVE SMOOTH",
"1201 349 OFFCURVE",
"1070 419 OFFCURVE",
"773 477 CURVE",
"930 684 OFFCURVE",
"1072 815 OFFCURVE",
"1255 1000 CURVE"
);
}
);
width = 711;
},
{
anchors = (
{
name = "#entry";
position = "{783, 0}";
},
{
name = "#exit";
position = "{0, 0}";
},
{
name = top;
position = "{481, 1161}";
}
);
layerId = "EA99615A-DD74-4F65-B9DC-480CDB683AEE";
paths = (
{
closed = 1;
nodes = (
"861 1090 OFFCURVE",
"748 1090 OFFCURVE",
"678 1090 CURVE SMOOTH",
"600 1090 OFFCURVE",
"556 1090 OFFCURVE",
"436 1090 CURVE SMOOTH",
"144 1090 OFFCURVE",
"8 991 OFFCURVE",
"8 768 CURVE SMOOTH",
"8 602 OFFCURVE",
"112 500 OFFCURVE",
"281 500 CURVE SMOOTH",
"471 500 OFFCURVE",
"610 500 OFFCURVE",
"713 500 CURVE SMOOTH",
"870 500 OFFCURVE",
"937 428 OFFCURVE",
"937 263 CURVE SMOOTH",
"937 204 OFFCURVE",
"941 90 OFFCURVE",
"783 90 CURVE SMOOTH",
"0 90 LINE",
"0 0 LINE",
"783 0 LINE SMOOTH",
"1033 0 OFFCURVE",
"1027 206 OFFCURVE",
"1027 263 CURVE SMOOTH",
"1027 479 OFFCURVE",
"920 590 OFFCURVE",
"713 590 CURVE SMOOTH",
"610 590 OFFCURVE",
"471 590 OFFCURVE",
"281 590 CURVE SMOOTH",
"161 590 OFFCURVE",
"98 652 OFFCURVE",
"98 768 CURVE SMOOTH",
"98 935 OFFCURVE",
"191 1000 OFFCURVE",
"436 1000 CURVE SMOOTH",
"557 1000 OFFCURVE",
"598 1000 OFFCURVE",
"678 1000 CURVE SMOOTH",
"748 1000 OFFCURVE",
"861 1000 OFFCURVE",
"932 1000 CURVE",
"932 1090 LINE"
);
}
);
width = 1067;
},
{
anchors = (
{
name = "#entry";
position = "{404, 0}";
},
{
name = "#exit";
position = "{0, 0}";
}
);
layerId = "9AB624CD-9C19-4372-9845-4C197A276709";
paths = (
{
closed = 1;
nodes = (
"660 1026 OFFCURVE",
"778 1027 OFFCURVE",
"592 1027 CURVE SMOOTH",
"161 1027 OFFCURVE",
"40 969 OFFCURVE",
"40 749 CURVE SMOOTH",
"40 566 OFFCURVE",
"116 515 OFFCURVE",
"370 515 CURVE SMOOTH",
"736 515 OFFCURVE",
"815 467 OFFCURVE",
"815 259 CURVE SMOOTH",
"815 247 OFFCURVE",
"815 237 OFFCURVE",
"815 224 CURVE SMOOTH",
"815 92 OFFCURVE",
"743 60 OFFCURVE",
"404 60 CURVE SMOOTH",
"248 60 OFFCURVE",
"27 60 OFFCURVE",
"0 60 CURVE",
"0 0 LINE",
"28 0 OFFCURVE",
"248 0 OFFCURVE",
"404 0 CURVE SMOOTH",
"771 0 OFFCURVE",
"875 46 OFFCURVE",
"875 224 CURVE SMOOTH",
"875 237 OFFCURVE",
"875 248 OFFCURVE",
"875 259 CURVE SMOOTH",
"875 509 OFFCURVE",
"764 575 OFFCURVE",
"370 575 CURVE SMOOTH",
"144 575 OFFCURVE",
"100 606 OFFCURVE",
"100 749 CURVE SMOOTH",
"100 924 OFFCURVE",
"188 967 OFFCURVE",
"592 967 CURVE SMOOTH",
"666 967 OFFCURVE",
"745 966 OFFCURVE",
"825 966 CURVE",
"825 1026 LINE"
);
}
);
width = 905;
}
);
},
{
glyphname = "lam-ar";
layers = (
{
anchors = (
{
name = "#entry";
position = "{985, 0}";
},
{
name = bottom;
position = "{218, -129}";
},
{
name = top;
position = "{501, 904}";
}
);
layerId = "7C6EC3B8-53E3-46D5-865A-ED8DFE2E3A2E";
paths = (
{
closed = 1;
nodes = (
"17 -298 OFFCURVE",
"184 -492 OFFCURVE",
"526 -492 CURVE SMOOTH",
"784 -492 OFFCURVE",
"991 -369 OFFCURVE",
"997 -205 CURVE SMOOTH",
"998 -178 OFFCURVE",
"995 -106 OFFCURVE",
"992 -39 CURVE SMOOTH",
"990 12 OFFCURVE",
"987 60 OFFCURVE",
"987 84 CURVE SMOOTH",
"982 769 OFFCURVE",
"987 860 OFFCURVE",
"985 1075 CURVE",
"955 1075 LINE",
"957 860 OFFCURVE",
"952 769 OFFCURVE",
"957 84 CURVE SMOOTH",
"957 26 OFFCURVE",
"970 -159 OFFCURVE",
"967 -203 CURVE SMOOTH",
"957 -349 OFFCURVE",
"768 -462 OFFCURVE",
"526 -462 CURVE SMOOTH",
"202 -462 OFFCURVE",
"48 -282 OFFCURVE",
"73 67 CURVE",
"43 69 LINE"
);
}
);
width = 1037;
},
{
anchors = (
{
name = "#entry";
position = "{1092, -1}";
},
{
name = top;
position = "{343, 500}";
}
);
layerId = "EA99615A-DD74-4F65-B9DC-480CDB683AEE";
paths = (
{
closed = 1;
nodes = (
"1001 660 OFFCURVE",
"1004 460 OFFCURVE",
"1004 268 CURVE SMOOTH",
"1004 -282 OFFCURVE",
"1020 -447 OFFCURVE",
"571 -447 CURVE SMOOTH",
"256 -447 OFFCURVE",
"106 -272 OFFCURVE",
"133 65 CURVE",
"43 73 LINE",
"12 -317 OFFCURVE",
"203 -537 OFFCURVE",
"571 -537 CURVE SMOOTH",
"1120 -537 OFFCURVE",
"1094 -278 OFFCURVE",
"1094 268 CURVE SMOOTH",
"1094 460 OFFCURVE",
"1091 662 OFFCURVE",
"1086 1001 CURVE",
"996 999 LINE"
);
}
);
width = 1099;
},
{
anchors = (
{
name = "#entry";
position = "{973, 0}";
},
{
name = bottom;
position = "{526, -492}";
},
{
name = top;
position = "{526, 500}";
}
);
layerId = "9AB624CD-9C19-4372-9845-4C197A276709";
paths = (
{
closed = 1;
nodes = (
"17 -297 OFFCURVE",
"184 -492 OFFCURVE",
"526 -492 CURVE SMOOTH",
"980 -492 OFFCURVE",
"987 -338 OFFCURVE",
"987 84 CURVE SMOOTH",
"984 510 OFFCURVE",
"985 706 OFFCURVE",
"985 845 CURVE SMOOTH",
"986 930 OFFCURVE",
"986 994 OFFCURVE",
"985 1075 CURVE",
"925 1075 LINE",
"927 861 OFFCURVE",
"922 770 OFFCURVE",
"927 84 CURVE SMOOTH",
"927 -336 OFFCURVE",
"922 -432 OFFCURVE",
"526 -432 CURVE SMOOTH",
"220 -432 OFFCURVE",
"79 -267 OFFCURVE",
"103 65 CURVE",
"43 69 LINE"
);
}
);
width = 1027;
}
);
unicode = 0644;
},
{
glyphname = "lam-ar.fina";
layers = (
{
anchors = (
{
name = "#entry";
position = "{1055, 0}";
}
);
components = (
{
name = _connector_light;
transform = "{1, 0, 0, 1, 691, 0}";
},
{
name = "lam-ar";
}
);
layerId = "7C6EC3B8-53E3-46D5-865A-ED8DFE2E3A2E";
width = 1075;
},
{
anchors = (
{
name = "#entry";
position = "{1304, 0}";
}
);
components = (
{
name = "lam-ar";
}
);
layerId = "EA99615A-DD74-4F65-B9DC-480CDB683AEE";
paths = (
{
closed = 1;
nodes = (
"1005 270 LINE",
"1004 86 OFFCURVE",
"1046 0 OFFCURVE",
"1304 0 CURVE",
"1304 90 LINE",
"1138 90 OFFCURVE",
"1095 116 OFFCURVE",
"1094 279 CURVE"
);
}
);
width = 1304;
},
{
anchors = (
{
name = "#entry";
position = "{1103, 0}";
}
);
components = (
{
name = "lam-ar";
}
);
layerId = "9AB624CD-9C19-4372-9845-4C197A276709";
paths = (
{
closed = 1;
nodes = (
"927 162 LINE",
"932 48 OFFCURVE",
"985 0 OFFCURVE",
"1103 0 CURVE",
"1103 60 LINE",
"1019 60 OFFCURVE",
"990 84 OFFCURVE",
"986 164 CURVE"
);
}
);
width = 1103;
},
{
anchors = (
{
name = "#entry";
position = "{1304, 0}";
}
);
associatedMasterId = "EA99615A-DD74-4F65-B9DC-480CDB683AEE";
components = (
{
name = "lam-ar";
}
);
layerId = "AC108812-BB78-4A2F-B707-EA0417E06D99";
name = "Oct 8 19, 17:37";
paths = (
{
closed = 1;
nodes = (
"1005 270 LINE",
"1004 86 OFFCURVE",
"1046 0 OFFCURVE",
"1304 0 CURVE",
"1304 90 LINE",
"1138 90 OFFCURVE",
"1095 116 OFFCURVE",
"1094 279 CURVE"
);
}
);
width = 1304;
},
{
anchors = (
{
name = "#entry";
position = "{1304, 0}";
}
);
associatedMasterId = "EA99615A-DD74-4F65-B9DC-480CDB683AEE";
components = (
{
name = "lam-ar";
}
);
layerId = "9EC9E54E-08DB-44D5-B081-C0C8591B43A3";
name = "Oct 8 19, 17:37";
paths = (
{
closed = 1;
nodes = (
"1005 270 LINE",
"1004 86 OFFCURVE",
"1046 0 OFFCURVE",
"1304 0 CURVE",
"1304 90 LINE",
"1138 90 OFFCURVE",
"1095 116 OFFCURVE",
"1094 279 CURVE"
);
}
);
width = 1304;
},
{
anchors = (
{
name = "#entry";
position = "{1304, 0}";
}
);
associatedMasterId = "EA99615A-DD74-4F65-B9DC-480CDB683AEE";
components = (
{
name = "lam-ar";
}
);
layerId = "F3F2F559-9A5F-42B8-8E89-FEA150E53A71";
name = "Oct 8 19, 17:37";
paths = (
{
closed = 1;
nodes = (
"1005 270 LINE",
"1004 86 OFFCURVE",
"1046 0 OFFCURVE",
"1304 0 CURVE",
"1304 90 LINE",
"1138 90 OFFCURVE",
"1095 116 OFFCURVE",
"1094 279 CURVE"
);
}
);
width = 1304;
},
{
anchors = (
{
name = "#entry";
position = "{1304, 0}";
}
);
associatedMasterId = "EA99615A-DD74-4F65-B9DC-480CDB683AEE";
components = (
{
name = "lam-ar";
}
);
layerId = "8D304D02-1D56-439B-8902-D9CADE17CD4D";
name = "Oct 8 19, 17:37";
paths = (
{
closed = 1;
nodes = (
"1005 270 LINE",
"1004 86 OFFCURVE",
"1046 0 OFFCURVE",
"1304 0 CURVE",
"1304 90 LINE",
"1138 90 OFFCURVE",
"1095 116 OFFCURVE",
"1094 279 CURVE"
);
}
);
width = 1304;
},
{
anchors = (
{
name = "#entry";
position = "{1304, 0}";
}
);
associatedMasterId = "EA99615A-DD74-4F65-B9DC-480CDB683AEE";
components = (
{
name = "lam-ar";
}
);
layerId = "9915075C-EE3F-4FD1-9E1B-473863A6C77E";
name = "Oct 8 19, 17:37";
paths = (
{
closed = 1;
nodes = (
"1005 270 LINE",
"1004 86 OFFCURVE",
"1046 0 OFFCURVE",
"1304 0 CURVE",
"1304 90 LINE",
"1138 90 OFFCURVE",
"1095 116 OFFCURVE",
"1094 279 CURVE"
);
}
);
width = 1304;
},
{
anchors = (
{
name = "#entry";
position = "{1304, 0}";
}
);
associatedMasterId = "EA99615A-DD74-4F65-B9DC-480CDB683AEE";
components = (
{
name = "lam-ar";
}
);
layerId = "1646355C-6AD9-4ADA-A1EE-F5952AFA7205";
name = "Oct 8 19, 17:37";
paths = (
{
closed = 1;
nodes = (
"1005 270 LINE",
"1004 86 OFFCURVE",
"1046 0 OFFCURVE",
"1304 0 CURVE",
"1304 90 LINE",
"1138 90 OFFCURVE",
"1095 116 OFFCURVE",
"1094 279 CURVE"
);
}
);
width = 1304;
}
);
unicode = FEDE;
},
{
glyphname = "lam-ar.medi";
layers = (
{
anchors = (
{
name = "#entry";
position = "{296, -1}";
},
{
name = "#exit";
position = "{0, 0}";
},
{
name = bottom;
position = "{162, 0}";
},
{
name = top;
position = "{167, 1041}";
}
);
layerId = "7C6EC3B8-53E3-46D5-865A-ED8DFE2E3A2E";
paths = (
{
closed = 1;
nodes = (
"142 82 OFFCURVE",
"129 0 OFFCURVE",
"297 0 CURVE",
"297 30 LINE",
"162 30 OFFCURVE",
"172 98 OFFCURVE",
"172 202 CURVE SMOOTH",
"172 602 OFFCURVE",
"175 937 OFFCURVE",
"179 1039 CURVE",
"149 1041 LINE",
"145 937 OFFCURVE",
"142 602 OFFCURVE",
"142 202 CURVE SMOOTH"
);
},
{
closed = 1;
nodes = (
"141 2 OFFCURVE",
"172 1 OFFCURVE",
"172 226 CURVE",
"142 226 LINE",
"142 29 OFFCURVE",
"120 31 OFFCURVE",
"0 30 CURVE",
"0 0 LINE"
);
}
);
width = 297;
},
{
anchors = (
{
name = "#entry";
position = "{498, 0}";
},
{
name = "#exit";
position = "{0, 0}";
}
);
layerId = "EA99615A-DD74-4F65-B9DC-480CDB683AEE";
paths = (
{
closed = 1;
nodes = (
"219 683 OFFCURVE",
"218 648 OFFCURVE",
"218 247 CURVE SMOOTH",
"218 91 OFFCURVE",
"319 0 OFFCURVE",
"498 0 CURVE",
"498 90 LINE",
"370 90 OFFCURVE",
"308 140 OFFCURVE",
"308 247 CURVE SMOOTH",
"308 646 OFFCURVE",
"309 683 OFFCURVE",
"298 1085 CURVE",
"208 1083 LINE"
);
},
{
closed = 1;
nodes = (
"218 162 OFFCURVE",
"143 90 OFFCURVE",
"0 90 CURVE",
"0 0 LINE",
"197 0 OFFCURVE",
"308 108 OFFCURVE",
"308 301 CURVE",
"218 301 LINE"
);
}
);
width = 498;
},
{
anchors = (
{
name = "#entry";
position = "{378, 0}";
},
{
name = "#exit";
position = "{0, 0}";
},
{
name = bottom;
position = "{193, 0}";
},
{
name = top;
position = "{180, 1000}";
}
);
layerId = "9AB624CD-9C19-4372-9845-4C197A276709";
paths = (
{
closed = 1;
nodes = (
"157 622 OFFCURVE",
"155 586 OFFCURVE",
"158 187 CURVE SMOOTH",
"159 64 OFFCURVE",
"193 0 OFFCURVE",
"378 0 CURVE",
"378 60 LINE",
"248 60 OFFCURVE",
"219 96 OFFCURVE",
"218 187 CURVE SMOOTH",
"214 586 OFFCURVE",
"217 624 OFFCURVE",
"208 996 CURVE",
"148 994 LINE"
);
},
{
closed = 1;
nodes = (
"142 0 OFFCURVE",
"218 2 OFFCURVE",
"218 211 CURVE",
"158 211 LINE",
"158 60 OFFCURVE",
"142 60 OFFCURVE",
"0 60 CURVE",
"0 0 LINE"
);
}
);
width = 378;
},
{
anchors = (
{
name = "#entry";
position = "{498, 0}";
},
{
name = "#exit";
position = "{0, 0}";
}
);
associatedMasterId = "EA99615A-DD74-4F65-B9DC-480CDB683AEE";
layerId = "0F76ED8C-129B-4EC9-BB5C-0BE3B16ACD28";
name = "Oct 8 19, 17:37";
paths = (
{
closed = 1;
nodes = (
"219 683 OFFCURVE",
"218 648 OFFCURVE",
"218 247 CURVE SMOOTH",
"218 91 OFFCURVE",
"319 0 OFFCURVE",
"498 0 CURVE",
"498 90 LINE",
"370 90 OFFCURVE",
"308 140 OFFCURVE",
"308 247 CURVE SMOOTH",
"308 646 OFFCURVE",
"309 683 OFFCURVE",
"298 1085 CURVE",
"208 1083 LINE"
);
},
{
closed = 1;
nodes = (
"218 162 OFFCURVE",
"143 90 OFFCURVE",
"0 90 CURVE",
"0 0 LINE",
"197 0 OFFCURVE",
"308 108 OFFCURVE",
"308 301 CURVE",
"218 301 LINE"
);
}
);
width = 498;
},
{
anchors = (
{
name = "#entry";
position = "{498, 0}";
},
{
name = "#exit";
position = "{0, 0}";
}
);
associatedMasterId = "EA99615A-DD74-4F65-B9DC-480CDB683AEE";
layerId = "E9A93749-BC19-426D-9381-CC93148709D7";
name = "Oct 8 19, 17:37";
paths = (
{
closed = 1;
nodes = (
"219 683 OFFCURVE",
"218 648 OFFCURVE",
"218 247 CURVE SMOOTH",
"218 91 OFFCURVE",
"319 0 OFFCURVE",
"498 0 CURVE",
"498 90 LINE",
"370 90 OFFCURVE",
"308 140 OFFCURVE",
"308 247 CURVE SMOOTH",
"308 646 OFFCURVE",
"309 683 OFFCURVE",
"298 1085 CURVE",
"208 1083 LINE"
);
},
{
closed = 1;
nodes = (
"218 162 OFFCURVE",
"143 90 OFFCURVE",
"0 90 CURVE",
"0 0 LINE",
"197 0 OFFCURVE",
"308 108 OFFCURVE",
"308 301 CURVE",
"218 301 LINE"
);
}
);
width = 498;
},
{
anchors = (
{
name = "#entry";
position = "{498, 0}";
},
{
name = "#exit";
position = "{0, 0}";
}
);
associatedMasterId = "EA99615A-DD74-4F65-B9DC-480CDB683AEE";
layerId = "2172C9FA-961F-40C1-A21B-564807748C75";
name = "Oct 8 19, 17:37";
paths = (
{
closed = 1;
nodes = (
"219 683 OFFCURVE",
"218 648 OFFCURVE",
"218 247 CURVE SMOOTH",
"218 91 OFFCURVE",
"319 0 OFFCURVE",
"498 0 CURVE",
"498 90 LINE",
"370 90 OFFCURVE",
"308 140 OFFCURVE",
"308 247 CURVE SMOOTH",
"308 646 OFFCURVE",
"309 683 OFFCURVE",
"298 1085 CURVE",
"208 1083 LINE"
);
},
{
closed = 1;
nodes = (
"218 162 OFFCURVE",
"143 90 OFFCURVE",
"0 90 CURVE",
"0 0 LINE",
"197 0 OFFCURVE",
"308 108 OFFCURVE",
"308 301 CURVE",
"218 301 LINE"
);
}
);
width = 498;
},
{
anchors = (
{
name = "#entry";
position = "{498, 0}";
},
{
name = "#exit";
position = "{0, 0}";
}
);
associatedMasterId = "EA99615A-DD74-4F65-B9DC-480CDB683AEE";
layerId = "4A7D0B93-B9D7-4F1F-B028-CB93E8CB5DE0";
name = "Oct 8 19, 17:37";
paths = (
{
closed = 1;
nodes = (
"219 683 OFFCURVE",
"218 648 OFFCURVE",
"218 247 CURVE SMOOTH",
"218 91 OFFCURVE",
"319 0 OFFCURVE",
"498 0 CURVE",
"498 90 LINE",
"370 90 OFFCURVE",
"308 140 OFFCURVE",
"308 247 CURVE SMOOTH",
"308 646 OFFCURVE",
"309 683 OFFCURVE",
"298 1085 CURVE",
"208 1083 LINE"
);
},
{
closed = 1;
nodes = (
"218 162 OFFCURVE",
"143 90 OFFCURVE",
"0 90 CURVE",
"0 0 LINE",
"197 0 OFFCURVE",
"308 108 OFFCURVE",
"308 301 CURVE",
"218 301 LINE"
);
}
);
width = 498;
},
{
anchors = (
{
name = "#entry";
position = "{498, 0}";
},
{
name = "#exit";
position = "{0, 0}";
}
);
associatedMasterId = "EA99615A-DD74-4F65-B9DC-480CDB683AEE";
layerId = "49658A7C-850E-4DC5-A37D-7880EF83AF46";
name = "Oct 8 19, 17:37";
paths = (
{
closed = 1;
nodes = (
"219 683 OFFCURVE",
"218 648 OFFCURVE",
"218 247 CURVE SMOOTH",
"218 91 OFFCURVE",
"319 0 OFFCURVE",
"498 0 CURVE",
"498 90 LINE",
"370 90 OFFCURVE",
"308 140 OFFCURVE",
"308 247 CURVE SMOOTH",
"308 646 OFFCURVE",
"309 683 OFFCURVE",
"298 1085 CURVE",
"208 1083 LINE"
);
},
{
closed = 1;
nodes = (
"218 162 OFFCURVE",
"143 90 OFFCURVE",
"0 90 CURVE",
"0 0 LINE",
"197 0 OFFCURVE",
"308 108 OFFCURVE",
"308 301 CURVE",
"218 301 LINE"
);
}
);
width = 498;
},
{
anchors = (
{
name = "#entry";
position = "{498, 0}";
},
{
name = "#exit";
position = "{0, 0}";
}
);
associatedMasterId = "EA99615A-DD74-4F65-B9DC-480CDB683AEE";
layerId = "B2B7A912-3D79-4D45-9D36-74A2204FCD3D";
name = "Oct 8 19, 17:37";
paths = (
{
closed = 1;
nodes = (
"219 683 OFFCURVE",
"218 648 OFFCURVE",
"218 247 CURVE SMOOTH",
"218 91 OFFCURVE",
"319 0 OFFCURVE",
"498 0 CURVE",
"498 90 LINE",
"370 90 OFFCURVE",
"308 140 OFFCURVE",
"308 247 CURVE SMOOTH",
"308 646 OFFCURVE",
"309 683 OFFCURVE",
"298 1085 CURVE",
"208 1083 LINE"
);
},
{
closed = 1;
nodes = (
"218 162 OFFCURVE",
"143 90 OFFCURVE",
"0 90 CURVE",
"0 0 LINE",
"197 0 OFFCURVE",
"308 108 OFFCURVE",
"308 301 CURVE",
"218 301 LINE"
);
}
);
width = 498;
},
{
anchors = (
{
name = "#entry";
position = "{498, 0}";
},
{
name = "#exit";
position = "{0, 0}";
}
);
associatedMasterId = "EA99615A-DD74-4F65-B9DC-480CDB683AEE";
layerId = "F911CAAB-5FCD-41C8-BD40-2F9C73BDE39A";
name = "Oct 8 19, 17:37";
paths = (
{
closed = 1;
nodes = (
"219 683 OFFCURVE",
"218 648 OFFCURVE",
"218 247 CURVE SMOOTH",
"218 91 OFFCURVE",
"319 0 OFFCURVE",
"498 0 CURVE",
"498 90 LINE",
"370 90 OFFCURVE",
"308 140 OFFCURVE",
"308 247 CURVE SMOOTH",
"308 646 OFFCURVE",
"309 683 OFFCURVE",
"298 1085 CURVE",
"208 1083 LINE"
);
},
{
closed = 1;
nodes = (
"218 162 OFFCURVE",
"143 90 OFFCURVE",
"0 90 CURVE",
"0 0 LINE",
"197 0 OFFCURVE",
"308 108 OFFCURVE",
"308 301 CURVE",
"218 301 LINE"
);
}
);
width = 498;
},
{
anchors = (
{
name = "#entry";
position = "{498, 0}";
},
{
name = "#exit";
position = "{0, 0}";
}
);
associatedMasterId = "EA99615A-DD74-4F65-B9DC-480CDB683AEE";
layerId = "8F497A69-88AF-45CE-8549-DA69B6538EE8";
name = "Oct 8 19, 17:37";
paths = (
{
closed = 1;
nodes = (
"219 683 OFFCURVE",
"218 648 OFFCURVE",
"218 247 CURVE SMOOTH",
"218 91 OFFCURVE",
"319 0 OFFCURVE",
"498 0 CURVE",
"498 90 LINE",
"370 90 OFFCURVE",
"308 140 OFFCURVE",
"308 247 CURVE SMOOTH",
"308 646 OFFCURVE",
"309 683 OFFCURVE",
"298 1085 CURVE",
"208 1083 LINE"
);
},
{
closed = 1;
nodes = (
"218 162 OFFCURVE",
"143 90 OFFCURVE",
"0 90 CURVE",
"0 0 LINE",
"197 0 OFFCURVE",
"308 108 OFFCURVE",
"308 301 CURVE",
"218 301 LINE"
);
}
);
width = 498;
}
);
unicode = FEE0;
},
{
glyphname = "lam-ar.init";
layers = (
{
anchors = (
{
name = "#entry";
position = "{0, 0}";
},
{
name = bottom;
position = "{113, 0}";
},
{
name = top;
position = "{115, 1000}";
}
);
layerId = "7C6EC3B8-53E3-46D5-865A-ED8DFE2E3A2E";
paths = (
{
closed = 1;
nodes = (
"0 0 LINE",
"249 0 OFFCURVE",
"208 -9 OFFCURVE",
"208 996 CURVE",
"178 996 LINE",
"178 6 OFFCURVE",
"211 30 OFFCURVE",
"0 30 CURVE"
);
}
);
width = 251;
},
{
anchors = (
{
name = "#entry";
position = "{0, 0}";
},
{
name = bottom;
position = "{196, -331}";
}
);
layerId = "EA99615A-DD74-4F65-B9DC-480CDB683AEE";
paths = (
{
closed = 1;
nodes = (
"293 94 OFFCURVE",
"324 90 OFFCURVE",
"0 90 CURVE",
"0 0 LINE",
"427 0 OFFCURVE",
"383 125 OFFCURVE",
"383 1041 CURVE",
"293 1041 LINE"
);
}
);
width = 424;
},
{
anchors = (
{
name = "#entry";
position = "{0, 0}";
},
{
name = bottom;
position = "{113, 0}";
},
{
name = top;
position = "{160, 1000}";
}
);
layerId = "9AB624CD-9C19-4372-9845-4C197A276709";
paths = (
{
closed = 1;
nodes = (
"359 0 OFFCURVE",
"323 238 OFFCURVE",
"323 1001 CURVE",
"263 1001 LINE",
"263 234 OFFCURVE",
"289 60 OFFCURVE",
"0 60 CURVE",
"0 0 LINE"
);
}
);
width = 324;
},
{
anchors = (
{
name = "#entry";
position = "{0, 0}";
}
);
associatedMasterId = "EA99615A-DD74-4F65-B9DC-480CDB683AEE";
layerId = "FD206D18-0D18-4D4F-8AEE-8C1A3296EC42";
name = "Oct 8 19, 17:37";
paths = (
{
closed = 1;
nodes = (
"293 94 OFFCURVE",
"324 90 OFFCURVE",
"0 90 CURVE",
"0 0 LINE",
"427 0 OFFCURVE",
"383 125 OFFCURVE",
"383 1041 CURVE",
"293 1041 LINE"
);
}
);
width = 424;
},
{
anchors = (
{
name = "#entry";
position = "{0, 0}";
}
);
associatedMasterId = "EA99615A-DD74-4F65-B9DC-480CDB683AEE";
layerId = "ECC52AF2-78F1-485D-A10B-1A1A06F45457";
name = "Oct 8 19, 17:37";
paths = (
{
closed = 1;
nodes = (
"293 94 OFFCURVE",
"324 90 OFFCURVE",
"0 90 CURVE",
"0 0 LINE",
"427 0 OFFCURVE",
"383 125 OFFCURVE",
"383 1041 CURVE",
"293 1041 LINE"
);
}
);
width = 424;
},
{
anchors = (
{
name = "#entry";
position = "{0, 0}";
}
);
associatedMasterId = "EA99615A-DD74-4F65-B9DC-480CDB683AEE";
layerId = "0E5F0BD1-B0E8-4DDF-ACF6-07CC32C78203";
name = "Oct 8 19, 17:37";
paths = (
{
closed = 1;
nodes = (
"293 94 OFFCURVE",
"324 90 OFFCURVE",
"0 90 CURVE",
"0 0 LINE",
"427 0 OFFCURVE",
"383 125 OFFCURVE",
"383 1041 CURVE",
"293 1041 LINE"
);
}
);
width = 424;
},
{
anchors = (
{
name = "#entry";
position = "{0, 0}";
}
);
associatedMasterId = "EA99615A-DD74-4F65-B9DC-480CDB683AEE";
layerId = "4463D271-3C09-459E-8CD4-71CFB252A879";
name = "Oct 8 19, 17:37";
paths = (
{
closed = 1;
nodes = (
"293 94 OFFCURVE",
"324 90 OFFCURVE",
"0 90 CURVE",
"0 0 LINE",
"427 0 OFFCURVE",
"383 125 OFFCURVE",
"383 1041 CURVE",
"293 1041 LINE"
);
}
);
width = 424;
},
{
anchors = (
{
name = "#entry";
position = "{0, 0}";
}
);
associatedMasterId = "EA99615A-DD74-4F65-B9DC-480CDB683AEE";
layerId = "186A7B2B-9E3F-4D82-8B86-BFF00F923844";
name = "Oct 8 19, 17:37";
paths = (
{
closed = 1;
nodes = (
"293 94 OFFCURVE",
"324 90 OFFCURVE",
"0 90 CURVE",
"0 0 LINE",
"427 0 OFFCURVE",
"383 125 OFFCURVE",
"383 1041 CURVE",
"293 1041 LINE"
);
}
);
width = 424;
},
{
anchors = (
{
name = "#entry";
position = "{0, 0}";
}
);
associatedMasterId = "EA99615A-DD74-4F65-B9DC-480CDB683AEE";
layerId = "EAC725F6-B9B5-4F9D-A02A-5B8EBB2C62A0";
name = "Oct 8 19, 17:37";
paths = (
{
closed = 1;
nodes = (
"293 94 OFFCURVE",
"324 90 OFFCURVE",
"0 90 CURVE",
"0 0 LINE",
"427 0 OFFCURVE",
"383 125 OFFCURVE",
"383 1041 CURVE",
"293 1041 LINE"
);
}
);
width = 424;
},
{
anchors = (
{
name = "#entry";
position = "{0, 0}";
}
);
associatedMasterId = "EA99615A-DD74-4F65-B9DC-480CDB683AEE";
layerId = "58D7D53C-97C7-411E-BE7F-82482B9AE553";
name = "Oct 8 19, 17:37";
paths = (
{
closed = 1;
nodes = (
"293 94 OFFCURVE",
"324 90 OFFCURVE",
"0 90 CURVE",
"0 0 LINE",
"427 0 OFFCURVE",
"383 125 OFFCURVE",
"383 1041 CURVE",
"293 1041 LINE"
);
}
);
width = 424;
},
{
anchors = (
{
name = "#entry";
position = "{0, 0}";
}
);
associatedMasterId = "EA99615A-DD74-4F65-B9DC-480CDB683AEE";
layerId = "05BE6655-F042-47A9-9862-8B0A57C0B8AE";
name = "Oct 8 19, 17:37";
paths = (
{
closed = 1;
nodes = (
"293 94 OFFCURVE",
"324 90 OFFCURVE",
"0 90 CURVE",
"0 0 LINE",
"427 0 OFFCURVE",
"383 125 OFFCURVE",
"383 1041 CURVE",
"293 1041 LINE"
);
}
);
width = 424;
}
);
unicode = FEDF;
},
{
glyphname = "meem-ar";
layers = (
{
anchors = (
{
name = "#entry";
position = "{700, 0}";
},
{
name = bottom;
position = "{460, 0}";
},
{
name = top;
position = "{432, 659}";
}
);
layerId = "7C6EC3B8-53E3-46D5-865A-ED8DFE2E3A2E";
paths = (
{
closed = 1;
nodes = (
"460 495 LINE",
"269 497 OFFCURVE",
"28 358 OFFCURVE",
"27 165 CURVE SMOOTH",
"26 34 OFFCURVE",
"28 -182 OFFCURVE",
"29 -360 CURVE SMOOTH",
"30 -486 OFFCURVE",
"33 -593 OFFCURVE",
"32 -635 CURVE",
"62 -635 LINE",
"63 -594 OFFCURVE",
"60 -492 OFFCURVE",
"59 -371 CURVE SMOOTH",
"58 -192 OFFCURVE",
"57 31 OFFCURVE",
"57 165 CURVE SMOOTH",
"57 320 OFFCURVE",
"281 471 OFFCURVE",
"462 467 CURVE"
);
},
{
closed = 1;
nodes = (
"245 401 OFFCURVE",
"311 468 OFFCURVE",
"460 467 CURVE SMOOTH",
"617 466 OFFCURVE",
"687 401 OFFCURVE",
"687 248 CURVE SMOOTH",
"687 84 OFFCURVE",
"630 30 OFFCURVE",
"460 30 CURVE SMOOTH",
"319 30 OFFCURVE",
"245 105 OFFCURVE",
"245 248 CURVE SMOOTH"
);
},
{
closed = 1;
nodes = (
"215 88 OFFCURVE",
"302 0 OFFCURVE",
"460 0 CURVE SMOOTH",
"647 0 OFFCURVE",
"717 67 OFFCURVE",
"717 248 CURVE SMOOTH",
"717 418 OFFCURVE",
"634 498 OFFCURVE",
"460 497 CURVE SMOOTH",
"295 496 OFFCURVE",
"215 417 OFFCURVE",
"215 248 CURVE SMOOTH"
);
}
);
width = 744;
},
{
anchors = (
{
name = "#entry";
position = "{519, 0}";
}
);
layerId = "EA99615A-DD74-4F65-B9DC-480CDB683AEE";
paths = (
{
closed = 1;
nodes = (
"52 -760 LINE",
"142 -760 LINE",
"140 -498 OFFCURVE",
"139 -412 OFFCURVE",
"139 -327 CURVE SMOOTH",
"136 -64 OFFCURVE",
"236 0 OFFCURVE",
"519 0 CURVE SMOOTH",
"731 0 OFFCURVE",
"828 95 OFFCURVE",
"828 302 CURVE SMOOTH",
"828 510 OFFCURVE",
"731 605 OFFCURVE",
"519 605 CURVE SMOOTH",
"314 605 OFFCURVE",
"220 510 OFFCURVE",
"220 302 CURVE SMOOTH",
"220 197 OFFCURVE",
"244 120 OFFCURVE",
"296 71 CURVE",
"117 31 OFFCURVE",
"56 -66 OFFCURVE",
"50 -273 CURVE SMOOTH"
);
},
{
closed = 1;
nodes = (
"310 448 OFFCURVE",
"376 515 OFFCURVE",
"519 515 CURVE SMOOTH",
"669 515 OFFCURVE",
"738 448 OFFCURVE",
"738 302 CURVE SMOOTH",
"738 130 OFFCURVE",
"663 91 OFFCURVE",
"519 91 CURVE SMOOTH",
"379 91 OFFCURVE",
"310 169 OFFCURVE",
"310 302 CURVE SMOOTH"
);
}
);
width = 878;
},
{
anchors = (
{
name = "#entry";
position = "{700, 0}";
},
{
name = bottom;
position = "{460, 0}";
}
);
layerId = "9AB624CD-9C19-4372-9845-4C197A276709";
paths = (
{
closed = 1;
nodes = (
"275 384 OFFCURVE",
"328 438 OFFCURVE",
"460 437 CURVE SMOOTH",
"602 436 OFFCURVE",
"657 383 OFFCURVE",
"657 248 CURVE SMOOTH",
"657 102 OFFCURVE",
"614 60 OFFCURVE",
"460 60 CURVE SMOOTH",
"336 60 OFFCURVE",
"275 122 OFFCURVE",
"275 248 CURVE SMOOTH"
);
},
{
closed = 1;
nodes = (
"215 88 OFFCURVE",
"302 0 OFFCURVE",
"460 0 CURVE SMOOTH",
"647 0 OFFCURVE",
"717 67 OFFCURVE",
"717 248 CURVE SMOOTH",
"717 417 OFFCURVE",
"635 496 OFFCURVE",
"460 497 CURVE SMOOTH",
"294 498 OFFCURVE",
"215 418 OFFCURVE",
"215 248 CURVE SMOOTH"
);
},
{
closed = 1;
nodes = (
"255 502 OFFCURVE",
"27 330 OFFCURVE",
"27 165 CURVE SMOOTH",
"27 31 OFFCURVE",
"28 -192 OFFCURVE",
"29 -371 CURVE SMOOTH",
"29 -424 OFFCURVE",
"30 -474 OFFCURVE",
"31 -516 CURVE SMOOTH",
"32 -570 OFFCURVE",
"33 -612 OFFCURVE",
"32 -634 CURVE",
"92 -636 LINE",
"93 -594 OFFCURVE",
"90 -491 OFFCURVE",
"89 -371 CURVE SMOOTH",
"88 -192 OFFCURVE",
"87 31 OFFCURVE",
"87 165 CURVE SMOOTH",
"87 295 OFFCURVE",
"287 441 OFFCURVE",
"461 437 CURVE",
"463 497 LINE"
);
}
);
width = 744;
}
);
rightMetricsKey = "=|";
unicode = 0645;
},
{
glyphname = "meem-ar.001";
layers = (
{
anchors = (
{
name = "#entry";
position = "{460, 0}";
}
);
layerId = "7C6EC3B8-53E3-46D5-865A-ED8DFE2E3A2E";
paths = (
{
closed = 1;
nodes = (
"453 515 LINE",
"257 492 OFFCURVE",
"7 378 OFFCURVE",
"20 185 CURVE SMOOTH",
"29 54 OFFCURVE",
"31 -162 OFFCURVE",
"32 -340 CURVE SMOOTH",
"33 -466 OFFCURVE",
"26 -573 OFFCURVE",
"25 -615 CURVE",
"55 -615 LINE",
"56 -574 OFFCURVE",
"63 -472 OFFCURVE",
"62 -351 CURVE SMOOTH",
"61 -172 OFFCURVE",
"60 51 OFFCURVE",
"50 185 CURVE SMOOTH",
"38 340 OFFCURVE",
"269 466 OFFCURVE",
"455 487 CURVE"
);
},
{
closed = 1;
nodes = (
"342 30 OFFCURVE",
"246 132 OFFCURVE",
"246 257 CURVE SMOOTH",
"246 383 OFFCURVE",
"342 485 OFFCURVE",
"460 485 CURVE SMOOTH",
"578 485 OFFCURVE",
"674 383 OFFCURVE",
"674 257 CURVE SMOOTH",
"674 132 OFFCURVE",
"578 30 OFFCURVE",
"460 30 CURVE SMOOTH"
);
},
{
closed = 1;
nodes = (
"595 0 OFFCURVE",
"704 115 OFFCURVE",
"704 257 CURVE SMOOTH",
"704 401 OFFCURVE",
"595 515 OFFCURVE",
"460 515 CURVE SMOOTH",
"325 515 OFFCURVE",
"216 400 OFFCURVE",
"216 257 CURVE SMOOTH",
"216 115 OFFCURVE",
"325 0 OFFCURVE",
"460 0 CURVE SMOOTH"
);
}
);
width = 724;
},
{
anchors = (
{
name = "#entry";
position = "{570, 0}";
}
);
layerId = "EA99615A-DD74-4F65-B9DC-480CDB683AEE";
paths = (
{
closed = 1;
nodes = (
"782 0 OFFCURVE",
"879 95 OFFCURVE",
"879 302 CURVE SMOOTH",
"879 510 OFFCURVE",
"782 605 OFFCURVE",
"570 605 CURVE SMOOTH",
"365 605 OFFCURVE",
"271 510 OFFCURVE",
"271 302 CURVE SMOOTH",
"271 95 OFFCURVE",
"365 0 OFFCURVE",
"570 0 CURVE SMOOTH"
);
},
{
closed = 1;
nodes = (
"427 90 OFFCURVE",
"361 157 OFFCURVE",
"361 302 CURVE SMOOTH",
"361 448 OFFCURVE",
"427 515 OFFCURVE",
"570 515 CURVE SMOOTH",
"720 515 OFFCURVE",
"789 448 OFFCURVE",
"789 302 CURVE SMOOTH",
"789 157 OFFCURVE",
"720 90 OFFCURVE",
"570 90 CURVE SMOOTH"
);
},
{
closed = 1;
nodes = (
"136 -573 OFFCURVE",
"135 -466 OFFCURVE",
"134 -340 CURVE SMOOTH",
"133 -215 OFFCURVE",
"132 -72 OFFCURVE",
"131 48 CURVE",
"131 99 OFFCURVE",
"130 146 OFFCURVE",
"130 185 CURVE",
"128 404 OFFCURVE",
"276 515 OFFCURVE",
"570 515 CURVE",
"570 605 LINE",
"227 605 OFFCURVE",
"38 456 OFFCURVE",
"40 185 CURVE SMOOTH",
"41 54 OFFCURVE",
"43 -162 OFFCURVE",
"44 -340 CURVE SMOOTH",
"45 -466 OFFCURVE",
"46 -573 OFFCURVE",
"45 -613 CURVE",
"135 -615 LINE"
);
}
);
width = 919;
},
{
anchors = (
{
name = "#entry";
position = "{453, 0}";
}
);
layerId = "9AB624CD-9C19-4372-9845-4C197A276709";
paths = (
{
closed = 1;
nodes = (
"310 60 OFFCURVE",
"274 161 OFFCURVE",
"274 262 CURVE SMOOTH",
"274 363 OFFCURVE",
"360 445 OFFCURVE",
"453 445 CURVE SMOOTH",
"542 445 OFFCURVE",
"612 371 OFFCURVE",
"612 262 CURVE SMOOTH",
"612 155 OFFCURVE",
"591 60 OFFCURVE",
"453 60 CURVE SMOOTH"
);
},
{
closed = 1;
nodes = (
"625 0 OFFCURVE",
"672 122 OFFCURVE",
"672 262 CURVE SMOOTH",
"672 404 OFFCURVE",
"576 505 OFFCURVE",
"453 505 CURVE SMOOTH",
"326 505 OFFCURVE",
"214 396 OFFCURVE",
"214 262 CURVE SMOOTH",
"214 129 OFFCURVE",
"276 0 OFFCURVE",
"453 0 CURVE SMOOTH"
);
},
{
closed = 1;
nodes = (
"-28 499 OFFCURVE",
"30 276 OFFCURVE",
"35 -335 CURVE SMOOTH",
"36 -461 OFFCURVE",
"37 -568 OFFCURVE",
"36 -612 CURVE",
"96 -612 LINE",
"97 -568 OFFCURVE",
"96 -461 OFFCURVE",
"95 -335 CURVE SMOOTH",
"90 284 OFFCURVE",
"50 441 OFFCURVE",
"455 445 CURVE",
"453 505 LINE"
);
}
);
width = 702;
}
);
rightMetricsKey = "=|";
},
{
glyphname = "meem-ar.002";
layers = (
{
anchors = (
{
name = "#entry";
position = "{460, 0}";
}
);
layerId = "7C6EC3B8-53E3-46D5-865A-ED8DFE2E3A2E";
paths = (
{
closed = 1;
nodes = (
"453 515 LINE",
"257 492 OFFCURVE",
"7 378 OFFCURVE",
"20 185 CURVE SMOOTH",
"29 54 OFFCURVE",
"31 -162 OFFCURVE",
"32 -340 CURVE SMOOTH",
"33 -466 OFFCURVE",
"26 -573 OFFCURVE",
"25 -615 CURVE",
"55 -615 LINE",
"56 -574 OFFCURVE",
"63 -472 OFFCURVE",
"62 -351 CURVE SMOOTH",
"61 -172 OFFCURVE",
"60 51 OFFCURVE",
"50 185 CURVE SMOOTH",
"38 340 OFFCURVE",
"269 466 OFFCURVE",
"455 487 CURVE"
);
},
{
closed = 1;
nodes = (
"342 30 OFFCURVE",
"246 132 OFFCURVE",
"246 257 CURVE SMOOTH",
"246 383 OFFCURVE",
"342 485 OFFCURVE",
"460 485 CURVE SMOOTH",
"578 485 OFFCURVE",
"674 383 OFFCURVE",
"674 257 CURVE SMOOTH",
"674 132 OFFCURVE",
"578 30 OFFCURVE",
"460 30 CURVE SMOOTH"
);
},
{
closed = 1;
nodes = (
"595 0 OFFCURVE",
"704 115 OFFCURVE",
"704 257 CURVE SMOOTH",
"704 401 OFFCURVE",
"595 515 OFFCURVE",
"460 515 CURVE SMOOTH",
"325 515 OFFCURVE",
"216 400 OFFCURVE",
"216 257 CURVE SMOOTH",
"216 115 OFFCURVE",
"325 0 OFFCURVE",
"460 0 CURVE SMOOTH"
);
},
{
closed = 1;
nodes = (
"254 407 OFFCURVE",
"320 474 OFFCURVE",
"463 474 CURVE SMOOTH",
"613 474 OFFCURVE",
"682 407 OFFCURVE",
"682 261 CURVE SMOOTH",
"682 89 OFFCURVE",
"607 50 OFFCURVE",
"463 50 CURVE SMOOTH",
"323 50 OFFCURVE",
"254 128 OFFCURVE",
"254 261 CURVE SMOOTH"
);
}
);
width = 724;
},
{
anchors = (
{
name = "#entry";
position = "{519, 0}";
}
);
layerId = "EA99615A-DD74-4F65-B9DC-480CDB683AEE";
paths = (
{
closed = 1;
nodes = (
"52 -760 LINE",
"142 -760 LINE",
"140 -498 OFFCURVE",
"139 -412 OFFCURVE",
"139 -327 CURVE SMOOTH",
"136 -64 OFFCURVE",
"236 0 OFFCURVE",
"519 0 CURVE SMOOTH",
"731 0 OFFCURVE",
"828 95 OFFCURVE",
"828 302 CURVE SMOOTH",
"828 510 OFFCURVE",
"731 605 OFFCURVE",
"519 605 CURVE SMOOTH",
"314 605 OFFCURVE",
"220 510 OFFCURVE",
"220 302 CURVE SMOOTH",
"220 197 OFFCURVE",
"244 120 OFFCURVE",
"296 71 CURVE",
"117 31 OFFCURVE",
"56 -66 OFFCURVE",
"50 -273 CURVE SMOOTH"
);
},
{
closed = 1;
nodes = (
"310 448 OFFCURVE",
"376 515 OFFCURVE",
"519 515 CURVE SMOOTH",
"669 515 OFFCURVE",
"738 448 OFFCURVE",
"738 302 CURVE SMOOTH",
"738 130 OFFCURVE",
"663 91 OFFCURVE",
"519 91 CURVE SMOOTH",
"379 91 OFFCURVE",
"310 169 OFFCURVE",
"310 302 CURVE SMOOTH"
);
}
);
width = 878;
},
{
anchors = (
{
name = "#entry";
position = "{453, 0}";
}
);
layerId = "9AB624CD-9C19-4372-9845-4C197A276709";
paths = (
{
closed = 1;
nodes = (
"310 60 OFFCURVE",
"274 161 OFFCURVE",
"274 262 CURVE SMOOTH",
"274 363 OFFCURVE",
"360 445 OFFCURVE",
"453 445 CURVE SMOOTH",
"542 445 OFFCURVE",
"612 371 OFFCURVE",
"612 262 CURVE SMOOTH",
"612 155 OFFCURVE",
"591 60 OFFCURVE",
"453 60 CURVE SMOOTH"
);
},
{
closed = 1;
nodes = (
"625 0 OFFCURVE",
"672 122 OFFCURVE",
"672 262 CURVE SMOOTH",
"672 404 OFFCURVE",
"576 505 OFFCURVE",
"453 505 CURVE SMOOTH",
"326 505 OFFCURVE",
"214 396 OFFCURVE",
"214 262 CURVE SMOOTH",
"214 129 OFFCURVE",
"276 0 OFFCURVE",
"453 0 CURVE SMOOTH"
);
},
{
closed = 1;
nodes = (
"-28 499 OFFCURVE",
"30 276 OFFCURVE",
"35 -335 CURVE SMOOTH",
"36 -461 OFFCURVE",
"37 -568 OFFCURVE",
"36 -612 CURVE",
"96 -612 LINE",
"97 -568 OFFCURVE",
"96 -461 OFFCURVE",
"95 -335 CURVE SMOOTH",
"90 284 OFFCURVE",
"50 441 OFFCURVE",
"455 445 CURVE",
"453 505 LINE"
);
}
);
width = 702;
}
);
rightMetricsKey = "=|";
},
{
glyphname = "meem-ar.fina";
layers = (
{
anchors = (
{
name = "#entry";
position = "{820, 0}";
},
{
name = bottom;
position = "{473, 0}";
},
{
name = top;
position = "{476, 692}";
}
);
layerId = "7C6EC3B8-53E3-46D5-865A-ED8DFE2E3A2E";
paths = (
{
closed = 1;
nodes = (
"40 140 OFFCURVE",
"40 112 OFFCURVE",
"40 81 CURVE SMOOTH",
"40 -47 OFFCURVE",
"41 -216 OFFCURVE",
"42 -360 CURVE SMOOTH",
"43 -486 OFFCURVE",
"46 -593 OFFCURVE",
"45 -635 CURVE",
"75 -635 LINE",
"76 -594 OFFCURVE",
"73 -492 OFFCURVE",
"72 -371 CURVE SMOOTH",
"71 -192 OFFCURVE",
"70 31 OFFCURVE",
"70 165 CURVE SMOOTH",
"70 263 OFFCURVE",
"160 360 OFFCURVE",
"273 417 CURVE",
"243 376 OFFCURVE",
"228 320 OFFCURVE",
"228 248 CURVE SMOOTH",
"228 88 OFFCURVE",
"315 0 OFFCURVE",
"473 0 CURVE SMOOTH",
"601 0 OFFCURVE",
"674 31 OFFCURVE",
"708 109 CURVE",
"718 28 OFFCURVE",
"746 0 OFFCURVE",
"820 0 CURVE",
"820 30 LINE",
"740 30 OFFCURVE",
"730 64 OFFCURVE",
"730 248 CURVE SMOOTH",
"730 417 OFFCURVE",
"648 497 OFFCURVE",
"476 497 CURVE SMOOTH",
"439 497 OFFCURVE",
"407 493 OFFCURVE",
"378 485 CURVE",
"211 451 OFFCURVE",
"41 327 OFFCURVE",
"40 165 CURVE SMOOTH"
);
},
{
closed = 1;
nodes = (
"258 369 OFFCURVE",
"300 437 OFFCURVE",
"391 459 CURVE SMOOTH",
"427 466 OFFCURVE",
"422 465 OFFCURVE",
"473 467 CURVE SMOOTH",
"630 466 OFFCURVE",
"700 401 OFFCURVE",
"700 248 CURVE SMOOTH",
"700 84 OFFCURVE",
"643 30 OFFCURVE",
"473 30 CURVE SMOOTH",
"332 30 OFFCURVE",
"258 105 OFFCURVE",
"258 248 CURVE SMOOTH"
);
}
);
width = 820;
},
{
anchors = (
{
name = "#entry";
position = "{1041, 0}";
}
);
hints = (
{
horizontal = 1;
origin = "{0, 7}";
target = "{1, 8}";
type = Stem;
},
{
horizontal = 1;
origin = "{1, 2}";
target = "{0, 20}";
type = Stem;
},
{
place = "{46, 88}";
type = Stem;
},
{
origin = "{0, 23}";
target = "{1, 11}";
type = Stem;
},
{
origin = "{1, 5}";
target = "{0, 17}";
type = Stem;
}
);
layerId = "EA99615A-DD74-4F65-B9DC-480CDB683AEE";
paths = (
{
closed = 1;
nodes = (
"47 -760 LINE",
"137 -760 LINE",
"135 -498 OFFCURVE",
"134 -412 OFFCURVE",
"134 -327 CURVE",
"131 -64 OFFCURVE",
"231 0 OFFCURVE",
"514 0 CURVE SMOOTH",
"636 0 OFFCURVE",
"719 31 OFFCURVE",
"769 97 CURVE",
"809 39 OFFCURVE",
"889 0 OFFCURVE",
"1041 0 CURVE",
"1041 90 LINE",
"857 90 OFFCURVE",
"819 131 OFFCURVE",
"823 302 CURVE SMOOTH",
"823 510 OFFCURVE",
"726 605 OFFCURVE",
"514 605 CURVE SMOOTH",
"309 605 OFFCURVE",
"215 510 OFFCURVE",
"215 302 CURVE SMOOTH",
"215 197 OFFCURVE",
"239 120 OFFCURVE",
"291 71 CURVE",
"112 31 OFFCURVE",
"51 -66 OFFCURVE",
"45 -273 CURVE SMOOTH"
);
},
{
closed = 1;
nodes = (
"305 448 OFFCURVE",
"371 515 OFFCURVE",
"514 515 CURVE SMOOTH",
"664 515 OFFCURVE",
"733 448 OFFCURVE",
"733 302 CURVE SMOOTH",
"733 130 OFFCURVE",
"658 91 OFFCURVE",
"514 91 CURVE SMOOTH",
"374 91 OFFCURVE",
"305 169 OFFCURVE",
"305 302 CURVE SMOOTH"
);
}
);
width = 1041;
},
{
anchors = (
{
name = "#entry";
position = "{830, 0}";
},
{
name = bottom;
position = "{460, 0}";
},
{
name = top;
position = "{463, 497}";
}
);
layerId = "9AB624CD-9C19-4372-9845-4C197A276709";
paths = (
{
closed = 1;
nodes = (
"27 31 OFFCURVE",
"28 -192 OFFCURVE",
"29 -371 CURVE SMOOTH",
"29 -421 OFFCURVE",
"33 -609 OFFCURVE",
"32 -634 CURVE",
"92 -636 LINE",
"93 -594 OFFCURVE",
"90 -491 OFFCURVE",
"89 -371 CURVE SMOOTH",
"88 -192 OFFCURVE",
"87 31 OFFCURVE",
"87 165 CURVE SMOOTH",
"87 237 OFFCURVE",
"149 314 OFFCURVE",
"233 368 CURVE",
"221 334 OFFCURVE",
"215 295 OFFCURVE",
"215 248 CURVE SMOOTH",
"215 88 OFFCURVE",
"302 0 OFFCURVE",
"460 0 CURVE SMOOTH",
"566 0 OFFCURVE",
"634 22 OFFCURVE",
"674 73 CURVE",
"699 22 OFFCURVE",
"749 0 OFFCURVE",
"830 0 CURVE",
"830 60 LINE",
"705 60 OFFCURVE",
"717 104 OFFCURVE",
"717 248 CURVE SMOOTH",
"717 416 OFFCURVE",
"636 495 OFFCURVE",
"463 497 CURVE SMOOTH",
"255 502 OFFCURVE",
"27 330 OFFCURVE",
"27 165 CURVE SMOOTH"
);
},
{
closed = 1;
nodes = (
"275 385 OFFCURVE",
"328 437 OFFCURVE",
"460 437 CURVE SMOOTH",
"602 436 OFFCURVE",
"657 383 OFFCURVE",
"657 248 CURVE SMOOTH",
"657 99 OFFCURVE",
"611 60 OFFCURVE",
"460 60 CURVE SMOOTH",
"336 60 OFFCURVE",
"275 122 OFFCURVE",
"275 248 CURVE SMOOTH"
);
}
);
width = 830;
}
);
unicode = FEE2;
},
{
glyphname = "meem-ar.medi";
layers = (
{
components = (
{
name = _connector_light;
transform = "{1, 0, 0, 1, 316, 0}";
},
{
name = "meem-ar.init";
}
);
layerId = "7C6EC3B8-53E3-46D5-865A-ED8DFE2E3A2E";
width = 700;
},
{
anchors = (
{
name = "#entry";
position = "{1032, 0}";
},
{
name = "#exit";
position = "{0, 0}";
}
);
components = (
{
name = "meem-ar.init";
}
);
layerId = "EA99615A-DD74-4F65-B9DC-480CDB683AEE";
paths = (
{
closed = 1;
nodes = (
"733 270 LINE",
"732 86 OFFCURVE",
"774 0 OFFCURVE",
"1032 0 CURVE",
"1032 90 LINE",
"866 90 OFFCURVE",
"823 116 OFFCURVE",
"822 279 CURVE"
);
}
);
width = 1032;
},
{
anchors = (
{
name = "#entry";
position = "{894, 0}";
}
);
components = (
{
name = "meem-ar.init";
}
);
layerId = "9AB624CD-9C19-4372-9845-4C197A276709";
paths = (
{
closed = 1;
nodes = (
"566 259 LINE",
"576 61 OFFCURVE",
"660 0 OFFCURVE",
"894 0 CURVE",
"894 60 LINE",
"692 60 OFFCURVE",
"631 100 OFFCURVE",
"625 267 CURVE"
);
}
);
width = 894;
}
);
unicode = FEE4;
},
